<svg width="324" height="286" viewBox="0 0 324 286" fill="none" xmlns="http://www.w3.org/2000/svg">
<path d="M-219.896 27.0922C-185.815 41.1153 -155.62 60.7491 -131.194 84.7694C-95.1942 120.612 -97.1523 142.57 -62.5753 163.046C-28.9689 182.931 17.1562 188.41 54.5785 180.898C105.641 170.64 107.95 142.721 173.406 98.5021C211.899 72.5199 284.083 23.7414 369.22 28.4654C412.232 30.8549 454.993 46.7024 494.742 61.4239C543.461 79.4686 550.457 88.7382 576.749 93.0091C607.979 98.0901 656.263 94.4784 725.702 49.0645" stroke="#4A3AFF" stroke-opacity="0.4" stroke-width="0.5" stroke-miterlimit="10"/>
<path d="M-220.85 32.2281C-190.139 44.5476 -162.454 61.399 -139.177 81.9405C-136.951 83.9317 -134.725 85.9779 -132.482 88.079C-96.1143 122.795 -97.5537 143.765 -63.4117 163.732C-48.5293 172.47 -31.6785 178.692 -13.8389 182.038C-1.06076 184.425 12.0446 185.422 25.1398 185.004C34.9324 184.687 44.6505 183.467 54.1102 181.365C64.6513 179.142 74.672 175.504 83.7668 170.599C100.503 161.535 112.218 149.299 130.243 133.946C143.821 122.391 158.593 111.823 174.394 102.361C182.762 97.2799 192.536 91.1551 203.833 84.8793C234.058 68.043 272.736 49.7511 319.145 43.434C334.893 41.2292 350.894 40.4921 366.844 41.2368C369.287 41.3466 371.714 41.5114 374.107 41.7037C397.806 43.5851 420.383 48.57 443.446 55.1892C460.701 60.078 477.018 66.1753 493.202 71.9019C499.981 74.3463 506.039 76.571 511.512 78.6583C544.566 91.3061 553.152 98.0901 575.729 101.056C592.884 103.309 615.076 102.91 643.243 94.8904C666.339 88.3262 693.686 76.5023 725.702 56.947" stroke="#4A3AFF" stroke-opacity="0.4" stroke-width="0.5" stroke-miterlimit="10"/>
<path d="M-221.736 37.3916C-191.344 49.2455 -163.829 65.5314 -140.532 85.456C-138.301 87.3786 -136.069 89.3469 -133.838 91.3611C-97.0179 124.965 -97.905 144.919 -64.2316 164.419C-49.3137 173.27 -32.4092 179.613 -14.4915 183.082C-1.63799 185.484 11.5532 186.445 24.7215 185.938C34.5289 185.528 44.2397 184.144 53.6418 181.818C64.1306 179.331 74.0968 175.547 83.198 170.599C100.604 161.26 112.955 149.423 130.779 135.086C144.42 124.204 159.363 114.478 175.381 106.055C183.749 101.551 193.306 96.0302 204.486 90.5646C234.276 75.9942 270.594 60.7097 316.535 55.7247C332.407 53.9304 348.447 53.3419 364.451 53.967C366.928 54.0768 369.371 54.2141 371.781 54.3927C395.881 56.123 417.889 60.3938 441.421 66.2852C459.144 70.7346 475.312 76.722 491.629 82.3661C498.408 84.7007 504.533 86.8293 510.14 88.8205C543.294 100.644 552.181 106.879 574.675 109.076C591.813 110.752 613.837 109.832 642.155 101.715C665.285 95.0689 692.983 83.4648 725.702 64.857" stroke="#4A3AFF" stroke-opacity="0.4" stroke-width="0.5" stroke-miterlimit="10"/>
<path d="M-222.791 42.4728C-192.647 53.8778 -165.245 69.6321 -141.888 88.9854C-139.662 90.853 -137.419 92.7481 -135.193 94.6844C-97.8883 127.162 -98.3067 146.127 -65.0853 165.106C-49.3532 174.087 -33.8554 180.555 -15.1945 184.139C-2.25481 186.561 11.0343 187.486 24.2863 186.886C34.1124 186.379 43.8168 184.828 53.1563 182.272C63.5983 179.522 73.5232 175.593 82.6456 170.599C100.687 160.986 113.658 149.574 131.298 136.267C145.015 126.053 160.142 117.19 176.369 109.859C184.82 105.932 194.092 101.015 205.138 96.3598C234.644 83.918 268.451 71.7371 313.924 68.0568C329.921 66.6782 346.018 66.2422 362.091 66.7522C364.584 66.8483 367.112 66.9719 369.455 67.1367C393.101 68.7258 416.506 72.1795 439.345 77.4499C457.538 81.4461 473.571 87.3787 490.09 92.8717C496.868 95.1239 503.043 97.1426 508.801 99.0377C542.039 110.024 551.244 115.682 573.637 117.151C590.775 118.277 612.683 116.794 641.101 108.582C664.28 101.935 692.28 90.4136 725.703 72.6847" stroke="#4A3AFF" stroke-opacity="0.4" stroke-width="0.5" stroke-miterlimit="10"/>
<path d="M-223.762 47.5951C-193.909 58.5568 -166.651 73.7589 -143.244 92.501C-141.018 94.3137 -138.758 96.1264 -136.549 97.994C-98.8425 129.401 -98.6752 147.253 -65.9223 165.806C-49.8388 174.883 -34.8599 181.53 -15.8642 185.197C-2.85017 187.643 10.5276 188.526 23.8509 187.82C33.7218 187.232 43.4445 185.517 52.7377 182.725C63.1095 179.735 72.9829 175.689 82.1265 170.681C100.804 160.78 114.478 149.835 131.867 137.434C144.134 128.7 158.645 121.065 177.406 113.649C185.925 110.271 194.996 105.945 205.858 102.114C235.246 91.7457 266.376 82.7508 311.296 80.375C327.395 79.4007 343.545 79.1119 359.68 79.5098C362.208 79.5922 364.701 79.7021 367.095 79.8394C390.784 81.1139 414.299 84.0357 437.387 88.5734C456.081 92.1165 471.88 98.0078 488.566 103.309C495.261 105.478 501.604 107.428 507.495 109.2C540.8 119.417 550.323 124.429 572.649 125.157C589.787 125.72 611.544 123.702 640.08 115.407C663.259 108.664 691.594 97.3486 725.702 80.5261" stroke="#4A3AFF" stroke-opacity="0.4" stroke-width="0.5" stroke-miterlimit="10"/>
<path d="M-224.716 52.7174C-195.161 63.2431 -168.054 77.893 -144.599 96.0166C-142.373 97.7606 -140.114 99.4909 -137.905 101.276C-99.746 131.488 -99.0598 148.448 -66.7923 166.479C-50.3573 175.666 -35.8972 182.491 -16.5835 186.24C-3.48283 188.707 9.99441 189.55 23.3994 188.74C33.2724 188.067 42.9686 186.193 52.169 183.178C62.479 179.935 72.3096 175.748 81.4742 170.695C100.805 160.533 115.198 150.096 132.302 138.602C144.938 130.142 159.766 123.496 178.31 117.426C186.929 114.597 195.799 110.889 206.427 107.813C235.933 99.436 264.201 93.7095 308.652 92.6108C324.1 92.2263 341.187 91.7457 357.271 92.1989C359.831 92.2675 362.292 92.3637 364.735 92.4735C388.431 93.4324 412.009 95.8191 435.278 99.6145C454.441 102.704 470.123 108.554 486.993 113.745C493.772 115.833 500.081 117.632 506.123 119.335C539.495 128.851 549.386 133.521 571.562 133.232C588.7 133.012 610.323 130.664 638.959 122.246C662.155 115.38 690.841 104.297 725.636 88.3949" stroke="#4A3AFF" stroke-opacity="0.4" stroke-width="0.5" stroke-miterlimit="10"/>
<path d="M-225.686 57.8258C-196.425 67.9261 -169.465 82.0284 -145.955 99.532C-143.729 101.207 -141.453 102.869 -139.26 104.572C-100.633 133.685 -99.4281 149.601 -67.646 167.165C-50.9098 176.435 -36.935 183.452 -17.2699 187.298C-4.10776 189.77 9.43882 190.572 22.8971 189.673C32.8025 188.907 42.4996 186.868 51.6332 183.631C61.8591 180.122 71.6408 175.798 80.838 170.722C100.804 160.272 115.984 150.288 132.72 139.755C145.741 131.515 160.904 125.94 179.197 121.202C187.95 118.923 197.473 117.604 206.979 113.635C237.824 112.578 262.092 102.649 305.924 104.984C321.405 105.822 338.76 104.654 354.777 104.984C357.371 105.053 359.881 105.121 362.291 105.217C388.099 106.22 407.848 107.387 433.153 110.71C452.784 113.333 468.299 119.156 485.353 124.182C492.048 126.187 498.491 127.89 504.683 129.497C538.072 138.176 548.315 141.856 570.457 141.169C587.612 140.606 609.101 137.503 637.837 129.016C661.067 122.15 690.054 111.164 725.569 96.1812" stroke="#4A3AFF" stroke-opacity="0.4" stroke-width="0.5" stroke-miterlimit="10"/>
<path d="M-226.657 62.9481C-197.691 72.6224 -170.879 86.1677 -147.31 103.034C-145.068 104.654 -142.792 106.234 -140.616 107.854C-101.436 135.841 -99.7292 150.741 -68.4324 167.852C-51.2778 177.218 -37.8888 184.414 -17.9057 188.355C-4.62952 190.859 9.0474 191.614 22.6128 190.593C33.642 189.838 42.6963 187.119 51.2987 184.07C61.4485 180.302 71.1952 175.841 80.4365 170.736C101.039 160.011 117.072 150.549 133.423 140.909C146.812 132.985 162.377 128.412 180.285 124.965C189.222 123.248 198.527 122.85 207.749 119.389C238.594 121.339 260.016 115.888 303.414 117.275C318.978 117.783 336.535 117.481 352.501 117.769C355.112 117.769 357.656 117.865 360.049 117.934C386.291 118.744 405.471 119.156 431.228 121.916C451.312 124.086 466.676 129.867 483.914 134.743C490.609 136.665 497.102 138.258 503.445 139.769C536.918 147.706 547.478 150.755 569.537 149.286C586.691 148.173 608.03 144.534 636.883 135.951C660.13 129.085 689.452 118.208 725.669 104.146" stroke="#4A3AFF" stroke-opacity="0.4" stroke-width="0.5" stroke-miterlimit="10"/>
<path d="M-227.611 68.0568C-198.955 77.3199 -172.3 90.3027 -148.667 106.508C-146.424 108.074 -144.131 109.584 -141.872 111.109C-102.29 137.97 -100.031 151.84 -69.2697 168.484C-51.7636 177.946 -38.8934 185.334 -18.5756 189.344C-5.23577 191.875 8.51901 192.599 22.1437 191.486C33.3235 190.648 42.2272 187.71 50.7794 184.482C61.34 180.5 70.0261 175.831 79.8168 170.75C101.072 159.764 120.302 153.158 133.908 142.062C149.322 136.665 163.732 126.366 181.289 128.741C190.427 129.977 199.531 128.082 208.435 125.144C239.297 130.087 257.991 126.97 300.836 129.579C316.467 130.527 334.308 130.307 350.141 130.513C352.802 130.513 355.346 130.513 357.756 130.637C384.4 131.255 403.027 130.87 429.22 133.04C449.822 134.729 464.985 140.483 482.391 145.207C489.085 147.047 495.646 148.544 502.123 149.945C535.595 157.154 546.574 159.475 568.549 157.319C585.72 155.63 606.925 151.455 635.862 142.776C659.142 135.828 688.715 125.144 725.702 112.001" stroke="#4A3AFF" stroke-opacity="0.4" stroke-width="0.5" stroke-miterlimit="10"/>
<path d="M-228.582 73.1653C-200.218 82.0366 -173.714 94.4813 -150.022 110.051C-147.779 111.548 -145.486 112.921 -143.21 114.418C-103.043 140.153 -100.416 152.993 -70.1063 169.184C-52.2319 178.728 -39.8973 186.309 -19.2616 190.415C-5.83756 192.958 8.01039 193.64 21.7088 192.434C33.0392 191.514 41.7923 188.314 50.311 184.949C60.6708 180.83 69.2565 175.941 79.248 170.763C101.139 159.475 121.373 153.653 134.478 143.202C150.427 138.396 165.741 128.755 182.327 132.504C191.398 134.55 200.552 133.328 209.105 130.897C239.983 138.835 255.966 138.08 298.242 141.884C313.94 143.257 331.915 143.147 347.781 143.257H355.43C382.509 143.669 400.617 142.529 427.211 144.081C448.299 145.303 463.278 151.043 480.868 155.603C487.562 157.36 494.173 158.747 500.801 160.038C534.273 166.548 545.654 168.154 567.545 165.284C584.716 163.018 605.787 158.308 634.825 149.546C658.121 142.529 688.096 132.024 725.719 119.788" stroke="#4A3AFF" stroke-opacity="0.4" stroke-width="0.5" stroke-miterlimit="10"/>
<path d="M-229.552 78.2601C-201.516 86.7544 -175.188 98.646 -151.444 113.539C-149.185 114.913 -146.892 116.286 -144.616 117.659C-104.014 142.254 -100.817 154.065 -70.9764 169.843C-52.7338 179.456 -40.8511 187.243 -19.9643 191.431C-6.46537 194.007 7.4739 194.653 21.2404 193.34C32.7382 192.338 41.3239 188.959 49.7924 185.375C59.9513 181.036 68.4533 176.023 78.6457 170.763C101.189 159.201 122.411 154.133 134.913 144.342C151.415 140.112 166.712 138.602 183.231 136.253C192.703 137.736 201.44 138.547 209.707 136.638C240.586 147.624 253.824 149.189 295.564 154.147C311.33 156.028 329.539 156.124 345.338 155.973C348.049 155.973 350.643 155.973 353.037 155.973C380.551 155.685 398.057 154.257 425.12 155.218C446.709 155.973 461.487 161.686 479.278 166.094C485.973 167.756 492.667 169.061 499.362 170.214C532.834 176.023 544.549 176.888 566.407 173.304C583.595 170.475 604.515 165.229 633.687 156.372C657 149.299 687.243 138.959 725.619 127.629" stroke="#4A3AFF" stroke-opacity="0.4" stroke-width="0.5" stroke-miterlimit="10"/>
<path d="M-230.506 83.3687C-202.746 91.481 -176.549 102.821 -152.716 117.041C-150.474 118.414 -148.164 119.692 -145.888 120.982C-104.75 144.424 -101.085 155.218 -71.7797 170.516C-53.169 180.239 -41.9055 188.204 -20.617 192.489C-7.00232 195.095 7.06857 195.695 20.9391 194.26C32.6545 193.175 41.1063 189.591 49.3907 185.828C59.4325 181.31 67.8006 176.133 78.1603 170.722C101.323 158.885 123.566 154.573 135.499 145.44C152.536 141.801 168.067 141.321 184.285 139.947C193.875 142.145 202.477 143.71 210.444 142.309C241.322 156.248 251.832 160.258 293.02 166.369C308.853 168.717 327.279 168.882 343.028 168.649C345.773 168.649 348.367 168.649 350.777 168.649C378.693 168.141 395.664 165.902 423.161 166.3C445.22 166.589 459.83 172.288 477.805 176.531C484.5 178.124 491.194 179.278 498.14 180.39C531.612 185.526 543.796 185.636 565.503 181.338C582.691 177.932 603.478 172.164 632.749 163.21C656.08 156.083 686.724 145.907 725.736 135.498" stroke="#4A3AFF" stroke-opacity="0.4" stroke-width="0.5" stroke-miterlimit="10"/>
<path d="M-231.477 88.4634C-204.015 96.2142 -177.973 107.007 -154.072 120.543C-151.812 121.916 -149.503 123.042 -147.227 124.264C-105.537 146.539 -101.403 156.317 -72.6164 171.189C-53.6375 180.98 -42.9095 189.138 -21.2863 193.518C-7.62155 196.141 6.51034 196.704 20.4205 195.18C32.1358 193.999 40.6378 190.209 48.8721 186.254C58.646 181.557 66.9472 176.215 77.558 170.791C101.374 158.665 124.604 155.122 135.984 146.635C153.574 143.573 169.273 144.04 185.239 143.792C194.929 146.69 203.415 149.025 211.063 148.132C241.958 165.078 249.724 171.477 290.376 178.742C306.276 181.571 324.92 181.598 340.585 181.489C343.363 181.489 345.974 181.489 348.384 181.489C376.735 180.761 393.153 178.344 421.086 177.561C443.613 176.929 458.057 183.054 476.215 187.174C482.976 188.67 489.832 189.862 496.751 190.744C530.223 195.221 542.809 194.562 564.432 189.55C581.637 185.567 602.273 179.278 631.645 170.228C655.076 163.046 685.971 153.021 725.686 143.531" stroke="#4A3AFF" stroke-opacity="0.4" stroke-width="0.5" stroke-miterlimit="10"/>
<path d="M-232.448 90.6195C-205.281 98.04 -179.393 108.305 -155.428 121.161C-153.168 122.397 -150.842 123.523 -148.549 124.663C-106.323 145.77 -101.687 154.531 -73.4534 168.964C-54.1063 178.852 -43.9139 187.201 -21.9727 191.665C-8.22522 194.313 6.00293 194.84 19.9851 193.216C31.9347 191.939 40.2527 187.957 48.4367 183.809C57.9596 178.838 66.1269 173.345 76.9887 167.852C101.44 155.493 125.691 152.65 136.503 144.836C154.628 142.351 170.511 143.806 186.226 144.603C196.017 148.214 204.368 151.304 211.716 150.933C242.627 170.873 247.665 179.772 287.748 188.012C303.731 191.321 322.593 191.39 338.225 191.184L346.057 191.06C374.844 190.648 390.693 186.391 419.061 185.567C442.107 184.881 456.333 190.58 474.675 194.494C481.511 195.912 488.44 197.008 495.428 197.776C528.817 201.593 541.888 200.138 563.411 194.425C580.633 189.866 601.135 183.054 630.607 173.908C654.038 166.671 685.284 156.811 725.702 148.242" stroke="#4A3AFF" stroke-opacity="0.4" stroke-width="0.5" stroke-miterlimit="10"/>
<path d="M-233.452 91.4847C-206.589 98.5281 -180.863 108.211 -156.833 120.323C-154.557 121.504 -152.231 122.548 -149.938 123.605C-107.093 143.573 -102.056 151.373 -74.2903 165.325C-54.5583 175.282 -44.9182 183.837 -22.6422 188.396C-8.80654 191.049 5.51831 191.515 19.5666 189.77C31.6501 188.396 39.8676 184.276 47.9345 179.882C57.2901 174.842 65.4072 169.157 76.3861 163.568C101.491 150.892 126.729 148.846 136.988 141.691C155.666 139.783 172.318 140.085 187.197 144.081C197.858 146.951 205.322 152.321 212.301 152.321C243.213 175.254 245.506 186.652 285.054 196.004C301.087 199.822 320.2 199.918 335.748 199.63C338.593 199.63 341.237 199.52 343.631 199.465C372.852 198.833 388.132 193.793 416.952 192.365C440.466 191.198 454.525 196.897 473.052 200.605C479.953 201.964 486.951 202.964 494.006 203.598C527.378 206.784 540.867 204.518 562.306 198.105C579.528 192.956 599.896 185.622 629.469 176.394C652.9 169.102 684.498 159.407 725.619 151.675" stroke="#4A3AFF" stroke-opacity="0.4" stroke-width="0.5" stroke-miterlimit="10"/>
<path d="M-234.373 92.3224C-207.803 99.032 -182.233 108.162 -158.139 119.541C-155.846 120.653 -153.503 121.614 -151.227 122.603C-107.847 141.334 -102.357 148.091 -75.1273 161.686C-55.0438 171.711 -45.9393 180.472 -23.2449 185.114C-9.33728 187.846 5.08838 188.312 19.2149 186.487C31.4659 185.018 39.5662 180.651 47.5327 176.133C56.7041 170.928 64.7208 165.051 75.9843 159.379C101.708 146.429 127.95 145.152 137.674 138.643C156.871 137.269 173.858 138.794 188.318 143.655C199.18 147.308 206.427 153.268 213.155 153.941C244.066 179.882 243.615 193.766 282.643 204.175C298.744 208.501 318.041 208.611 333.572 208.295L341.505 208.075C371.145 207.237 385.873 201.401 415.144 199.396C439.161 197.734 453.018 203.516 471.746 207.018C478.713 208.329 485.781 209.246 492.901 209.764C526.24 212.332 540.164 209.242 561.52 202.129C578.741 196.402 598.959 188.547 628.649 179.223C660.077 168.963 692.556 161.022 725.702 155.493" stroke="#4A3AFF" stroke-opacity="0.4" stroke-width="0.5" stroke-miterlimit="10"/>
<path d="M-235.343 92.597C-209.061 99.0056 -183.646 107.601 -159.495 118.25C-157.185 119.293 -154.842 120.186 -152.566 121.092C-108.6 138.629 -102.675 144.438 -75.9639 157.566C-55.4788 167.66 -46.9433 176.627 -23.9979 181.365C-10.0021 184.109 4.52391 184.511 18.713 182.546C31.0978 180.981 39.0978 176.421 46.9805 171.711C55.9512 166.342 63.8674 160.285 75.2983 154.531C101.675 141.307 128.854 140.799 138.076 134.935C157.825 134.193 175.08 136.857 189.188 142.557C200.234 147.02 207.28 153.666 213.69 154.834C244.619 183.768 241.406 200.151 279.899 211.618C296.066 216.452 315.597 216.562 331.062 216.136C333.957 216.054 336.652 215.944 339.045 215.862C369.17 214.804 383.279 208.199 412.969 205.603C437.454 203.461 451.144 209.188 470.056 212.58C477.093 213.813 484.231 214.621 491.412 214.996C524.733 216.96 539.076 213.019 560.348 205.219C577.57 198.902 597.653 190.539 627.444 181.104C659.149 170.789 692.081 163.218 725.702 158.514" stroke="#4A3AFF" stroke-opacity="0.4" stroke-width="0.5" stroke-miterlimit="10"/>
<path d="M-236.314 91.8142C-210.315 97.9162 -185.054 105.965 -160.85 115.86C-158.541 116.835 -156.181 117.659 -153.905 118.497C-109.336 134.798 -102.91 139.576 -76.801 152.348C-55.9309 162.51 -47.9477 171.697 -24.6676 176.504C-10.5944 179.279 4.02504 179.644 18.2777 177.575C30.8131 175.899 38.7126 171.162 46.495 166.259C55.2815 160.766 63.0973 154.49 74.729 148.654C101.741 135.155 129.959 135.388 138.595 130.197C158.879 130.032 176.368 133.905 190.176 140.442C201.355 145.742 208.251 153.021 214.36 154.696C245.288 186.638 239.297 205.507 277.288 218.018C293.489 223.373 313.271 223.511 328.685 222.989C331.597 222.893 334.308 222.769 336.702 222.673C367.212 221.41 380.768 213.994 410.893 210.822C435.864 208.185 449.387 213.925 468.449 217.152C475.564 218.313 482.776 219.024 490.022 219.281C523.327 220.654 538.072 215.848 559.26 207.361C576.482 200.495 596.448 191.568 626.339 182.052C658.275 171.632 691.616 164.389 725.652 160.478" stroke="#4A3AFF" stroke-opacity="0.4" stroke-width="0.5" stroke-miterlimit="10"/>
<path d="M-237.268 91.0315C-211.553 96.8517 -186.452 104.36 -162.206 113.484C-159.879 114.391 -157.519 115.119 -155.243 115.888C-110.055 130.994 -103.361 134.77 -77.6373 147.13C-56.399 157.347 -48.9514 166.754 -25.3533 171.656C-11.1977 174.472 3.5243 174.795 17.843 172.604C30.5291 170.805 38.3282 165.916 46.0269 160.807C54.6293 155.108 62.328 148.695 74.1605 142.776C101.826 129.044 131.064 129.977 139.114 125.446C157.589 125.626 175.627 130.086 191.147 138.313C202.444 144.465 209.222 152.362 215.013 154.559C245.958 189.495 237.172 210.863 274.677 224.417C290.912 230.308 310.945 230.418 326.292 229.841C329.254 229.732 331.966 229.594 334.376 229.471C365.288 227.96 378.342 219.858 408.902 216.04C434.325 212.923 447.714 218.663 466.96 221.725C473.655 222.783 480.717 222.948 488.717 223.552C521.889 226.065 537.169 218.677 558.273 209.49C575.495 201.992 595.327 192.598 625.319 182.986C657.517 172.462 691.291 165.534 725.736 162.387" stroke="#4A3AFF" stroke-opacity="0.4" stroke-width="0.5" stroke-miterlimit="10"/>
<path d="M-238.239 90.2487C-212.797 95.7943 -187.846 102.759 -163.562 111.095C-161.218 111.919 -158.859 112.592 -156.566 113.278C-110.809 127.011 -103.596 129.964 -78.4744 141.911C-56.8344 152.197 -50.0228 161.81 -26.023 166.808C-11.7613 169.661 3.08444 169.942 17.4913 167.632C30.3112 165.71 38.0099 160.656 45.6249 155.355C53.993 149.491 61.6247 142.9 73.6581 136.899C101.976 122.836 132.235 124.539 139.699 120.708C158.668 121.524 176.916 126.939 192.134 136.267C203.498 143.257 210.192 151.785 215.665 154.49C246.627 192.42 235.029 216.287 272.05 230.899C288.334 237.312 308.602 237.408 323.932 236.763C326.911 236.639 329.656 236.474 332.049 236.351C363.396 234.607 375.881 225.667 406.894 221.327C432.818 217.715 445.956 223.497 465.47 226.367C472.757 227.199 480.092 227.712 487.445 227.905C520.667 229.677 536.281 221.574 557.319 211.7C574.524 203.612 594.239 193.711 624.264 184.002C656.702 173.397 690.884 166.816 725.686 164.474" stroke="#4A3AFF" stroke-opacity="0.4" stroke-width="0.5" stroke-miterlimit="10"/>
<path d="M-239.209 89.4659C-214.028 94.751 -189.221 101.169 -164.9 108.692C-162.557 109.447 -160.197 110.065 -157.904 110.655C-111.545 123.18 -103.897 125.13 -79.244 136.748C-57.2861 147.02 -51.0267 156.866 -26.7089 161.947C-12.3874 164.84 2.53888 165.084 16.9894 162.661C29.96 160.615 37.575 155.397 45.0728 149.903C53.3071 143.889 60.7882 137.105 73.0391 131.021C101.976 116.684 133.29 119.183 140.151 115.915C159.668 117.336 178.171 123.678 193.122 134.07C204.519 141.925 211.147 151.057 216.318 154.27C247.28 195.208 232.87 221.657 269.439 237.23C285.757 244.178 306.259 244.261 321.522 243.547C324.535 243.409 327.296 243.231 329.69 243.08C361.488 241.102 373.388 231.393 404.852 226.477C431.262 222.357 444.216 228.18 463.881 230.871C471.235 231.658 478.64 232.075 486.056 232.121C519.328 233.151 535.278 224.335 556.231 213.76C573.453 205.095 593.051 194.672 623.176 184.922C655.875 174.223 690.483 167.974 725.636 166.424" stroke="#4A3AFF" stroke-opacity="0.4" stroke-width="0.5" stroke-miterlimit="10"/>
<path d="M-240.147 88.6832C-211.477 94.6569 -185.754 100.741 -166.239 106.316C-163.863 107.003 -161.503 107.524 -159.227 108.074C-112.248 119.28 -104.181 120.323 -80.1313 131.419C-57.7215 141.801 -51.9475 151.867 -27.3619 157.045C-12.9618 159.973 2.06144 160.175 16.5707 157.635C29.6919 155.452 37.2232 150.096 44.6207 144.397C52.6541 138.217 60.0348 131.255 72.4865 125.089C102.076 110.477 134.411 113.732 140.687 111.177C160.739 113.218 179.467 120.476 194.126 131.886C205.54 140.607 212.853 149.807 217.004 154.078C255.497 193.807 230.711 227.013 266.845 243.574C283.179 251.072 303.966 251.127 319.162 250.344C322.208 250.193 324.97 249.987 327.38 249.823C359.563 247.612 370.894 237.134 402.827 231.654C429.722 227.026 442.492 232.876 462.357 235.376C469.762 236.277 477.254 236.603 484.734 236.351C518.022 235.417 534.34 227.095 555.227 215.848C572.432 206.578 591.879 195.647 622.172 185.76C655.151 174.971 690.195 169.053 725.686 168.278" stroke="#4A3AFF" stroke-opacity="0.4" stroke-width="0.5" stroke-miterlimit="10"/>
<path d="M-241.134 87.9004C-212.146 93.6956 -186.59 99.1887 -167.611 103.926C-165.218 104.531 -162.858 104.984 -160.582 105.464C-112.951 115.352 -104.499 115.503 -80.9845 126.242C-58.173 136.679 -52.968 146.992 -28.0644 152.252C-13.5746 155.218 1.55783 155.378 16.136 152.719C29.3911 150.384 36.822 144.891 44.119 138.986C51.985 132.641 59.1816 125.5 71.9012 119.252C102.127 104.352 135.382 108.376 141.206 106.467C164.202 109.214 182.277 119.046 195.097 129.813C206.494 139.425 213.707 149.354 217.64 153.982C254.879 197.748 228.519 232.464 264.201 250.028C280.552 258.062 301.623 258.09 316.752 257.238C319.832 257.06 322.627 256.854 325.02 256.675C357.639 254.217 368.417 242.942 400.785 236.914C428.149 231.791 440.735 237.683 460.785 239.99C468.265 240.822 475.827 241.047 483.362 240.663C516.667 239.193 533.37 229.965 554.19 218.018C571.378 208.158 590.708 196.718 621.135 186.735C644.716 179.003 678.992 170.612 725.703 170.255" stroke="#4A3AFF" stroke-opacity="0.4" stroke-width="0.5" stroke-miterlimit="10"/>
<path d="M-242.105 87.1177C-212.817 92.7755 -187.428 97.6094 -168.968 101.551C-166.558 102.059 -164.198 102.443 -161.922 102.924C-113.738 111.397 -104.801 110.669 -81.822 121.024C-58.8431 131.378 -53.9728 142.048 -28.7346 147.39C-14.1684 150.408 1.06477 150.53 15.7001 147.747C29.0891 145.248 36.4531 139.645 43.6497 133.548C51.3316 127.052 58.478 119.719 71.3314 113.388C102.21 98.2823 136.469 102.993 141.724 101.743C165.272 105.066 183.364 116.052 196.083 127.698C207.447 138.107 214.493 148.832 218.293 153.79C254.091 201.511 226.309 237.834 261.589 256.373C277.94 264.97 299.279 264.956 314.375 264.036C317.471 263.844 320.283 263.61 322.743 263.418C355.781 260.671 366.007 248.696 398.81 242.077C426.659 236.461 439.077 242.393 459.311 244.508C466.868 245.275 474.501 245.404 482.089 244.892C515.411 242.874 532.465 232.739 553.235 220.105C570.406 209.654 589.62 197.707 620.18 187.627C643.795 179.841 678.389 171.601 725.802 172.192" stroke="#4A3AFF" stroke-opacity="0.4" stroke-width="0.5" stroke-miterlimit="10"/>
<path d="M-243.059 86.335C-213.486 91.828 -188.264 96.0302 -170.323 99.1888C-167.896 99.6145 -165.536 99.9441 -163.26 100.274C-114.491 107.428 -105.102 105.835 -82.6584 115.819C-59.0436 126.311 -54.9934 137.105 -29.4204 142.543C-14.7717 145.613 0.570254 145.693 15.2654 142.776C28.7883 140.098 36.0853 134.386 43.1814 128.11C50.6793 121.436 57.7085 113.938 70.7795 107.511C102.277 92.0615 137.808 95.5908 142.243 97.0053C165.138 104.27 184.435 113.031 197.071 125.583C208.385 136.83 215.364 148.297 218.962 153.721C253.188 205.287 224.084 243.341 258.979 262.855C275.33 272.001 296.953 271.932 311.982 270.957C315.129 270.751 317.94 270.504 320.35 270.298C353.823 267.359 363.463 254.56 396.718 247.364C425.036 241.24 437.27 247.227 457.705 249.15C465.339 249.849 473.042 249.882 480.684 249.246C514.022 246.692 531.445 235.637 552.131 222.316C569.302 211.33 588.398 198.806 619.076 188.63C642.707 180.788 677.653 172.727 725.753 174.224" stroke="#4A3AFF" stroke-opacity="0.4" stroke-width="0.5" stroke-miterlimit="10"/>
<path d="M-244.029 85.5521C-214.155 90.9491 -189.118 94.4097 -171.679 96.7717C-169.235 97.1013 -166.875 97.376 -164.583 97.6369C-115.244 103.432 -105.386 101.001 -83.4954 110.587C-59.3952 121.161 -56.0479 132.147 -30.09 137.64C-15.3564 140.749 0.0908542 140.787 14.8468 137.75C28.4701 134.88 35.7169 129.085 42.6959 122.644C50.0264 115.778 56.9385 108.129 70.2103 101.633C102.361 85.9092 138.645 91.8554 142.762 92.2537C167.866 94.7118 185.49 109.996 197.992 123.454C206.448 132.843 213.673 142.937 219.548 153.57C252.184 208.885 221.791 248.765 256.368 269.254C272.702 278.949 294.627 278.867 309.606 277.81C312.769 277.59 315.614 277.315 317.974 277.096C351.848 273.868 360.936 260.314 394.659 252.583C423.429 245.936 435.512 252.02 456.131 253.723C463.844 254.355 471.617 254.286 479.311 253.517C512.683 250.427 530.424 238.411 551.076 224.444C568.214 212.785 587.193 199.836 618.021 189.577C641.686 181.681 676.933 173.771 725.752 176.188" stroke="#4A3AFF" stroke-opacity="0.4" stroke-width="0.5" stroke-miterlimit="10"/>
<path d="M-245 84.7694C-214.875 89.9329 -189.988 92.7618 -173.034 94.3823C-116.934 99.738 -106.658 95.7556 -84.332 105.368C-59.8971 115.901 -57.0017 127.217 -30.776 132.834C-15.9598 135.995 -0.404378 135.995 14.4119 132.834C42.4953 126.517 43.2651 108.637 69.6415 95.7556C102.428 79.7432 139.699 86.7881 143.281 87.5159C191.013 97.1288 213.272 140.126 220.268 153.433C251.28 212.374 219.598 254.19 253.74 275.654C273.556 288.109 302.074 285.267 315.664 283.893C349.957 280.46 358.492 266.123 392.651 257.801C431.144 248.408 439.63 261.921 478.006 257.801C539.227 251.168 549.051 213.307 616.917 190.511C640.599 182.56 676.18 174.815 725.702 178.152" stroke="#4A3AFF" stroke-opacity="0.4" stroke-width="0.5" stroke-miterlimit="10"/>
<path d="M-244.096 86.486C-214.507 91.6495 -190.038 94.7256 -173.084 96.4284C-118.474 102.086 -107.813 98.351 -85.6207 107.978C-61.6376 118.414 -58.441 129.401 -32.868 135.058C-18.3616 138.203 -3.13374 138.364 11.4663 135.525C39.1815 130.156 40.2527 112.715 66.2273 100.329C98.3107 84.9204 134.461 91.3336 138.645 91.8966C177.791 97.1013 199.381 128.755 210.008 145.646C212.184 149.093 213.757 152.06 215.029 154.202C246.828 209.998 216.803 250.18 250.443 270.449C270.527 282.52 299.28 279.485 313.438 278.181C326.413 277.012 338.99 273.794 350.476 268.705C362.191 263.885 373.153 258.447 391.178 254.835C396.701 253.736 401.622 253.132 406.04 252.61C432.818 249.438 443.144 257.252 475.412 252.542C487.895 250.743 499.915 247.219 510.96 242.118C540.934 228.386 559.679 203.667 606.088 185.622C608.811 184.56 611.656 183.526 614.624 182.519C638.523 174.361 674.64 166.245 724.916 169.363" stroke="#4A3AFF" stroke-opacity="0.4" stroke-width="0.5" stroke-miterlimit="10"/>
<path d="M-243.192 88.2025C-214.205 93.366 -190.088 96.5657 -173.118 98.4608C-120.03 104.407 -109.035 100.946 -86.9092 110.601C-63.3613 120.818 -59.8802 131.708 -35.0269 137.269C-20.8183 140.406 -5.90627 140.735 8.48739 138.231C35.7842 133.74 37.2403 116.863 62.7965 104.888C94.1937 90.18 129.39 94.9178 133.976 96.2773C170.193 106.92 193.691 130.952 204.636 146.869C206.862 150.109 208.402 152.952 209.657 154.957C242.192 207.677 213.942 246.128 247.046 265.244C267.297 276.917 296.368 273.704 311.096 272.454C324.172 271.352 336.918 268.402 348.769 263.734C360.668 259.38 371.798 254.67 389.605 251.882C395.145 251.003 400.099 250.674 404.517 250.152C431.212 246.98 441.086 253.146 472.701 247.268C485.04 244.935 496.855 241.024 507.713 235.678C536.566 221.945 556.248 196.361 603.595 177.712C606.356 176.641 609.235 175.57 612.231 174.526C636.331 166.163 672.983 157.676 724.029 160.56" stroke="#4A3AFF" stroke-opacity="0.4" stroke-width="0.5" stroke-miterlimit="10"/>
<path d="M-242.289 89.9192C-213.904 95.0689 -190.155 98.4609 -173.201 100.562C-121.62 106.755 -110.256 103.611 -88.2314 113.265C-65.1354 123.317 -61.353 134.001 -37.1022 139.535C-23.1991 142.644 -8.6155 143.114 5.5418 140.909C32.3198 137.269 34.2445 120.955 59.3823 109.447C90.0933 95.3848 124.168 98.9828 129.34 100.631C158.098 110.088 182.546 126.669 199.281 148.063C201.557 151.098 203.08 153.817 204.301 155.699C237.54 205.233 211.096 242.105 243.615 260.067C264.1 271.355 293.439 267.936 308.736 266.769C321.918 265.713 334.829 263.023 347.028 258.79C359.145 254.904 370.459 250.935 387.999 248.944C393.588 248.312 398.559 248.243 402.977 247.721C429.638 244.535 438.977 249.095 469.922 242.022C482.095 239.141 493.704 234.85 504.399 229.278C532.131 215.45 552.834 189.138 601.018 169.83C603.796 168.731 606.708 167.637 609.754 166.548C634.055 157.992 671.26 149.135 723.058 151.799" stroke="#4A3AFF" stroke-opacity="0.4" stroke-width="0.5" stroke-miterlimit="10"/>
<path d="M-241.385 91.6221C-213.603 96.7856 -190.205 100.356 -173.218 102.608C-123.143 109.049 -111.394 106.22 -89.5369 115.888C-66.9095 125.789 -62.7589 136.24 -39.2444 141.76C-25.6329 144.885 -11.3554 145.541 2.59619 143.683C28.9893 140.936 31.2487 125.144 55.9848 114.089C86.0097 100.562 118.562 105.945 124.704 105.025C160.101 110.889 182.36 135.237 193.942 149.299C196.268 152.115 197.758 154.696 199.063 156.468C233.038 202.857 208.402 238.054 240.318 254.835C261.071 265.739 290.627 262.127 306.51 261.015C319.809 260.011 332.891 257.582 345.421 253.791C357.773 250.372 369.22 247.158 386.542 245.95C392.166 245.552 397.153 245.758 401.605 245.236C428.232 242.05 437.036 244.947 467.412 236.735C480.282 233.247 490.843 228.249 501.353 222.81C527.997 208.954 549.62 181.763 598.725 161.892C601.514 160.766 604.46 159.645 607.561 158.528C632.08 149.753 669.82 140.524 722.372 142.969" stroke="#4A3AFF" stroke-opacity="0.4" stroke-width="0.5" stroke-miterlimit="10"/>
<path d="M-240.498 93.3385C-213.368 98.4883 -190.272 102.237 -173.201 104.572C-124.666 111.246 -112.616 108.802 -90.7587 118.414C-68.5999 128.192 -64.1983 138.395 -41.2696 143.889C-27.9749 147.012 -14.0324 147.826 -0.332756 146.278C25.5582 144.246 28.2695 129.153 52.5873 118.565C81.9092 105.808 113.273 110.71 120.101 109.378C154.444 114.707 176.687 137.365 188.619 150.494C190.996 153.103 192.469 155.561 193.808 157.209C228.502 200.426 205.724 233.961 237.004 249.603C258.025 260.122 287.815 256.304 304.25 255.274C320.986 254.231 332.786 251.388 343.798 248.806C356.384 245.854 368.099 241.569 385.053 242.956C390.065 243.399 395.124 243.33 400.115 242.75C426.726 239.564 434.96 240.869 464.751 231.434C477.219 227.493 487.596 222.069 498.223 216.328C523.78 202.486 546.323 174.457 596.331 153.941C599.154 152.787 602.133 151.634 605.268 150.48C629.988 141.513 668.264 131.914 721.585 134.125" stroke="#4A3AFF" stroke-opacity="0.4" stroke-width="0.5" stroke-miterlimit="10"/>
<path d="M-239.595 95.0688C-213.001 100.219 -190.323 104.146 -173.319 106.632C-126.24 113.498 -113.805 111.411 -92.0479 121.051C-70.2907 130.691 -65.6213 140.634 -43.3788 146.141C-23.9983 150.933 -7.84778 149.903 -3.21184 149.011C21.5076 144.204 25.3235 133.287 49.2396 123.166C77.8585 111.054 108.067 115.517 115.532 113.786C148.803 118.593 171.013 139.508 183.347 151.73C185.757 154.133 187.213 156.468 188.569 158.006C223.983 198.05 203.113 229.883 233.757 244.439C255.079 254.574 285.053 250.55 302.074 249.589C319.095 248.628 331.028 246.046 342.241 243.862C355.044 241.377 367.161 237.655 383.63 240.031C388.6 240.785 393.685 240.883 398.692 240.319C425.27 237.133 432.952 236.845 462.14 226.202C474.223 221.808 484.365 215.944 495.01 209.956C519.495 196.224 542.976 167.248 593.871 146.086C596.716 144.905 599.728 143.724 602.908 142.543C627.845 133.369 666.656 123.399 720.731 125.377" stroke="#4A3AFF" stroke-opacity="0.4" stroke-width="0.5" stroke-miterlimit="10"/>
<path d="M-238.691 96.7444C-212.699 101.935 -190.39 106.055 -173.369 108.637C-127.796 115.668 -114.993 113.979 -93.3365 123.619C-72.0815 133.095 -67.0606 142.845 -45.4708 148.338C-26.6258 153.131 -10.9272 152.54 -6.2243 151.689C18.0098 147.267 22.2273 137.379 45.7585 127.725C73.6745 116.245 102.662 120.296 110.829 118.112C143.046 122.383 165.172 141.458 177.925 152.897C179.807 154.758 181.572 156.697 183.213 158.706C219.313 195.579 200.401 225.694 230.309 239.18C251.949 248.916 282.108 244.673 299.698 243.808C316.618 242.956 329.053 240.608 340.484 238.836C353.521 236.818 366.04 233.755 382.006 237.01C386.949 238.084 392.1 238.355 397.169 237.807C423.73 234.607 430.843 232.753 459.445 220.874C471.16 216.026 481.035 209.751 491.763 203.461C515.193 189.728 539.595 159.928 591.377 138.121C594.244 136.912 597.29 135.704 600.515 134.496C625.619 125.116 665 114.775 719.844 116.533" stroke="#4A3AFF" stroke-opacity="0.4" stroke-width="0.5" stroke-miterlimit="10"/>
<path d="M-237.787 98.4333C-212.398 103.597 -190.457 107.854 -173.403 110.655C-129.353 117.879 -116.181 116.574 -94.5414 126.215C-73.7382 135.539 -68.4161 145.042 -47.4958 150.508C-29.0859 155.3 -13.9229 155.149 -9.0861 154.339C14.6794 150.343 19.3655 141.444 42.4281 132.243C69.6412 121.408 97.5071 125.034 106.277 122.479C137.423 126.215 159.431 143.586 172.67 154.064C174.569 155.772 176.352 157.564 178.008 159.434C214.828 193.12 197.874 221.492 227.046 233.934C249.004 243.286 279.33 238.85 297.488 238.054C314.559 237.285 327.279 235.183 338.911 233.824C352.736 232.264 366.762 232.324 380.567 234.002C386.458 234.62 391.412 235.829 395.781 235.376C422.307 232.162 428.851 228.77 456.868 215.642C468.148 210.355 477.838 203.626 488.667 197.061C511.077 183.439 536.348 152.691 589.084 130.238C591.963 129.016 595.059 127.766 598.339 126.517C623.678 116.904 663.611 106.22 719.158 107.758" stroke="#4A3AFF" stroke-opacity="0.4" stroke-width="0.5" stroke-miterlimit="10"/>
<path d="M-236.799 100.795C-212.013 105.945 -190.423 110.408 -173.369 113.333C-130.892 120.708 -117.353 119.788 -95.9135 129.469C-75.5454 138.643 -69.9388 147.912 -49.6712 153.364C-31.8638 158.157 -17.1024 158.432 -12.1318 157.676C11.1985 154.147 16.2361 146.182 38.9472 137.448C65.4407 127.258 92.1518 130.458 101.558 127.506C131.683 130.705 153.44 146.264 167.231 155.96C169.148 157.511 170.953 159.152 172.636 160.876C210.042 191.376 195.214 217.99 223.615 229.402C245.924 238.37 276.384 233.742 295.129 233.014C312.317 232.341 325.338 230.487 337.17 229.539C350.66 228.455 363.229 229.375 379.011 231.723C384.986 232.616 389.923 234.057 394.275 233.536C420.768 230.322 426.76 225.392 454.19 210.987C465.069 205.26 474.525 198.105 485.437 191.239C506.843 177.753 532.985 146.058 586.541 122.946C589.453 121.683 592.566 120.419 595.896 119.129C621.436 109.351 661.854 98.2687 718.221 99.5733" stroke="#4A3AFF" stroke-opacity="0.4" stroke-width="0.5" stroke-miterlimit="10"/>
<path d="M-235.979 106.742C-211.795 111.891 -190.574 116.492 -173.503 119.609C-132.449 127.121 -118.541 126.654 -97.2024 136.267C-77.2862 145.289 -71.3784 154.339 -51.7635 159.764C-34.4917 164.556 -20.1989 165.257 -15.0776 164.556C7.81756 161.521 13.2234 154.463 35.5328 146.196C61.3066 136.583 86.8629 139.439 96.9213 136.061C125.942 138.807 145.875 154.682 161.891 161.37C164.017 163.238 165.858 164.748 167.331 165.82C205.372 193.12 192.669 218.004 220.268 228.386C242.945 236.941 273.539 232.121 292.853 231.476C310.158 230.899 323.48 229.292 335.513 228.729C349.237 228.111 362.04 229.938 377.438 232.918C383.496 234.085 388.417 235.76 392.751 235.225C419.228 232.011 424.651 225.612 451.479 209.874C461.972 203.736 471.194 196.141 482.19 188.959C502.608 175.625 529.604 142.955 584.047 119.197C586.981 117.925 590.133 116.625 593.503 115.297C619.26 105.382 660.264 93.929 717.334 95.0689" stroke="#4A3AFF" stroke-opacity="0.4" stroke-width="0.5" stroke-miterlimit="10"/>
<path d="M-235.125 112.097C-211.494 117.247 -190.64 121.999 -173.553 125.281C-133.988 132.916 -119.645 132.916 -98.4906 142.584C-79.0263 151.441 -72.8172 160.272 -53.8717 165.682C-37.1355 170.461 -23.3114 171.532 -18.0227 170.942C4.45408 168.429 10.2113 162.263 32.186 154.463C57.2904 145.536 81.6416 147.912 92.3528 144.136C120.302 146.278 140.034 160.711 156.603 166.273C158.34 167.694 160.178 169.028 162.11 170.269C200.737 194.397 190.21 217.413 216.988 226.875C240.05 235.019 270.745 230.006 290.627 229.457C308.066 228.962 321.69 227.603 333.907 227.479C347.865 227.328 360.919 230.089 375.982 233.673C382.108 235.128 387.028 237.024 391.363 236.419C417.789 233.192 422.676 225.268 448.902 208.254C458.944 201.703 467.998 193.683 479.027 186.185C498.458 173.029 526.29 139.357 581.62 114.94C584.566 113.567 587.763 112.303 591.177 110.958C617.135 100.754 658.624 88.9853 716.514 89.7955" stroke="#4A3AFF" stroke-opacity="0.4" stroke-width="0.5" stroke-miterlimit="10"/>
<path d="M-234.188 117.453C-211.176 122.603 -190.674 127.506 -173.603 130.98C-135.528 138.698 -120.917 139.151 -99.7793 148.832C-80.767 157.539 -74.2566 166.149 -55.9638 171.533C-39.7297 176.312 -26.4076 176.71 -20.9683 177.273C1.03982 179.58 7.19875 169.995 28.7048 162.675C53.0561 154.435 76.286 156.344 87.6499 152.156C114.545 153.762 134.043 166.699 151.248 171.134C153.001 172.416 154.857 173.6 156.804 174.677C196 195.62 187.682 216.782 213.707 225.31C237.138 233.028 267.95 227.85 288.418 227.37C305.991 226.971 319.899 225.873 332.317 226.147C346.509 226.463 359.781 230.185 374.526 234.387C380.735 236.131 385.622 238.232 389.957 237.71C416.367 234.469 420.718 225.063 446.308 206.729C456.031 199.767 464.801 191.308 475.948 183.494C494.357 170.53 523.077 135.841 579.294 110.711C582.273 109.392 585.492 108.019 588.951 106.591C615.11 96.1813 657.151 83.9867 715.795 84.6184" stroke="#4A3AFF" stroke-opacity="0.4" stroke-width="0.5" stroke-miterlimit="10"/>
<path d="M-233.284 122.823C-210.875 128.027 -190.758 133.012 -173.653 136.665C-137.068 144.465 -122.106 145.399 -101.068 155.095C-82.5076 163.636 -75.6959 171.972 -58.0726 177.465C-42.3573 182.244 -29.4871 182.958 -23.9307 183.686C-2.47483 186.432 4.16946 177.808 25.2906 170.956C48.9222 163.279 71.014 164.845 83.0139 160.244C108.838 161.329 128.202 172.741 145.842 176.064C147.612 177.21 149.486 178.243 151.448 179.154C191.18 196.924 185.172 216.232 210.226 223.827C234.109 231.091 264.97 225.749 285.991 225.365C303.698 225.049 317.907 224.211 330.526 224.898C344.953 225.68 358.442 230.391 372.869 235.101C379.145 237.161 384.032 239.468 388.35 238.933C414.726 235.692 418.576 224.815 443.58 205.15C452.918 197.776 461.454 188.891 472.667 180.747C490.207 167.989 519.663 132.271 576.767 106.591C579.768 105.227 583.02 103.853 586.524 102.471C612.9 91.8692 655.461 79.3038 714.874 79.7158" stroke="#4A3AFF" stroke-opacity="0.4" stroke-width="0.5" stroke-miterlimit="10"/>
<path d="M-232.381 128.178C-210.623 133.314 -190.825 138.505 -173.703 142.35C-138.557 150.206 -123.294 151.661 -102.357 161.343C-84.2313 169.733 -77.1352 177.918 -60.1646 183.315C-44.9848 188.094 -32.5665 189.124 -26.8762 190.017C-5.98938 193.271 1.15699 185.526 21.8765 179.154C44.7884 172.109 65.7254 173.263 78.3781 168.25C103.148 168.8 122.227 178.715 140.503 180.912C142.295 181.916 144.187 182.793 146.16 183.535C186.327 198.188 182.712 215.491 206.879 222.247C231.046 229.004 262.109 223.62 283.715 223.277C301.539 223.044 316.05 222.453 328.903 223.552C343.547 224.801 357.254 230.418 371.38 235.774C377.723 238.15 382.61 240.635 386.911 240.113C413.254 236.859 416.618 224.541 440.902 203.516C449.889 195.743 458.19 186.432 469.471 177.946C486.073 165.435 516.332 128.659 574.307 102.265C577.319 100.891 580.616 99.5182 584.164 98.0214C610.708 87.1588 653.82 74.2226 713.987 74.4698" stroke="#4A3AFF" stroke-opacity="0.4" stroke-width="0.5" stroke-miterlimit="10"/>
<path d="M-231.477 133.52C-210.272 138.656 -190.875 143.985 -173.737 148.008C-140.13 155.918 -124.482 157.882 -103.645 167.577C-85.9719 175.817 -78.541 183.768 -62.2733 189.097C-47.5956 193.876 -35.6292 195.221 -29.8217 196.279C-9.48719 199.973 -1.87218 193.189 18.4791 187.284C40.6546 180.857 60.4369 181.626 73.7087 176.202C97.4073 176.202 116.269 184.62 135.114 185.691C136.941 186.554 138.856 187.284 140.838 187.874C181.607 199.437 180.268 214.708 203.532 220.641C228.285 226.944 259.247 221.355 281.439 221.162C299.38 220.998 314.192 220.668 327.213 222.179C342.091 223.895 355.982 230.569 369.823 236.406C376.233 239.152 381.103 241.775 385.405 241.24C411.731 237.999 414.609 224.225 438.224 201.84C446.843 193.67 454.961 183.988 466.241 175.103C481.939 162.84 512.968 125.006 571.83 97.9527C574.876 96.552 578.195 95.1055 581.788 93.6132C608.566 82.627 652.214 69.3063 713.151 69.2651" stroke="#4A3AFF" stroke-opacity="0.4" stroke-width="0.5" stroke-miterlimit="10"/>
<path d="M-230.573 138.904C-209.971 144.04 -190.942 149.492 -173.787 153.721C-141.653 161.659 -125.654 164.158 -104.934 173.881C-87.7124 181.942 -80.0138 189.687 -64.3654 194.988C-54.1213 198.284 -43.5493 200.848 -32.7673 202.651C-12.9851 206.771 -4.90146 200.948 15.0649 195.524C36.504 189.715 55.2319 190.031 69.1062 184.249C91.7336 183.741 110.395 190.635 129.809 190.594C131.665 191.311 133.598 191.885 135.583 192.31C176.72 200.77 177.858 213.967 200.185 219.089C225.406 224.87 256.402 219.528 279.146 219.089C297.221 218.746 312.317 218.952 325.556 220.86C340.618 223.044 354.744 230.734 368.3 237.092C374.76 240.114 379.647 242.97 383.932 242.434C410.225 239.18 412.651 223.978 435.58 200.22C443.831 191.665 451.697 181.53 463.061 172.315C477.839 160.313 509.638 121.408 569.386 93.6958C572.449 92.3225 575.796 90.7982 579.428 89.2739C606.424 78.0543 650.607 64.3765 712.297 64.1156" stroke="#4A3AFF" stroke-opacity="0.4" stroke-width="0.5" stroke-miterlimit="10"/>
<path d="M-229.669 144.273C-209.586 149.409 -190.992 154.971 -173.837 159.379C-143.176 167.317 -126.842 170.365 -106.206 180.102C-89.4697 187.998 -81.453 195.537 -66.4741 200.811C-56.4907 204.195 -46.2071 206.95 -35.7129 209.05C-16.4494 213.568 -7.93067 208.721 11.6507 203.804C32.3535 198.586 49.8763 198.572 64.4703 192.338C86.0434 191.28 104.487 196.677 124.453 195.51C126.343 196.076 128.293 196.499 130.277 196.773C171.884 202.198 175.465 213.252 196.837 217.592C222.544 222.81 253.54 217.4 276.87 217.07C295.079 216.823 310.46 217.276 323.899 219.597C339.229 222.247 353.472 230.954 366.794 237.834C373.271 241.185 378.191 244.22 382.459 243.684C408.735 240.416 410.71 223.785 432.919 198.655C440.835 189.701 448.484 179.168 459.864 169.596C473.789 157.869 506.324 117.879 566.976 89.4936C570.056 88.0516 573.453 86.541 577.135 84.9755C604.348 73.5637 649.101 59.5151 711.51 59.0208" stroke="#4A3AFF" stroke-opacity="0.4" stroke-width="0.5" stroke-miterlimit="10"/>
<path d="M-228.782 149.642C-209.368 154.765 -191.042 160.45 -173.887 165.105C-144.75 173.057 -128.013 176.655 -107.495 186.405C-91.1769 194.15 -82.8925 201.511 -68.5662 206.716C-58.8441 210.125 -48.8589 213.006 -38.6753 215.34C-19.914 220.242 -10.9601 216.397 8.18622 211.961C28.1693 207.361 44.5374 206.963 59.7841 200.302C80.286 198.723 98.5118 202.609 119.064 200.302C120.987 200.723 122.954 200.994 124.938 201.113C167.013 203.53 172.988 212.346 193.44 215.958C219.632 220.599 250.627 215.134 274.544 214.941C292.87 214.777 308.552 215.477 322.192 218.21C337.756 221.327 352.15 231.05 365.221 238.452C371.731 242.146 376.668 245.318 380.936 244.81C407.178 241.542 408.752 223.469 430.224 196.965C437.789 187.627 445.287 176.71 456.617 166.753C469.738 155.314 502.943 114.295 564.499 85.1812C567.595 83.7118 571.026 82.1738 574.758 80.5808C602.172 68.9767 647.427 54.5436 710.64 53.8707" stroke="#4A3AFF" stroke-opacity="0.4" stroke-width="0.5" stroke-miterlimit="10"/>
<path d="M-227.879 155.012C-209.067 160.148 -191.059 165.916 -173.938 170.818C-146.189 178.742 -129.202 182.931 -108.783 192.681C-92.9007 200.261 -84.3317 207.389 -70.675 212.593C-61.21 216.081 -51.5094 219.121 -41.6208 221.698C-23.3616 226.985 -14.006 224.129 4.82225 220.187C24.0689 216.177 39.2989 215.408 55.1984 208.35C74.6459 206.235 92.6541 208.611 113.775 205.205C115.74 205.42 117.718 205.535 119.7 205.548C162.21 207.1 170.645 211.522 190.143 214.433C216.82 218.416 247.833 212.703 272.301 212.895C290.711 213.046 306.744 213.774 320.585 216.919C336.384 220.503 350.894 231.256 363.748 239.166C370.292 243.203 375.262 246.554 379.513 246.032C405.739 242.764 406.911 223.277 427.613 195.4C434.843 185.663 442.124 174.361 453.488 163.993C465.705 152.842 499.696 110.669 562.056 80.9517C565.191 79.4503 568.644 77.8893 572.415 76.2689C600.03 64.4313 645.837 49.6412 709.803 48.7074" stroke="#4A3AFF" stroke-opacity="0.4" stroke-width="0.5" stroke-miterlimit="10"/>
<path d="M-226.975 160.368C-208.766 165.49 -191.109 171.354 -173.988 176.49C-147.678 184.373 -130.39 189.152 -110.072 198.929C-94.6412 206.345 -85.7877 213.266 -72.7669 218.443C-60.7168 223.25 -51.0098 225.996 -44.5664 228.056C-26.7925 233.7 -17.0352 231.847 1.40813 228.427C18.0914 225.284 34.5103 221.261 50.5625 216.384C68.169 211.302 86.5454 206.249 108.42 210.08C110.406 210.307 112.423 210.27 114.395 209.97C157.474 206.482 168.235 210.657 186.796 212.895C213.975 216.164 244.971 210.533 270.025 210.836C288.619 211.055 304.887 212.058 318.928 215.601C334.945 219.721 349.589 231.448 362.225 239.866C368.786 244.247 373.806 247.763 378.057 247.227C404.233 243.945 405.036 223.03 424.919 193.78C431.814 183.645 438.927 171.986 450.241 161.219C461.555 150.453 496.383 107.168 559.562 76.681C562.708 75.1841 566.256 73.5774 570.022 71.9157C597.855 59.8859 644.181 44.725 708.933 43.5577" stroke="#4A3AFF" stroke-opacity="0.4" stroke-width="0.5" stroke-miterlimit="10"/>
<path d="M-226.071 165.737C-208.465 170.86 -191.143 176.723 -174.022 182.217C-149.168 190.058 -131.562 195.441 -111.361 205.232C-96.2985 212.483 -87.2275 219.199 -74.8761 224.348C-63.3449 229.169 -53.9725 232.176 -47.5124 234.414C-30.2071 240.416 -20.0817 239.55 -2.00651 236.653C15.7506 233.81 27.533 230.185 45.9261 224.431C62.495 219.24 80.135 218.237 103.08 214.955C105.189 214.653 107.214 214.681 109.105 214.406C152.72 207.979 165.825 209.764 183.448 211.357C211.113 213.843 242.125 208.377 267.732 208.776C286.459 209.078 303.028 210.341 317.271 214.269C333.522 218.8 348.266 231.599 360.702 240.539C367.279 245.263 372.417 248.944 376.584 248.408C402.726 245.126 403.178 222.769 422.308 192.104C428.885 181.571 435.847 169.582 447.094 158.377C457.688 147.83 493.119 103.514 557.168 72.3688C560.348 70.8444 563.863 69.2102 567.729 67.5074C595.762 55.2853 642.64 39.7536 708.129 38.3529" stroke="#4A3AFF" stroke-opacity="0.4" stroke-width="0.5" stroke-miterlimit="10"/>
<path d="M-225.084 171.093C-208.08 176.215 -191.076 182.189 -173.988 187.861C-150.558 195.647 -132.666 201.593 -112.566 211.453C-98.0224 218.54 -88.5832 225.049 -76.8845 230.185C-65.8888 234.991 -56.9182 238.246 -50.3743 240.718C-33.5209 247.076 -23.0273 247.2 -5.32035 244.838C11.6837 242.558 22.4451 238.864 41.3738 232.478C56.9553 227.177 74.2772 224.692 97.8084 219.844C99.9004 219.418 101.976 219.24 103.9 218.842C148.084 209.49 163.548 211.385 180.184 209.819C208.523 207.265 237.036 206.238 265.539 206.743C284.401 207.114 301.254 208.638 315.748 213.005C332.233 218.004 347.061 231.833 359.262 241.281C365.839 246.348 370.978 250.18 375.195 249.658C401.32 246.362 401.404 222.577 419.747 190.607C426.006 179.69 432.851 167.372 443.998 155.713C453.788 145.482 489.872 100.026 554.808 68.2353C558.005 66.6835 561.503 65.0219 565.469 63.2916C593.72 50.8497 641.117 34.9473 707.376 33.3406" stroke="#4A3AFF" stroke-opacity="0.4" stroke-width="0.5" stroke-miterlimit="10"/>
<path d="M-224.264 174.952C-207.862 180.074 -191.176 186.089 -174.055 192.049C-152.03 199.753 -133.888 206.386 -113.805 216.205C-99.696 223.071 -89.9722 229.443 -78.9263 234.538C-68.4661 239.358 -59.8804 242.86 -53.2863 245.524C-36.8346 252.226 -26.023 253.338 -8.68424 251.512C7.5834 249.795 17.3741 246.101 36.7881 238.905C51.4156 233.481 68.4866 229.567 92.5199 223.112C94.6119 222.549 96.6872 222.179 98.6621 221.643C143.448 209.394 161.205 208.24 176.887 206.674C205.554 203.78 234.437 202.573 263.313 203.063C282.292 203.516 299.447 205.301 314.074 210.08C330.811 215.573 345.706 230.391 357.789 240.292C364.35 245.703 369.505 249.713 373.773 249.177C399.864 245.868 399.63 220.654 417.136 187.298C423.078 175.968 429.856 163.348 440.851 151.236C449.872 141.307 486.592 94.7256 552.415 62.2753C555.629 60.696 559.227 59.0069 563.177 57.2491C591.628 44.6013 639.578 28.3281 706.59 26.4879" stroke="#4A3AFF" stroke-opacity="0.4" stroke-width="0.5" stroke-miterlimit="10"/>
<path d="M-223.41 177.026C-207.611 182.148 -191.21 188.163 -174.222 194.439C-153.603 202.06 -135.127 209.297 -115.277 219.157C-101.604 225.9 -91.6123 232.039 -81.2191 237.092C-71.2778 241.926 -63.077 245.648 -56.416 248.587C-40.3659 255.631 -29.2363 257.719 -12.2825 256.442C3.24873 255.274 12.1357 251.676 31.9681 243.643C45.6584 238.15 62.5285 232.767 86.9802 224.692C89.089 224.005 91.181 223.442 93.1726 222.769C138.628 207.595 158.544 203.351 173.356 201.827C202.193 198.874 233.506 196.979 260.836 197.707C279.949 198.215 297.388 200.275 312.233 205.466C329.187 211.398 344.149 227.26 356.082 237.751C362.643 243.519 367.915 247.666 372.116 247.131C398.191 243.835 397.622 217.166 414.308 182.45C419.931 170.722 426.676 157.814 437.471 145.221C445.738 135.608 483.077 87.9005 549.788 54.791C553.034 53.198 556.65 51.4676 560.65 49.6687C589.319 36.8286 637.787 20.1846 705.569 18.0835" stroke="#4A3AFF" stroke-opacity="0.4" stroke-width="0.5" stroke-miterlimit="10"/>
<path d="M-222.473 179.003C-207.26 184.112 -191.126 190.126 -174.223 196.746C-154.461 204.343 -135.199 212.787 -116.516 222.041C-103.278 228.633 -93.0852 234.579 -83.261 239.578C-73.872 244.453 -66.0394 248.38 -59.3114 251.553C-43.6463 258.955 -32.2155 262.003 -15.6466 261.289C-0.834983 260.658 7.19843 257.238 27.3823 248.298C40.2023 242.627 56.8883 235.87 81.6915 226.188C83.8002 225.365 85.909 224.609 87.9341 223.813C134.042 205.713 155.967 197.652 170.059 196.897C199.498 195.359 230.694 191.404 258.61 192.269C277.857 192.832 295.581 195.194 310.627 200.783C327.815 207.182 342.827 224.129 354.609 235.115C361.137 241.226 366.492 245.538 370.693 245.016C396.735 241.693 395.797 213.582 411.697 177.506C417.311 163.992 424.91 151.089 434.324 139.082C441.856 129.758 479.797 80.9379 547.378 47.1692C550.641 45.5488 554.29 43.791 558.34 41.9646C587.21 28.9185 636.23 11.9037 704.765 9.61035" stroke="#4A3AFF" stroke-opacity="0.4" stroke-width="0.5" stroke-miterlimit="10"/>
<path d="M-221.569 180.898C-185.716 193.441 -151.035 208.129 -117.805 224.843C-64.349 251.745 -49.7382 266.274 -19.0607 266.041C3.28224 265.862 8.55415 258.062 76.336 227.589C127.315 204.669 152.804 193.258 166.712 191.884C216.686 187.092 271.313 181.159 308.97 196.004C336.116 206.702 357.505 244.178 369.22 242.695C403.948 238.273 390.241 187.078 431.144 132.834C437.956 123.798 476.483 73.8793 544.951 39.4515C571.528 26.0896 624.883 3.87013 703.945 1" stroke="#4A3AFF" stroke-opacity="0.4" stroke-width="0.5" stroke-miterlimit="10"/>
</svg>
