<svg width="2292" height="1024" viewBox="0 0 2292 1024" fill="none" xmlns="http://www.w3.org/2000/svg">
<g clip-path="url(#clip0_592_301)">
<rect width="2292" height="1024" fill="#212121"/>
<path d="M2264.61 129.863C2115.15 130.396 2007.22 145.882 1935.83 160.115C1863.63 174.51 1810.6 191.282 1717.59 197.879C1614.99 205.237 1549.94 197.774 1524.35 193.989C1488.86 188.735 1491.54 186.168 1433.92 174.904C1323.25 153.266 1300.44 160.189 1251.46 146.761C1170.24 124.503 1200.07 96.47 1117.09 61.0204C1057 35.3404 954.27 12.8458 856.541 22.1012C764.511 30.8195 749.454 60.819 653.992 61.5741C614.78 61.8846 583.043 56.7371 519.593 46.443C438.266 33.3036 384.568 18.8474 362.964 13.6655C298.968 -1.70396 193.617 -13.8171 15.3817 5.10463" stroke="url(#paint0_angular_592_301)" stroke-width="0.5" stroke-miterlimit="10"/>
<path d="M2267.45 120.346C2122.94 120.225 2012.69 133.876 1934.95 148.598C1871.76 160.753 1822.79 174.846 1757 183.752C1742.61 185.693 1727.48 187.526 1711.28 188.991C1609.16 198.207 1543.88 193.583 1516.7 191.234C1480.24 188.095 1480.57 186.097 1424.07 175.053C1384.26 167.281 1355.76 162.624 1333.62 159.439C1295.98 154.03 1276.86 153.036 1247.88 144.274C1237.06 141.028 1227.04 137.175 1218.02 132.791C1176.26 112.525 1181.96 89.0499 1111.75 61.2836C1050.64 37.1131 948.226 16.7109 852.119 26.0072C844.504 26.746 836.969 27.6747 829.541 28.7897C754.585 40.0598 734.291 64.1006 650.355 64.8236C641.509 64.906 632.663 64.6961 623.877 64.1954C594.345 62.5597 564.32 57.7438 516.791 49.9852C438.06 37.0727 385.172 22.777 361.346 17.0097C343.89 12.8183 325.749 9.36024 307.114 6.67171C242.646 -2.72074 150.061 -6.94298 16.8096 5.7709" stroke="url(#paint1_angular_592_301)" stroke-width="0.5" stroke-miterlimit="10"/>
<path d="M2270.38 109.811C2130.84 109.05 2018.2 120.676 1934.15 136.096C1867.41 148.332 1816.15 163.26 1751.43 172.845C1736.66 175.045 1721.36 177.259 1705.03 179.036C1603.4 190.139 1537.81 189.451 1509.1 187.495C1472.1 184.952 1469.6 185.072 1414.32 174.275C1375.62 166.7 1347.31 161.498 1325.68 157.777C1289.23 151.537 1271.49 149.885 1244.51 140.846C1234.23 137.369 1224.68 133.385 1216.01 128.954C1175.75 108.738 1177.18 86.3798 1106.51 60.6883C1044.38 38.0835 942.287 19.823 847.807 29.1517C839.802 29.9837 832.386 30.8382 825.387 31.9358C748.083 43.4521 727.697 66.487 646.826 67.1957C638.046 67.2916 629.265 67.0981 620.54 66.6163C590.49 65.0301 560.488 60.2861 514.119 52.5783C437.959 39.9527 385.935 25.8017 359.847 19.5586C342.526 15.3775 324.555 11.8966 306.106 9.14957C242.239 -0.439854 150.189 -5.45271 18.485 5.63099" stroke="url(#paint2_angular_592_301)" stroke-width="0.5" stroke-miterlimit="10"/>
<path d="M2273.33 98.4174C2138.79 96.9647 2023.79 106.675 1933.41 122.615C1863.2 135.008 1809.58 150.696 1745.99 160.966C1730.81 163.424 1715.31 166.007 1698.91 168.11C1597.77 181.08 1532.36 182.109 1501.63 182.853C1463.63 183.765 1458.77 183.179 1404.69 172.649C1367.06 165.306 1338.94 159.549 1317.71 155.288C1282.48 148.231 1266.07 145.891 1241.08 136.598C1231.42 132.892 1222.41 128.784 1214.14 124.318C1175.37 104.196 1172.4 83.0102 1101.44 59.4771C1038.21 38.4891 936.535 22.4166 843.687 31.7743C835.748 32.613 828.377 33.4734 821.428 34.5442C741.816 46.3494 721.277 68.2817 643.506 69.0899C634.785 69.1991 626.061 69.0221 617.39 68.5601C586.822 67.0377 556.757 62.348 511.611 54.7634C438.072 42.4616 386.867 28.4892 358.554 21.685C341.331 17.5406 323.509 14.0458 305.238 11.2297C241.977 1.45648 150.471 -4.35933 20.342 5.06978" stroke="url(#paint3_angular_592_301)" stroke-width="0.5" stroke-miterlimit="10"/>
<path d="M2276.27 86.8974C2146.71 84.7702 2029.42 92.5171 1932.68 108.977C1858.97 121.527 1803.02 137.98 1740.5 148.907C1724.94 151.624 1709.27 154.589 1692.75 157.005C1592.11 171.813 1526.84 175.662 1494.14 178.054C1455.51 180.883 1448 181.157 1395.03 170.902C1358.38 163.763 1330.59 157.49 1309.8 152.725C1275.78 144.86 1260.75 141.806 1237.72 132.276C1228.7 128.35 1220.22 124.125 1212.33 119.628C1175.03 99.6427 1167.65 79.6471 1096.41 58.2445C1032.07 38.9187 930.844 25.0582 839.61 34.4242C831.761 35.2698 824.434 36.1354 817.511 37.1886C735.572 49.262 714.945 69.9492 640.243 70.9246C631.582 71.0307 622.917 70.8706 614.298 70.4452C583.26 68.9791 553.269 64.3652 509.166 56.9049C438.207 44.9167 387.849 31.1272 357.306 23.7973C340.203 19.675 322.537 16.1654 304.441 13.2945C241.767 3.33272 150.804 -3.26506 22.2367 4.46213" stroke="url(#paint4_angular_592_301)" stroke-width="0.5" stroke-miterlimit="10"/>
<path d="M2278.25 79.6544C2153.69 76.8694 2034.1 82.5793 1931.05 99.4306C1853.89 112.051 1795.59 129.174 1734.18 140.626C1718.25 143.593 1702.37 146.87 1685.75 149.616C1585.69 166.148 1520.52 172.726 1485.93 176.83C1446.66 181.475 1436.36 182.692 1384.67 172.788C1356.12 167.303 1328.25 160.982 1301.2 153.856C1268.34 145.255 1254.72 141.49 1233.72 131.857C1224.56 127.634 1217.45 123.239 1209.69 118.933C1173.86 99.2854 1162.07 80.5573 1090.61 61.513C1025.11 44.0102 924.402 32.4613 834.827 41.763C827.047 42.608 819.766 43.472 812.892 44.5001C728.628 56.7121 707.888 76.1845 636.298 77.1606C627.705 77.2702 619.109 77.1247 610.555 76.7248C579.012 75.3021 549.049 70.8325 506.152 63.5953C437.809 52.0498 388.29 38.5278 355.547 30.7306C338.551 26.665 321.03 23.1712 303.098 20.2724C241.048 10.2011 150.675 2.85122 23.6954 8.83824" stroke="url(#paint5_angular_592_301)" stroke-width="0.5" stroke-miterlimit="10"/>
<path d="M2279.84 74.7177C2160.32 71.3158 2038.45 75.0022 1929.08 92.1565C1848.47 104.801 1787.87 122.548 1727.54 134.398C1711.23 137.611 1695.19 141.198 1678.46 144.236C1578.87 162.374 1513.77 171.617 1477.32 177.422C1437.51 183.791 1424.42 185.993 1373.92 176.48C1345.63 171.149 1318.31 164.627 1292.26 156.985C1260.64 147.712 1248.35 143.232 1229.36 133.441C1220.92 129.118 1214.46 124.609 1206.78 120.293C1172.41 100.96 1156.16 83.7665 1084.55 67.0007C1017.85 51.3846 917.698 42.1416 829.788 51.3572C822.101 52.1993 814.89 53.0595 808.021 54.0574C721.448 66.3284 700.534 84.4927 632.157 85.4468C623.627 85.5693 615.091 85.4422 606.594 85.0663C574.592 83.7157 544.62 79.3808 502.925 72.3107C437.209 61.2108 388.551 48.0371 353.572 39.7818C336.695 35.7939 319.335 32.3291 301.59 29.4073C240.148 19.2634 150.354 11.1955 24.9743 15.4515" stroke="url(#paint6_angular_592_301)" stroke-width="0.5" stroke-miterlimit="10"/>
<path d="M2281.36 69.7476C2166.89 65.692 2042.78 67.4316 1927.05 84.8873C1843.01 97.5712 1780.14 115.961 1720.87 128.272C1704.18 131.753 1687.93 135.643 1671.11 138.949C1572.05 158.655 1507 170.478 1468.73 178.042C1428.13 186.058 1412.49 189.274 1363.21 180.144C1335.12 174.903 1308.32 168.123 1283.32 159.931C1252.98 150.018 1242.01 144.786 1224.99 134.913C1217.35 130.483 1211.48 125.893 1203.9 121.532C1170.96 102.582 1150.19 86.8042 1078.48 72.3034C1010.55 58.5642 911.033 51.5824 824.862 60.6958C817.244 61.5345 810.08 62.3903 803.26 63.3716C714.367 75.7823 693.444 92.6347 628.079 93.6724C619.619 93.7968 611.152 93.6882 602.719 93.347C570.204 92.1216 540.278 87.864 499.779 80.979C436.663 70.3482 388.895 57.4815 351.674 48.8061C334.916 44.8791 317.71 41.434 300.141 38.4881C239.323 28.3155 150.107 19.5381 26.3574 22.0453" stroke="url(#paint7_angular_592_301)" stroke-width="0.5" stroke-miterlimit="10"/>
<path d="M2282.91 64.8042C2173.45 60.1239 2047.09 59.9212 1925.04 77.682C1837.56 90.4081 1772.41 109.45 1714.2 122.153C1697.18 125.866 1680.7 130.024 1663.8 133.685C1565.24 154.942 1500.19 169.313 1460.14 178.615C1418.8 188.249 1400.57 192.487 1352.48 183.731C1324.61 178.581 1298.33 171.576 1274.37 162.915C1245.14 152.349 1235.69 146.381 1220.63 136.425C1213.78 131.874 1208.44 127.224 1200.99 122.818C1169.48 104.228 1144.24 89.8753 1072.44 77.57C1003.23 65.7085 904.366 60.9108 819.792 69.9437C812.245 70.7793 805.127 71.631 798.36 72.5741C707.138 85.0483 686.151 100.667 623.874 101.745C615.475 101.872 607.07 101.781 598.694 101.473C565.695 100.338 535.696 96.1736 496.436 89.4926C435.967 79.3002 389.041 66.7411 349.604 57.6381C332.974 53.7646 315.93 50.3306 298.546 47.3508C238.342 37.0677 149.697 27.6318 27.5515 28.4367" stroke="url(#paint8_angular_592_301)" stroke-width="0.5" stroke-miterlimit="10"/>
<path d="M2284.45 59.9377C2179.99 54.673 2051.33 52.5627 1922.98 70.6174C1831.96 83.3958 1764.67 103.101 1707.47 116.171C1690.09 120.146 1673.4 124.569 1656.41 128.514C1558.39 151.275 1493.31 168.151 1451.49 179.227C1409.33 190.401 1388.58 195.695 1341.7 187.307C1314.04 182.212 1288.27 174.956 1265.41 165.825C1237.37 154.65 1229.35 147.907 1216.26 137.877C1210.18 133.207 1205.46 128.509 1198 124.043C1167.87 105.812 1138.1 92.9279 1066.26 82.7219C995.774 72.733 897.595 70.0683 814.666 79.0145C807.211 79.8481 800.14 80.696 793.41 81.5566C699.882 94.108 678.809 108.511 619.666 109.61C611.314 109.761 602.953 109.687 594.621 109.389C561.152 108.255 531.248 104.287 493.062 97.8329C435.216 88.0699 389.154 75.8124 347.481 66.2847C332.426 62.8358 315.689 59.3577 296.863 56.1019C237.288 45.7524 149.222 35.6204 28.7009 34.7574" stroke="url(#paint9_angular_592_301)" stroke-width="0.5" stroke-miterlimit="10"/>
<path d="M2285.95 55.2673C2186.62 49.3848 2055.69 45.3805 1920.98 63.7165C1826.64 76.5565 1757.03 96.9357 1700.82 110.358C1683.1 114.594 1666.19 119.268 1649.1 123.516C1551.52 147.763 1486.38 167.104 1442.95 179.928C1399.95 192.691 1376.72 198.964 1331.04 190.937C1303.54 185.889 1278.26 178.393 1256.48 168.835C1229.59 157.042 1223.18 149.529 1211.92 139.441C1206.62 134.652 1202.46 129.893 1195.2 125.385C1166.45 107.528 1132.18 96.0259 1060.32 87.9354C988.454 79.8449 891.036 79.2445 809.773 88.1077C802.388 88.9386 795.365 89.7829 788.682 90.6398C692.827 103.269 671.668 116.475 615.566 117.602C607.299 117.763 599.022 117.704 590.772 117.425C556.751 116.376 526.932 112.513 490.037 106.213C434.789 96.882 389.617 84.9098 345.706 74.9716C330.719 71.5686 314.12 68.1281 295.534 64.846C236.589 54.429 149.101 43.6186 30.1856 41.0858" stroke="url(#paint10_angular_592_301)" stroke-width="0.5" stroke-miterlimit="10"/>
<path d="M2287.41 50.7048C2193.03 44.1934 2059.95 38.366 1918.9 56.9722C1821.06 69.8361 1749.34 90.9479 1694.13 104.677C1676.05 109.181 1658.92 114.094 1641.69 118.64C1544.59 144.372 1479.38 166.118 1434.34 180.737C1390.45 194.949 1364.69 202.32 1320.38 194.644C1290.96 189.545 1265 180.282 1247.58 171.926C1221.81 159.542 1216.82 151.238 1207.58 141.097C1203.11 136.192 1199.48 131.372 1192.35 126.808C1164.95 109.338 1126.26 99.2554 1054.34 93.197C981.23 87.0072 884.441 88.4081 804.846 97.1908C797.553 98.0201 790.577 98.861 783.918 99.7136C685.76 112.434 664.537 124.461 611.591 125.609C603.386 125.777 595.169 125.735 586.977 125.483C552.517 124.534 522.695 120.759 486.858 114.634C434.231 105.718 389.992 94.0384 343.847 83.6821C328.927 80.3347 312.47 76.9089 294.144 73.6229C235.808 63.1255 148.898 51.6431 31.6032 47.5048" stroke="url(#paint11_angular_592_301)" stroke-width="0.5" stroke-miterlimit="10"/>
<path d="M2288.88 46.2408C2199.5 39.1193 2064.26 31.6077 1916.83 50.3643C1815.72 63.4271 1741.67 85.0969 1687.41 99.1643C1669 103.947 1651.58 109.083 1634.35 113.931C1537.66 141.069 1472.33 165.283 1425.71 181.595C1380.89 197.284 1352.86 205.687 1309.56 198.363C1281.18 193.527 1255.44 183.889 1238.55 175.032C1213.89 162.061 1210.57 152.991 1203.13 142.778C1199.41 137.753 1196.37 132.895 1189.34 128.273C1163.3 111.126 1120.1 102.518 1048.16 98.3699C973.691 94.0854 877.651 97.4362 799.72 106.153C792.49 106.972 785.569 107.81 778.956 108.667C678.455 121.447 657.166 132.333 607.328 133.5C599.193 133.683 591.045 133.658 582.918 133.426C547.977 132.552 518.151 128.874 483.483 122.936C433.497 114.44 390.086 102.987 341.679 92.257C326.829 88.9421 310.531 85.5632 292.421 82.26C234.717 71.6811 148.385 59.5313 32.6977 53.75" stroke="url(#paint12_angular_592_301)" stroke-width="0.5" stroke-miterlimit="10"/>
<path d="M2290.32 41.8825C2205.97 34.1788 2068.46 24.8337 1914.75 43.8869C1810.2 57.002 1733.95 79.4061 1680.67 93.7465C1661.95 98.7847 1644.31 104.166 1626.96 109.308C1530.7 137.865 1465.14 164.478 1417.09 182.536C1371.29 199.699 1340.9 209.163 1298.9 202.176C1271.54 197.61 1246 187.586 1229.68 178.212C1206.1 164.656 1204.44 154.807 1198.87 144.532C1196.04 139.383 1193.42 134.469 1186.55 129.802C1161.68 113.008 1114.18 104.768 1042.06 103.609C966.233 102.391 870.935 106.487 794.647 115.128C787.495 115.946 780.629 116.781 774.048 117.635C671.195 130.41 649.872 140.248 603.142 141.434C595.068 141.622 586.981 141.61 578.913 141.399C543.495 140.588 513.592 137.025 480.203 131.295C432.936 123.151 390.309 111.908 339.683 100.83C324.902 97.557 308.745 94.2016 290.896 90.8823C233.8 80.22 148.047 67.4079 33.986 60.0232" stroke="url(#paint13_angular_592_301)" stroke-width="0.5" stroke-miterlimit="10"/>
<path d="M2291.85 37.6088C2212.49 29.3371 2072.74 18.1548 1912.74 37.517C1804.76 50.6872 1726.46 73.8177 1674.04 88.4815C1654.93 93.7925 1637.08 99.3862 1619.67 104.867C1523.78 134.864 1458.17 163.798 1408.53 183.594C1361.67 202.194 1328.88 212.646 1288.05 206.007C1261.72 201.706 1236.37 191.309 1220.61 181.421C1198.09 167.304 1198.17 156.683 1194.33 146.352C1192.34 141.076 1190.19 136.118 1183.45 131.383C1160.03 114.944 1108.07 109.219 1035.97 108.854C959.034 108.433 864.261 115.506 789.639 124.075C782.669 124.903 775.699 125.73 769.204 126.574C664.053 139.447 642.62 148.161 598.997 149.356C590.993 149.559 582.974 149.564 574.972 149.372C539.073 148.633 509.28 145.168 476.972 139.594C432.201 131.894 390.52 120.981 337.696 109.437C322.96 106.205 306.912 102.924 289.265 99.5322C232.79 88.85 147.602 75.3249 35.2575 66.3552" stroke="url(#paint14_angular_592_301)" stroke-width="0.5" stroke-miterlimit="10"/>
<path d="M2293.15 33.4052C2218.82 24.5272 2076.85 11.5674 1910.52 31.2276C1799.02 44.4521 1718.73 68.3628 1667.27 83.2785C1647.93 88.8772 1629.7 94.6661 1612.25 100.419C1516.62 131.695 1450.97 163.148 1400 184.646C1352.17 204.742 1317.17 216.179 1277.37 209.846C1252.08 205.808 1226.88 195.037 1211.69 184.649C1190.23 169.909 1192.08 158.587 1189.96 148.176C1188.89 142.766 1187.17 137.772 1180.58 132.979C1158.43 116.883 1102.06 112.659 1029.95 114.068C951.783 115.547 857.609 124.454 784.673 132.966C777.705 133.79 770.895 134.618 764.417 135.373C656.946 148.345 635.466 155.983 594.924 157.197C586.931 157.392 578.923 157.39 570.932 157.192C537.64 156.585 504.802 153.406 473.726 147.779C431.572 140.469 390.755 129.823 335.703 117.869C321.034 114.687 305.154 111.397 287.809 108.021C206.682 92.4483 122.57 80.5635 36.6135 72.5278" stroke="url(#paint15_angular_592_301)" stroke-width="0.5" stroke-miterlimit="10"/>
<path d="M2294.56 29.2547C2225.23 19.7947 2081.01 5.04887 1908.4 25.0215C1793.57 38.3095 1711.14 62.9295 1660.45 78.1451C1435.47 145.748 1354.05 227.347 1266.54 213.716C1242.28 209.937 1217.23 198.794 1202.64 187.898C1171.49 164.645 1196.31 148.747 1177.54 134.6C1131.53 99.9062 893.331 128.261 759.46 144.191C628.932 159.729 623.13 166.033 567.035 165.089C469.113 163.468 421.499 143.227 286.251 116.517C205.826 100.697 122.713 88.0575 37.7758 78.7281" stroke="url(#paint16_angular_592_301)" stroke-width="0.5" stroke-miterlimit="10"/>
<path d="M2294.87 26.9317C2223.75 16.7208 2083.89 2.91878 1918.84 22.1069C1804.9 35.3988 1725.7 60.4895 1671.35 76.5061C1454.24 140.401 1377.25 215.295 1287.44 205.13C1252.35 201.162 1217.17 194.477 1194.74 185.364C1150.67 167.446 1170.52 153.557 1145.57 139.6C1090.94 109.026 869.12 133.156 741.752 147.66C617.67 161.853 611.896 166.924 552.959 163.729C455.023 158.422 409.348 140.317 281.978 114.679C202.51 98.6898 120.001 86.2671 35.5417 77.5751" stroke="url(#paint17_angular_592_301)" stroke-width="0.5" stroke-miterlimit="10"/>
<path d="M2295.19 24.507C2176.64 6.99666 2050.13 5.12619 1929.28 19.0971C1816.24 32.3826 1740.42 57.9745 1682.27 74.7825C1473.29 135.137 1399.38 204.397 1308.34 196.414C1262.15 192.355 1218.44 190.173 1186.86 182.733C1132.68 170.008 1145.59 158.522 1113.61 144.553C1052.5 117.892 844.921 138.014 724.038 151.081C606.608 163.928 600.822 167.864 538.879 162.289C441.141 153.504 397.236 137.209 277.731 112.745C199.243 96.5951 117.36 84.3909 33.4277 76.3336" stroke="url(#paint18_angular_592_301)" stroke-width="0.5" stroke-miterlimit="10"/>
<path d="M2295.78 19.7437C2180.77 2.1799 2057.6 0.107231 1940.03 13.757C1827.92 27.0183 1755.46 53.0563 1693.54 70.6126C1493.1 127.43 1422.5 183.272 1329.67 184.95C1271.59 185.998 1220.91 182.871 1179.37 177.422C1116.59 169.2 1121.72 160.9 1082.03 146.947C1016.34 123.849 821.147 140.208 706.817 151.912C595.893 163.265 590.311 166.265 525.317 158.222C427.802 146.156 385.658 131.532 273.994 108.291C196.49 91.9977 115.217 80.0345 31.8125 72.6422" stroke="url(#paint19_angular_592_301)" stroke-width="0.5" stroke-miterlimit="10"/>
<path d="M2296.69 12.1721C2185.23 -5.38854 2065.43 -7.64701 1951.17 5.6583C1839.98 18.8683 1770.92 45.2804 1705.22 63.5241C1513.46 116.769 1444.44 167.018 1351.44 170.248C1282.35 172.641 1220.82 177.89 1172.39 168.895C1105.74 156.519 1103.3 155.742 1050.99 146.209C990.415 120.757 797.941 139.321 690.142 149.596C585.798 159.5 580.396 161.566 512.331 150.979C415.093 135.852 374.731 122.724 270.917 100.813C194.406 84.4272 113.744 72.7407 30.8957 66.0379" stroke="url(#paint20_angular_592_301)" stroke-width="0.5" stroke-miterlimit="10"/>
<path d="M2297.62 4.41778C2189.73 -13.1459 2073.3 -15.6201 1962.29 -2.70763C1852.04 10.4279 1786.4 37.2423 1716.89 56.1574C1533.99 105.947 1466.5 151.096 1373.37 155.283C1293.09 158.88 1225.48 166.739 1165.41 160.07C1087.96 151.473 1080.63 153.487 1019.96 145.152C955.793 122.169 774.797 138.214 673.634 146.98C575.869 155.44 570.607 156.679 499.513 143.454C402.392 125.42 363.976 113.62 267.987 93.0581C192.466 76.5809 112.406 65.1708 30.1264 59.1585" stroke="url(#paint21_angular_592_301)" stroke-width="0.5" stroke-miterlimit="10"/>
<path d="M2298.56 -3.49977C2194.27 -21.0364 2081.22 -23.7065 1973.52 -11.1773C1864.2 1.89325 1802.01 29.107 1728.67 48.6766C1554.67 95.1049 1488.67 135.422 1395.11 140.208C1303.89 144.875 1230.1 148.742 1158.55 151.134C1070.19 154.09 1058.08 151.111 989.043 143.959C921.185 123.372 751.689 136.916 656.951 144.214C565.765 151.231 560.631 151.712 486.521 135.793C389.701 114.99 353.099 104.349 264.996 85.169C190.46 68.6076 110.992 57.4735 29.2991 52.1459" stroke="url(#paint22_angular_592_301)" stroke-width="0.5" stroke-miterlimit="10"/>
<path d="M2299.52 -11.5225C2217.24 -26.0138 2104.17 -33.9647 1984.7 -19.7626C1876.25 -6.8669 1817.6 20.8732 1740.41 41.072C1575.46 84.2373 1510.86 119.893 1416.98 125.033C1314.61 130.629 1232.92 136.764 1151.63 142.068C1054.29 148.433 1032.32 154.53 958.089 142.61C881.182 130.261 728.616 135.434 640.409 141.303C555.8 146.895 550.743 146.649 473.67 128.018C376.819 104.542 342.347 94.939 261.92 77.1622C211.922 66.1122 136.184 51.2884 28.3876 45.0155" stroke="url(#paint23_angular_592_301)" stroke-width="0.5" stroke-miterlimit="10"/>
<path d="M2300.5 -19.6958C2216.37 -34.8572 2107.79 -41.82 1995.91 -28.4844C1888.4 -15.6656 1833.24 12.532 1752.18 33.3228C1596.37 73.3028 1533.38 104.427 1438.84 109.736C1325.34 116.119 1235.57 124.582 1144.77 132.859C1038.2 142.579 1010.43 151.888 927.193 141.088C847.862 130.759 705.585 133.865 623.878 138.224C545.799 142.393 540.66 141.567 460.831 120.082C363.937 94.0193 331.682 85.3475 258.99 69.0144C209.755 57.9483 135.179 43.1939 27.6248 37.7322" stroke="url(#paint24_angular_592_301)" stroke-width="0.5" stroke-miterlimit="10"/>
<path d="M2301.49 -27.9641C2215.44 -43.8477 2111.42 -49.7704 2007.14 -37.3093C1900.56 -24.5678 1848.93 4.09631 1763.96 25.4638C1617.35 62.3344 1555.9 88.9822 1460.74 94.3552C1336.01 101.401 1238.12 112.266 1137.94 123.54C1021.95 136.585 988.58 148.865 896.324 139.427C814.467 131.055 682.591 132.104 607.396 135.013C535.979 137.79 530.6 136.37 448.041 112.034C350.962 83.4324 321.071 75.6193 256.085 60.7565C207.592 49.6635 134.232 34.9382 26.8861 30.3475" stroke="url(#paint25_angular_592_301)" stroke-width="0.5" stroke-miterlimit="10"/>
<path d="M2302.49 -36.3599C2214.69 -52.8826 2115.04 -57.8391 2018.38 -46.2486C1912.73 -33.5739 1864.68 -4.41255 1775.75 17.4847C1638.43 51.3133 1579.16 78.7215 1482.63 78.8807C1345.77 79.1105 1240.64 99.8323 1131.12 114.104C1005.65 130.447 960.203 155.911 865.487 137.618C786.372 122.301 659.707 130.263 590.922 131.659C526.124 133.017 520.493 131.08 435.257 103.873C337.918 72.7841 310.542 65.7363 253.208 52.379C205.482 41.2498 133.287 26.584 26.1779 22.8302" stroke="url(#paint26_angular_592_301)" stroke-width="0.5" stroke-miterlimit="10"/>
<path d="M2303.53 -45.0387C2213.88 -62.2406 2118.71 -66.1665 2029.64 -55.5312C1924.95 -42.9244 1880.51 -13.2292 1787.59 9.14782C1659.5 39.992 1601.87 62.204 1504.59 63.069C1356.5 64.406 1243.12 87.0303 1124.35 104.299C989.294 123.919 940.391 150.979 834.701 135.405C750.869 123.043 636.752 127.94 574.543 127.909C516.337 127.884 510.271 125.436 422.572 95.3305C324.856 61.797 300.095 55.463 250.383 43.6384C203.45 32.4653 132.416 17.8825 25.5238 14.962" stroke="url(#paint27_angular_592_301)" stroke-width="0.5" stroke-miterlimit="10"/>
<path d="M2304.63 -54.2923C2213.16 -72.1619 2122.49 -75.1026 2040.98 -65.2646C1937.22 -52.7316 1896.46 -22.4732 1799.5 0.327325C1680.88 28.2283 1624.66 45.2194 1526.6 46.7848C1367.23 49.327 1245.64 73.7203 1117.69 93.9659C972.948 116.868 920.217 144.888 804.049 132.615C715.718 123.282 614.016 125.11 558.257 123.603C506.686 122.213 500.116 119.266 409.983 86.2675C311.846 50.3348 289.733 44.6516 247.705 34.3915C201.57 23.148 131.56 8.68087 25.0233 6.59583" stroke="url(#paint28_angular_592_301)" stroke-width="0.5" stroke-miterlimit="10"/>
<path d="M2305.75 -63.7051C2212.45 -82.2395 2126.26 -84.1789 2052.34 -75.2175C1949.52 -62.7477 1912.49 -31.8641 1811.43 -8.71868C1702.2 16.3038 1647.55 28.0736 1548.66 30.3133C1378.09 34.1731 1248.16 60.2152 1111.07 83.424C956.512 109.575 899.644 138.105 773.449 129.577C680.837 123.318 591.304 122.053 542.043 119.046C497.123 116.32 489.934 112.894 397.467 76.9794C298.771 38.6662 279.66 33.548 245.074 24.9207C199.789 13.5773 131.001 -0.746228 24.5705 -1.99836" stroke="url(#paint29_angular_592_301)" stroke-width="0.5" stroke-miterlimit="10"/>
<path d="M2306.98 -73.981C2211.84 -93.1563 2130.19 -94.0443 2063.82 -86.014C1961.99 -73.5167 1928.73 -42.0364 1823.48 -18.6479C1723.69 3.53242 1670.57 10.0825 1570.82 12.9794C1389.14 18.2555 1250.78 45.8042 1104.7 71.9627C940.522 101.337 879.096 125.561 743.128 125.553C646.241 125.537 568.898 118.015 526.091 113.517C487.75 109.483 479.944 105.561 385.215 66.7779C285.946 26.1062 269.807 21.5937 242.732 14.5758C198.378 3.06815 130.601 -11.0391 24.4181 -11.468" stroke="url(#paint30_angular_592_301)" stroke-width="0.5" stroke-miterlimit="10"/>
<path d="M2308.19 -84.1362C2211.24 -103.962 2134.06 -103.871 2075.25 -96.7004C1974.38 -84.2795 1945.07 -51.9732 1835.51 -28.4579C1745.17 -9.06639 1693.62 -7.72368 1592.98 -4.18414C1400.19 2.59556 1253.36 31.5616 1098.12 60.6301C924.111 93.2287 856.971 119.366 712.599 121.624C612.329 123.169 546.222 114.142 509.965 108.102C478.177 102.776 469.684 98.3782 372.79 56.6981C272.828 13.7013 259.835 9.70139 240.168 4.33103C196.926 -7.47238 129.995 -21.2155 24.0378 -20.8271" stroke="url(#paint31_angular_592_301)" stroke-width="0.5" stroke-miterlimit="10"/>
<path d="M2309.4 -94.2893C2210.68 -114.752 2137.79 -113.705 2086.71 -107.372C1986.86 -95.0231 1961.53 -61.7227 1847.54 -38.2509C1766.63 -21.5885 1716.68 -25.4647 1615.11 -21.2873C1411.32 -12.9035 1255.91 17.4087 1091.65 49.348C907.822 85.1458 834.782 113.224 682.196 117.711C578.166 120.764 523.571 110.322 493.916 102.697C468.613 96.1891 459.54 91.2274 360.44 46.6493C259.764 1.32409 250.033 -2.19377 237.717 -5.876C196.081 -18.3348 129.506 -31.3785 23.7731 -30.1771" stroke="url(#paint32_angular_592_301)" stroke-width="0.5" stroke-miterlimit="10"/>
<path d="M-4.65796 925.574C145.346 920.499 251.212 904.355 320.591 890.379C390.749 876.246 441.277 860.742 533.606 852.406C635.441 843.144 701.98 847.293 728.298 849.627C764.785 852.869 762.518 855.073 822.208 862.594C936.869 877.042 958.652 870.615 1010.03 880.191C1095.21 896.066 1069.81 920.156 1158.91 946.876C1223.43 966.234 1330.26 981.636 1426.9 970.957C1517.9 960.899 1528.14 935.642 1623.88 932.057C1663.21 930.585 1695.91 933.854 1761.31 940.393C1845.12 948.729 1901.39 959.009 1923.93 962.621C1990.7 973.337 2098.47 980.08 2274.38 958.917" stroke="url(#paint33_angular_592_301)" stroke-width="0.5" stroke-miterlimit="10"/>
<path d="M-5.6665 933.743C139.436 929.362 247.913 914.747 323.591 900.262C385.068 888.332 431.954 875.255 496.568 865.91C510.701 863.872 525.589 861.899 541.622 860.195C642.656 849.47 708.942 851.239 736.611 852.323C773.717 853.767 773.717 855.416 832.216 862.724C873.445 867.864 902.809 870.8 925.554 872.726C964.217 875.996 983.572 876.218 1014.08 882.507C1025.46 884.834 1036.15 887.684 1045.92 891C1091.11 906.328 1089.19 925.759 1164.15 946.358C1229.41 964.289 1335.53 977.848 1430.51 967.243C1438.04 966.401 1445.46 965.406 1452.73 964.261C1526.17 952.693 1542.66 932.345 1626.81 929.149C1635.68 928.807 1644.59 928.705 1653.49 928.844C1683.41 929.27 1714.33 932.289 1763.3 937.179C1844.43 945.33 1899.83 955.416 1924.69 959.408C1942.89 962.304 1961.66 964.578 1980.8 966.206C2047.04 971.911 2140.68 972.504 2272.41 957.944" stroke="url(#paint34_angular_592_301)" stroke-width="0.5" stroke-miterlimit="10"/>
<path d="M-6.67407 942.634C133.504 938.93 244.707 925.963 326.592 910.792C391.619 898.752 440.681 884.998 504.104 875.181C518.58 872.93 533.583 870.652 549.685 868.697C649.917 856.5 715.86 855.027 744.995 855.731C782.536 856.657 785.033 856.481 842.249 863.566C882.309 868.54 911.559 871.902 933.868 874.264C971.455 878.219 989.527 879.015 1018.07 885.545C1028.94 888.059 1039.16 891.01 1048.58 894.353C1092.23 909.579 1094.39 927.843 1169.44 946.589C1235.43 963.085 1340.84 974.801 1434.18 964.27C1442.08 963.344 1449.39 962.418 1456.24 961.306C1531.98 949.525 1548.75 930.122 1629.81 927.038C1638.61 926.687 1647.45 926.573 1656.29 926.695C1686.71 927.056 1717.58 929.992 1765.36 934.836C1843.83 942.764 1898.32 952.684 1925.51 956.963C1943.57 959.833 1962.17 962.112 1981.12 963.779C2046.77 969.614 2139.97 970.846 2270.39 957.731" stroke="url(#paint35_angular_592_301)" stroke-width="0.5" stroke-miterlimit="10"/>
<path d="M-7.65894 952.128C127.594 949.136 241.454 937.698 329.615 921.971C398.101 909.746 449.408 895.362 511.594 885.063C526.437 882.6 541.577 880.025 557.702 877.811C657.132 864.159 722.617 861.297 753.332 859.741C791.332 857.824 796.302 858.148 852.258 865.011C891.197 869.8 920.332 873.597 942.32 876.394C978.808 881.025 995.643 882.414 1022.21 889.175C1032.5 891.882 1042.2 894.933 1051.21 898.298C1093.33 913.414 1099.7 930.502 1174.67 947.386C1241.48 962.446 1346.09 972.328 1437.78 961.862C1445.61 960.936 1452.87 960.01 1459.67 958.926C1537.69 946.886 1554.8 928.464 1632.72 925.398C1641.45 925.039 1650.24 924.913 1659.01 925.019C1689.94 925.306 1720.86 928.177 1767.38 932.928C1843.15 940.625 1896.77 950.368 1926.27 955.008C1944.21 957.835 1962.66 960.117 1981.45 961.834C2046.5 967.799 2139.26 969.679 2268.35 958" stroke="url(#paint36_angular_592_301)" stroke-width="0.5" stroke-miterlimit="10"/>
<path d="M-8.66626 961.64C121.685 959.343 238.157 949.451 332.616 933.16C404.583 920.74 458.112 905.717 519.108 894.955C534.294 892.278 549.548 889.398 565.742 886.934C664.37 871.856 729.26 866.725 761.693 863.78C800.013 860.297 807.503 859.843 862.291 866.484C900.199 871.115 929.082 875.32 950.704 878.524C986.092 883.822 1001.67 885.823 1026.29 892.806C1035.96 895.697 1045.14 898.847 1053.78 902.235C1094.39 917.22 1104.97 933.141 1179.87 948.219C1247.51 961.834 1351.29 969.892 1441.35 959.5C1449.09 958.574 1456.31 957.648 1463.09 956.583C1543.39 944.292 1560.8 926.945 1635.61 923.842C1644.28 923.488 1653 923.349 1661.72 923.426C1693.1 923.648 1723.93 926.445 1769.37 931.104C1842.48 938.587 1895.21 948.164 1927.02 953.137C1944.84 955.937 1963.13 958.224 1981.74 959.982C2046.22 966.085 2138.55 968.595 2266.34 958.37" stroke="url(#paint37_angular_592_301)" stroke-width="0.5" stroke-miterlimit="10"/>
<path d="M-9.62817 967.771C115.822 966.169 234.927 957.833 335.663 940.977C411.088 928.353 466.862 912.663 526.666 901.475C542.173 898.576 557.588 895.427 573.828 892.686C671.608 876.181 735.971 868.827 770.031 864.428C808.694 859.445 818.841 858.139 872.301 864.567C901.824 868.129 930.802 872.391 959.087 877.329C993.445 883.285 1007.71 885.915 1030.32 893.075C1040.19 896.214 1048.03 899.558 1056.5 902.809C1095.6 917.628 1110.42 932.446 1185.18 945.672C1253.71 957.833 1356.62 964.076 1445.04 953.758C1452.71 952.832 1459.88 951.906 1466.61 950.859C1549.23 938.346 1566.94 921.916 1638.63 918.906C1647.23 918.55 1655.89 918.402 1664.53 918.461C1696.42 918.637 1727.2 921.332 1771.41 925.871C1841.84 933.113 1893.7 942.542 1927.8 947.849C1945.51 950.618 1963.65 952.908 1982.11 954.703C2045.99 960.945 2137.86 964.103 2264.34 955.314" stroke="url(#paint38_angular_592_301)" stroke-width="0.5" stroke-miterlimit="10"/>
<path d="M-10.6824 972.143C109.843 971.216 231.582 964.428 338.617 947.025C417.501 934.197 475.473 917.822 534.133 906.273C549.983 903.142 565.512 899.715 581.821 896.714C678.869 878.811 742.727 869.244 778.39 863.372C817.329 856.935 830.11 854.731 882.333 860.936C911.594 864.414 940.069 868.894 967.447 874.329C1000.68 880.923 1013.74 884.202 1034.38 891.611C1043.54 894.881 1050.75 898.363 1059.16 901.651C1096.77 916.377 1115.85 929.918 1190.43 941.393C1259.9 952.082 1361.91 956.527 1448.68 946.274C1456.26 945.348 1463.36 944.422 1470.09 943.394C1555.03 930.687 1573.1 915.201 1641.58 912.302C1650.13 911.938 1658.72 911.777 1667.31 911.82C1699.65 911.932 1730.43 914.543 1773.42 919.026C1841.18 926.056 1892.14 935.308 1928.58 940.967C1946.16 943.702 1964.15 945.994 1982.43 947.83C2045.74 954.212 2137.18 958.018 2262.35 950.655" stroke="url(#paint39_angular_592_301)" stroke-width="0.5" stroke-miterlimit="10"/>
<path d="M-11.6675 976.579C103.933 976.366 228.261 971.087 341.64 953.137C423.96 940.097 484.108 923.018 541.623 911.052C557.816 907.671 573.506 903.967 589.86 900.725C686.129 881.442 749.53 869.698 786.728 862.288C826.193 854.434 841.379 851.304 892.342 857.287C921.392 860.728 949.396 865.475 975.83 871.439C1007.9 878.654 1019.76 882.618 1038.45 890.213C1046.84 893.621 1053.48 897.215 1061.79 900.567C1097.94 915.136 1121.34 927.473 1195.69 937.179C1266.13 946.376 1367.18 949.034 1452.23 938.865C1459.74 937.939 1466.8 937.013 1473.48 935.994C1560.73 923.027 1579.01 908.514 1644.47 905.634C1652.94 905.269 1661.46 905.096 1669.99 905.115C1702.83 905.115 1733.57 907.69 1775.35 912.098C1840.44 918.887 1890.49 927.992 1929.27 933.975C1946.73 936.686 1964.56 938.987 1982.68 940.866C2045.4 947.349 2136.4 951.804 2260.24 945.904" stroke="url(#paint40_angular_592_301)" stroke-width="0.5" stroke-miterlimit="10"/>
<path d="M-12.6748 981.034C98.0244 981.516 224.963 977.765 344.641 959.269C430.42 946.015 492.744 928.223 549.136 915.896C565.627 912.293 581.5 908.338 597.877 904.781C693.391 884.118 756.379 870.198 795.088 861.251C835.034 851.989 852.648 847.914 902.375 853.675C931.203 857.076 958.74 862.062 984.214 868.494C1015.3 876.338 1025.76 880.988 1042.51 888.768C1050.13 892.324 1056.25 896.011 1064.45 899.428C1099.13 913.849 1126.82 924.954 1200.94 932.919C1272.38 940.597 1372.45 941.505 1455.92 931.4C1463.36 930.474 1470.37 929.548 1477.01 928.557C1566.59 915.396 1585.12 901.808 1647.49 898.984C1655.91 898.618 1664.36 898.433 1672.83 898.428C1706.15 898.345 1736.96 900.864 1777.48 905.18C1839.87 911.746 1889.05 920.693 1930.14 927.01C1947.47 929.702 1965.15 932.018 1983.1 933.947C2045.24 940.597 2135.8 945.663 2258.34 941.208" stroke="url(#paint41_angular_592_301)" stroke-width="0.5" stroke-miterlimit="10"/>
<path d="M-13.6821 985.47C92.1155 986.619 221.711 984.387 347.688 965.354C437.017 951.878 501.38 933.363 556.695 920.693C573.507 916.84 589.54 912.635 605.963 908.82C700.698 886.804 763.297 870.717 803.495 860.186C844.014 849.563 863.987 844.506 912.453 850.044C941.082 853.434 968.157 858.683 992.62 865.585C1022.63 874.032 1031.79 879.404 1046.58 887.36C1053.46 891.065 1058.98 894.834 1067.2 898.326C1100.46 912.589 1132.48 922.407 1206.32 928.686C1278.77 934.827 1377.83 934.002 1459.67 923.972C1467.03 923.046 1473.99 922.12 1480.61 921.193C1572.5 907.829 1591.31 895.168 1650.54 892.417C1658.9 892.032 1667.32 891.834 1675.74 891.824C1709.54 891.732 1740.24 894.112 1779.65 898.307C1839.37 904.652 1887.65 913.441 1931.08 920.091C1946.77 922.499 1964.15 924.88 1983.6 927.01C2045.14 933.789 2135.28 939.504 2256.49 936.485" stroke="url(#paint42_angular_592_301)" stroke-width="0.5" stroke-miterlimit="10"/>
<path d="M-14.6902 989.777C86.0912 991.63 218.321 990.926 350.642 971.365C443.316 957.667 509.9 938.411 564.162 925.408C581.272 921.305 597.488 916.859 613.957 912.765C708.004 889.398 770.26 871.152 811.786 859.047C852.877 847.006 875.187 841.023 922.417 846.34C950.877 849.721 977.523 855.224 1000.98 862.566C1029.95 871.624 1037.63 877.728 1050.62 885.841C1056.73 889.694 1061.7 893.556 1069.74 897.113C1101.58 911.2 1137.91 919.786 1211.45 924.343C1285 928.899 1382.99 926.38 1463.18 916.424C1470.46 915.498 1477.38 914.571 1483.95 913.645C1578.18 900.077 1597.26 888.342 1653.45 885.656C1661.73 885.265 1670.06 885.058 1678.39 885.035C1712.75 884.859 1743.35 887.175 1781.46 891.315C1838.52 897.428 1885.89 906.069 1931.65 913.043C1947.27 915.433 1964.52 917.804 1983.74 919.98C2044.69 926.89 2134.38 933.243 2254.29 931.678" stroke="url(#paint43_angular_592_301)" stroke-width="0.5" stroke-miterlimit="10"/>
<path d="M-15.6758 994.028C80.2727 996.594 214.999 997.381 353.665 977.301C449.866 963.409 518.443 943.366 571.651 930.066C589.081 925.704 605.481 921.027 622.042 916.655C715.356 891.926 777.291 871.55 820.123 857.815C861.878 844.459 886.547 837.439 932.357 842.542C962.774 845.932 990.398 852.943 1009.29 859.454C1037.26 869.105 1043.65 875.959 1054.62 884.23C1059.94 888.231 1064.38 892.185 1072.31 895.816C1102.75 909.709 1143.31 917.016 1216.61 919.897C1291.12 922.851 1388.16 918.665 1466.7 908.783C1473.9 907.856 1480.77 906.93 1487.32 906.004C1583.86 892.222 1603.19 881.414 1656.22 878.802C1664.44 878.405 1672.7 878.186 1680.98 878.145C1715.77 877.876 1746.37 880.136 1783.41 884.192C1837.79 890.083 1884.19 898.567 1932.29 905.874C1947.84 908.236 1964.95 910.616 1983.92 912.821C2044.3 919.869 2133.56 926.862 2252.14 926.713" stroke="url(#paint44_angular_592_301)" stroke-width="0.5" stroke-miterlimit="10"/>
<path d="M-16.6831 998.224C74.3637 1001.49 211.587 1003.67 356.666 983.173C456.142 968.947 526.964 948.256 579.164 934.632C596.87 930.001 613.521 925.102 630.036 920.453C722.709 894.418 784.346 871.837 828.484 856.546C870.926 841.838 897.702 833.836 942.458 838.708C971.799 841.931 999.285 849.313 1017.75 856.305C1044.71 866.549 1049.56 874.144 1058.75 882.581C1063.33 886.73 1067.2 890.759 1075.03 894.464C1104.07 908.208 1148.95 914.173 1221.97 915.46C1297.55 916.785 1393.55 910.959 1470.44 901.142C1477.57 900.222 1484.39 899.295 1490.89 898.363C1589.8 884.396 1609.38 874.495 1659.29 871.958C1667.44 871.55 1675.63 871.318 1683.84 871.263C1719.12 870.92 1749.72 873.115 1785.56 877.079C1837.24 882.738 1882.79 891.111 1933.25 898.715C1948.74 901.068 1965.69 903.429 1984.45 905.671C2044.23 912.858 2133.05 920.49 2250.33 921.805" stroke="url(#paint45_angular_592_301)" stroke-width="0.5" stroke-miterlimit="10"/>
<path d="M-17.6912 1002.35C68.4311 1006.31 208.288 1010.01 359.667 988.98C462.601 974.541 535.507 953.054 586.677 939.161C604.657 934.28 621.492 929.14 638.075 924.213C730.084 896.853 791.538 872.106 836.821 855.203C879.996 839.134 908.971 830.113 952.376 834.771C980.663 837.819 1008.03 845.58 1026.01 853.073C1052.01 863.909 1055.33 872.263 1062.66 880.858C1066.37 885.165 1069.83 889.277 1077.53 893.047C1105.36 906.606 1154.51 912.163 1227.23 910.913C1303.69 909.597 1398.84 903.142 1474.1 893.399C1481.16 892.479 1487.92 891.552 1494.4 890.62C1595.68 876.524 1615.47 867.466 1662.27 865.002C1670.35 864.591 1678.49 864.35 1686.64 864.279C1722.39 863.872 1753.06 865.984 1787.6 869.837C1836.5 875.32 1881.26 883.59 1934.03 891.472C1949.45 893.806 1966.26 896.168 1984.77 898.446C2043.98 905.772 2132.37 914.043 2248.31 916.803" stroke="url(#paint46_angular_592_301)" stroke-width="0.5" stroke-miterlimit="10"/>
<path d="M-18.7908 1006.44C62.4299 1011.07 204.898 1016.32 362.575 994.741C468.968 980.089 543.821 957.815 594.075 943.607C612.399 938.457 629.417 933.104 646 927.862C737.39 899.15 798.501 872.291 845.089 853.767C889.089 836.355 920.309 826.371 962.5 830.798C989.71 833.669 1016.97 841.801 1034.49 849.794C1059.52 861.205 1061.24 870.318 1066.85 879.061C1069.74 883.526 1072.74 887.712 1080.32 891.565C1106.66 904.939 1159.89 908.236 1232.48 906.31C1309.94 904.281 1404.08 895.27 1477.7 885.6C1484.57 884.674 1491.44 883.748 1497.83 882.822C1601.43 868.512 1621.52 860.371 1665.2 857.991C1673.21 857.569 1681.28 857.315 1689.36 857.231C1725.6 856.75 1756.15 858.797 1789.59 862.575C1835.93 867.79 1879.7 875.857 1934.79 884.118C1950.16 886.434 1966.85 888.749 1985.18 891.111C2043.79 898.521 2131.77 907.477 2246.29 911.682" stroke="url(#paint47_angular_592_301)" stroke-width="0.5" stroke-miterlimit="10"/>
<path d="M-19.6841 1010.48C56.612 1015.82 201.669 1022.58 365.69 1000.47C475.634 985.6 552.365 962.492 601.61 948.034C620.117 942.607 637.479 937.05 654.063 931.548C744.972 901.614 805.693 872.458 853.335 852.341C898.045 833.53 931.326 822.583 972.44 826.806C998.575 829.502 1025.76 838.004 1042.8 846.488C1066.9 858.528 1066.97 868.346 1070.86 877.255C1072.86 881.886 1075.44 886.138 1082.89 890.065C1107.9 903.253 1165.34 905.143 1237.66 901.688C1316.06 897.983 1409.3 887.379 1481.25 877.774C1488.12 876.848 1494.83 875.922 1501.22 875.07C1607.16 860.547 1627.47 853.295 1668.06 850.989C1676.07 850.573 1684.13 850.325 1692.2 850.248C1725.8 849.736 1759.39 851.457 1791.61 855.342C1835.27 860.334 1878.14 868.244 1935.57 876.839C1950.87 879.126 1967.4 881.47 1985.43 883.841C2069.7 894.745 2156.36 902.377 2244.21 906.634" stroke="url(#paint48_angular_592_301)" stroke-width="0.5" stroke-miterlimit="10"/>
<path d="M-20.6917 1014.49C50.7028 1020.53 198.37 1028.82 368.691 1006.15C482.001 991.074 560.771 967.188 609.192 952.434C824.109 886.888 892.136 813.682 982.541 822.768C1007.6 825.287 1034.72 834.16 1051.26 843.144C1086.58 862.316 1064.31 876.857 1085.61 888.527C1137.84 917.146 1372.75 885.184 1504.77 867.225C1633.5 849.711 1638.26 844.07 1694.88 843.144C1793.72 841.505 1845.09 857.556 1985.77 876.487C2069.42 887.689 2155.23 896.053 2242.31 901.494" stroke="url(#paint49_angular_592_301)" stroke-width="0.5" stroke-miterlimit="10"/>
<path d="M-20.6917 1017.14C52.6039 1023.74 195.691 1031.31 358.521 1009.62C470.916 994.603 546.341 970.485 598.312 954.971C805.922 893.075 870.674 826.038 962.775 832.021C998.758 834.355 1035.29 839.032 1059.41 846.201C1106.8 860.297 1089.19 872.902 1116.67 884.174C1176.84 908.866 1395.95 881.145 1521.65 864.669C1644.1 848.562 1649.05 844.006 1708.9 844.932C1808.35 846.469 1857.39 860.677 1989.92 878.849C2072.6 890.18 2157.74 898.338 2244.21 903.216" stroke="url(#paint50_angular_592_301)" stroke-width="0.5" stroke-miterlimit="10"/>
<path d="M-20.6917 1019.9C101.543 1031.27 229.138 1028.95 348.352 1013.18C459.83 998.242 531.774 973.875 587.433 957.611C787.461 899.206 850.083 837.337 943.031 841.375C990.192 843.431 1034.54 843.95 1067.56 849.368C1124.23 858.63 1113.19 868.911 1147.73 879.932C1213.72 900.966 1419.15 877.209 1538.56 862.214C1654.52 847.516 1659.68 843.95 1722.94 846.821C1822.76 851.341 1869.69 863.993 1994.07 881.321C2075.77 892.774 2160.21 900.727 2246.02 905.05" stroke="url(#paint51_angular_592_301)" stroke-width="0.5" stroke-miterlimit="10"/>
<path d="M-20.6917 1024.81C97.9837 1036.32 222.237 1034.27 338.205 1018.9C448.744 1004.02 517.229 979.404 576.553 962.399C768.587 907.366 830.155 857.204 923.264 852.878C981.511 850.174 1033.02 851.285 1075.74 854.675C1140.29 859.788 1136.53 867.077 1178.81 877.83C1248.81 895.631 1442.4 875.514 1555.44 861.909C1665.11 848.711 1670.21 845.96 1736.96 850.85C1837.1 858.185 1881.97 869.438 1998.24 885.934C2078.96 897.522 2162.74 905.274 2247.9 909.033" stroke="url(#paint52_angular_592_301)" stroke-width="0.5" stroke-miterlimit="10"/>
<path d="M-20.6917 1032.28C94.4153 1043.92 215.325 1042.15 328.035 1027.15C437.658 1012.33 502.662 987.462 565.673 969.725C749.576 917.961 810.503 872.587 903.52 866.919C972.624 862.714 1033.64 856.287 1083.9 862.52C1153.05 871.096 1155.63 871.689 1209.87 878.265C1275.13 898.28 1465.63 876.329 1572.34 864.141C1675.64 852.378 1680.73 850.433 1751 857.426C1851.39 867.419 1894.22 877.459 2002.38 893.084C2082.13 904.803 2165.27 912.351 2249.75 915.544" stroke="url(#paint53_angular_592_301)" stroke-width="0.5" stroke-miterlimit="10"/>
<path d="M-20.6917 1039.93C90.8416 1051.71 208.415 1050.23 317.911 1035.65C426.617 1020.91 488.117 995.76 554.839 977.301C730.428 928.714 790.667 887.712 883.661 881.21C963.828 875.616 1030.53 866.743 1092.1 870.624C1171.48 875.625 1178.52 873.662 1240.98 878.96C1309.44 896.77 1488.83 877.32 1589.13 866.623C1686.06 856.296 1691.15 855.064 1764.93 864.252C1865.71 876.774 1906.36 885.748 2006.43 900.484C2085.22 912.336 2167.71 919.681 2251.52 922.305" stroke="url(#paint54_angular_592_301)" stroke-width="0.5" stroke-miterlimit="10"/>
<path d="M-20.6917 1047.73C87.2422 1059.63 201.447 1058.42 307.695 1044.26C415.486 1029.58 473.435 1004.15 543.913 984.98C711.119 939.495 770.672 902.642 864.009 895.603C955.01 888.74 1028.6 883.109 1100.2 878.821C1188.62 873.523 1201.31 875.718 1271.99 879.747C1343.77 895.409 1512.03 878.45 1606.13 869.207C1696.69 860.316 1701.78 859.741 1779.06 871.18C1880.02 886.128 1918.66 894.177 2010.58 907.995C2088.4 919.975 2170.26 927.117 2253.37 929.177" stroke="url(#paint55_angular_592_301)" stroke-width="0.5" stroke-miterlimit="10"/>
<path d="M-20.6914 1055.63C64.5834 1065.6 179.726 1068.97 297.549 1052.97C404.492 1038.45 458.799 1012.64 533.034 992.769C691.696 950.312 750.63 917.47 844.242 910.107C946.306 902.086 1027.48 894.242 1108.38 887.128C1205.27 878.598 1226.34 872.643 1303.07 880.645C1382.58 888.935 1535.24 879.719 1623.01 871.902C1707.21 864.437 1712.34 864.493 1793.08 878.209C1894.54 895.501 1930.87 902.735 2014.84 915.609C2067.04 923.611 2145.79 934.077 2255.34 936.151" stroke="url(#paint56_angular_592_301)" stroke-width="0.5" stroke-miterlimit="10"/>
<path d="M-20.6917 1063.67C66.5759 1074.19 177.046 1076.85 287.379 1061.82C393.405 1047.37 444.117 1021.22 522.154 1000.69C672.158 961.204 730.244 932.28 824.498 924.741C937.648 915.683 1026.56 905.56 1116.53 895.566C1222.15 883.831 1248.51 874.903 1334.13 881.673C1415.74 888.157 1558.42 881.044 1639.91 874.727C1717.79 868.688 1723.1 869.244 1807.12 885.378C1909.09 904.948 1943.03 911.459 2018.99 923.351C2070.43 931.409 2148.01 941.875 2257.2 943.264" stroke="url(#paint57_angular_592_301)" stroke-width="0.5" stroke-miterlimit="10"/>
<path d="M-20.6917 1071.8C68.6373 1082.91 174.366 1084.82 277.209 1070.76C382.319 1056.39 429.389 1029.9 511.274 1008.71C652.551 972.143 709.859 947.099 804.731 939.476C929.082 929.483 1025.76 917.007 1124.69 904.105C1239.21 889.175 1270.71 877.478 1365.19 882.803C1449.02 887.527 1581.6 882.516 1656.79 877.654C1728.21 873.023 1733.87 874.088 1821.13 892.649C1923.75 914.46 1955.17 920.314 2023.13 931.196C2073.84 939.319 2150.21 949.822 2259.05 950.47" stroke="url(#paint58_angular_592_301)" stroke-width="0.5" stroke-miterlimit="10"/>
<path d="M-20.6917 1080.05C70.5384 1091.69 171.709 1092.91 267.039 1079.82C371.234 1065.51 414.615 1038.65 500.394 1016.84C632.853 983.146 687.825 957.463 784.987 954.323C922.737 949.868 1025.03 928.575 1132.84 912.756C1256.37 894.64 1297.76 871.078 1396.25 884.044C1478.52 894.908 1604.68 884.044 1673.7 880.692C1738.7 877.496 1744.7 879.006 1835.18 900.021C1938.5 924.037 1967.27 929.316 2027.28 939.152C2077.23 947.349 2152.43 957.861 2260.91 957.796" stroke="url(#paint59_angular_592_301)" stroke-width="0.5" stroke-miterlimit="10"/>
<path d="M-20.6917 1088.57C72.5311 1100.78 169.029 1101.24 256.892 1089.2C360.148 1074.96 399.796 1047.69 489.514 1025.3C613.2 994.426 667.416 973.273 765.22 969.494C914.102 963.724 1024.39 940.476 1141.02 921.731C1273.64 900.428 1318.24 875.32 1427.33 885.61C1513.87 893.778 1627.93 885.961 1690.58 884.054C1749.19 882.266 1755.72 884.211 1849.19 907.727C1953.34 933.919 1979.36 938.67 2031.45 947.432C2080.62 955.712 2154.65 966.215 2262.79 965.437" stroke="url(#paint60_angular_592_301)" stroke-width="0.5" stroke-miterlimit="10"/>
<path d="M-20.6914 1097.63C74.5012 1110.4 166.327 1110.15 246.723 1099.02C349.062 1084.84 384.908 1057.13 478.635 1034.19C593.296 1006.11 646.985 989.518 745.476 985.1C905.536 977.922 1023.79 952.822 1149.17 931.15C1291 906.634 1339.28 880.506 1458.39 887.619C1548.96 893.028 1651.07 888.268 1707.48 887.851C1759.66 887.462 1766.78 889.833 1863.23 915.868C1968.25 944.218 1991.5 948.497 2035.59 956.157C2083.99 964.548 2156.99 975.014 2264.64 973.523" stroke="url(#paint61_angular_592_301)" stroke-width="0.5" stroke-miterlimit="10"/>
<path d="M-20.6917 1106.85C76.4937 1120.18 163.647 1119.2 236.553 1109.05C337.976 1094.93 369.951 1066.71 467.755 1043.29C573.461 1017.97 626.485 1005.96 725.709 1000.92C896.854 992.231 1023.24 965.372 1157.33 940.773C1308.5 913.052 1360.86 886.286 1489.45 889.833C1583.82 892.436 1674.22 890.759 1724.36 891.861C1770.08 892.852 1777.91 895.631 1877.25 924.222C1983.28 954.721 2003.41 958.611 2039.74 965.094C2087.31 973.625 2159.07 984.035 2266.5 981.821" stroke="url(#paint62_angular_592_301)" stroke-width="0.5" stroke-miterlimit="10"/>
<path d="M-20.6917 1116.88C78.4864 1130.77 160.898 1129.01 226.383 1119.89C326.821 1105.73 354.879 1077.03 456.875 1053.2C553.579 1030.6 605.963 1023.19 705.965 1017.54C888.105 1007.25 1022.74 978.737 1165.39 951.202C1325.73 920.277 1383.42 897.076 1520.42 892.852C1618.04 889.852 1697.27 894.056 1741.17 896.677C1780.5 899.03 1789.04 902.235 1891.2 933.373C1998.26 966.03 2015.3 969.494 2043.79 974.819C2090.47 983.553 2161.2 993.843 2268.26 990.916" stroke="url(#paint63_angular_592_301)" stroke-width="0.5" stroke-miterlimit="10"/>
<path d="M-20.6917 1126.81C80.4562 1141.26 158.218 1138.78 216.236 1130.63C315.735 1116.54 339.671 1087.16 445.995 1063.02C533.675 1043.12 585.394 1040.33 686.198 1034.08C879.309 1022.1 1022.26 992 1173.66 961.547C1343.36 927.399 1406.49 902.272 1551.59 895.788C1652.37 891.306 1720.56 897.205 1758.15 901.401C1791.11 905.106 1800.43 908.718 1905.31 942.44C2013.51 977.227 2027.3 980.349 2048.05 984.47C2093.68 993.528 2163.52 1003.56 2270.23 999.919" stroke="url(#paint64_angular_592_301)" stroke-width="0.5" stroke-miterlimit="10"/>
<path d="M-20.6917 1136.74C82.3802 1151.76 155.676 1148.56 206.067 1141.37C304.557 1127.35 324.301 1097.13 435.115 1072.84C513.77 1055.59 564.803 1057.46 666.454 1050.61C870.422 1036.85 1021.8 1005.23 1181.81 971.883C1360.88 934.521 1429.62 907.43 1582.65 898.715C1686.98 892.778 1743.83 900.308 1775.05 906.125C1801.69 911.089 1811.7 915.192 1919.35 951.507C2028.72 988.434 2039.14 991.241 2052.2 994.112C2096.34 1003.83 2165.72 1013.28 2272.09 1008.93" stroke="url(#paint65_angular_592_301)" stroke-width="0.5" stroke-miterlimit="10"/>
</g>
<defs>
<radialGradient id="paint0_angular_592_301" cx="0" cy="0" r="1" gradientUnits="userSpaceOnUse" gradientTransform="translate(1133.82 105.602) rotate(-80.7956) scale(77.8652 1120.11)">
<stop offset="0.3125" stop-color="#0F62FE"/>
<stop offset="0.848958" stop-color="#B3BAC8" stop-opacity="0"/>
</radialGradient>
<radialGradient id="paint1_angular_592_301" cx="0" cy="0" r="1" gradientUnits="userSpaceOnUse" gradientTransform="translate(1135.38 104.994) rotate(-80.8603) scale(73.3236 1120.13)">
<stop offset="0.3125" stop-color="#0F62FE"/>
<stop offset="0.848958" stop-color="#B3BAC8" stop-opacity="0"/>
</radialGradient>
<radialGradient id="paint2_angular_592_301" cx="0" cy="0" r="1" gradientUnits="userSpaceOnUse" gradientTransform="translate(1136.97 104.374) rotate(-80.9166) scale(69.5996 1120.05)">
<stop offset="0.3125" stop-color="#0F62FE"/>
<stop offset="0.848958" stop-color="#B3BAC8" stop-opacity="0"/>
</radialGradient>
<radialGradient id="paint3_angular_592_301" cx="0" cy="0" r="1" gradientUnits="userSpaceOnUse" gradientTransform="translate(1138.56 103.741) rotate(-80.9592) scale(66.9126 1119.83)">
<stop offset="0.3125" stop-color="#0F62FE"/>
<stop offset="0.848958" stop-color="#B3BAC8" stop-opacity="0"/>
</radialGradient>
<radialGradient id="paint4_angular_592_301" cx="0" cy="0" r="1" gradientUnits="userSpaceOnUse" gradientTransform="translate(1140.14 103.163) rotate(-80.9938) scale(64.8032 1119.58)">
<stop offset="0.3125" stop-color="#0F62FE"/>
<stop offset="0.848958" stop-color="#B3BAC8" stop-opacity="0"/>
</radialGradient>
<radialGradient id="paint5_angular_592_301" cx="0" cy="0" r="1" gradientUnits="userSpaceOnUse" gradientTransform="translate(1141.7 102.544) rotate(-80.9607) scale(66.7623 1118.84)">
<stop offset="0.3125" stop-color="#0F62FE"/>
<stop offset="0.848958" stop-color="#B3BAC8" stop-opacity="0"/>
</radialGradient>
<radialGradient id="paint6_angular_592_301" cx="0" cy="0" r="1" gradientUnits="userSpaceOnUse" gradientTransform="translate(1143.3 101.909) rotate(-80.8962) scale(70.7897 1117.92)">
<stop offset="0.3125" stop-color="#0F62FE"/>
<stop offset="0.848958" stop-color="#B3BAC8" stop-opacity="0"/>
</radialGradient>
<radialGradient id="paint7_angular_592_301" cx="0" cy="0" r="1" gradientUnits="userSpaceOnUse" gradientTransform="translate(1144.92 101.315) rotate(-80.8341) scale(74.9052 1116.91)">
<stop offset="0.3125" stop-color="#0F62FE"/>
<stop offset="0.848958" stop-color="#B3BAC8" stop-opacity="0"/>
</radialGradient>
<radialGradient id="paint8_angular_592_301" cx="0" cy="0" r="1" gradientUnits="userSpaceOnUse" gradientTransform="translate(1146.45 100.716) rotate(-80.7754) scale(79.0614 1116.01)">
<stop offset="0.3125" stop-color="#0F62FE"/>
<stop offset="0.848958" stop-color="#B3BAC8" stop-opacity="0"/>
</radialGradient>
<radialGradient id="paint9_angular_592_301" cx="0" cy="0" r="1" gradientUnits="userSpaceOnUse" gradientTransform="translate(1147.96 100.085) rotate(-80.7188) scale(83.3265 1115.14)">
<stop offset="0.3125" stop-color="#0F62FE"/>
<stop offset="0.848958" stop-color="#B3BAC8" stop-opacity="0"/>
</radialGradient>
<radialGradient id="paint10_angular_592_301" cx="0" cy="0" r="1" gradientUnits="userSpaceOnUse" gradientTransform="translate(1149.63 99.4888) rotate(-80.6642) scale(87.6985 1114.1)">
<stop offset="0.3125" stop-color="#0F62FE"/>
<stop offset="0.848958" stop-color="#B3BAC8" stop-opacity="0"/>
</radialGradient>
<radialGradient id="paint11_angular_592_301" cx="0" cy="0" r="1" gradientUnits="userSpaceOnUse" gradientTransform="translate(1151.28 98.88) rotate(-80.6113) scale(92.2047 1113.06)">
<stop offset="0.3125" stop-color="#0F62FE"/>
<stop offset="0.848958" stop-color="#B3BAC8" stop-opacity="0"/>
</radialGradient>
<radialGradient id="paint12_angular_592_301" cx="0" cy="0" r="1" gradientUnits="userSpaceOnUse" gradientTransform="translate(1152.77 98.2545) rotate(-80.5611) scale(96.7851 1112.2)">
<stop offset="0.3125" stop-color="#0F62FE"/>
<stop offset="0.848958" stop-color="#B3BAC8" stop-opacity="0"/>
</radialGradient>
<radialGradient id="paint13_angular_592_301" cx="0" cy="0" r="1" gradientUnits="userSpaceOnUse" gradientTransform="translate(1154.35 97.6551) rotate(-80.5128) scale(101.475 1111.24)">
<stop offset="0.3125" stop-color="#0F62FE"/>
<stop offset="0.848958" stop-color="#B3BAC8" stop-opacity="0"/>
</radialGradient>
<radialGradient id="paint14_angular_592_301" cx="0" cy="0" r="1" gradientUnits="userSpaceOnUse" gradientTransform="translate(1155.98 97.0507) rotate(-80.4669) scale(106.224 1110.33)">
<stop offset="0.3125" stop-color="#0F62FE"/>
<stop offset="0.848958" stop-color="#B3BAC8" stop-opacity="0"/>
</radialGradient>
<radialGradient id="paint15_angular_592_301" cx="0" cy="0" r="1" gradientUnits="userSpaceOnUse" gradientTransform="translate(1157.55 96.4335) rotate(-80.4232) scale(111.022 1109.29)">
<stop offset="0.3125" stop-color="#0F62FE"/>
<stop offset="0.848958" stop-color="#B3BAC8" stop-opacity="0"/>
</radialGradient>
<radialGradient id="paint16_angular_592_301" cx="0" cy="0" r="1" gradientUnits="userSpaceOnUse" gradientTransform="translate(1159.08 95.8198) rotate(-80.382) scale(115.861 1108.4)">
<stop offset="0.3125" stop-color="#0F62FE"/>
<stop offset="0.848958" stop-color="#B3BAC8" stop-opacity="0"/>
</radialGradient>
<radialGradient id="paint17_angular_592_301" cx="0" cy="0" r="1" gradientUnits="userSpaceOnUse" gradientTransform="translate(1158.91 89.5169) rotate(-80.4125) scale(112.313 1109.67)">
<stop offset="0.3125" stop-color="#0F62FE"/>
<stop offset="0.848958" stop-color="#B3BAC8" stop-opacity="0"/>
</radialGradient>
<radialGradient id="paint18_angular_592_301" cx="0" cy="0" r="1" gradientUnits="userSpaceOnUse" gradientTransform="translate(1158.79 83.2143) rotate(-80.4434) scale(108.874 1110.88)">
<stop offset="0.3125" stop-color="#0F62FE"/>
<stop offset="0.848958" stop-color="#B3BAC8" stop-opacity="0"/>
</radialGradient>
<radialGradient id="paint19_angular_592_301" cx="0" cy="0" r="1" gradientUnits="userSpaceOnUse" gradientTransform="translate(1158.63 76.9107) rotate(-80.4549) scale(107.694 1111.93)">
<stop offset="0.3125" stop-color="#0F62FE"/>
<stop offset="0.848958" stop-color="#B3BAC8" stop-opacity="0"/>
</radialGradient>
<radialGradient id="paint20_angular_592_301" cx="0" cy="0" r="1" gradientUnits="userSpaceOnUse" gradientTransform="translate(1158.48 70.6329) rotate(-80.4416) scale(109.253 1112.7)">
<stop offset="0.3125" stop-color="#0F62FE"/>
<stop offset="0.848958" stop-color="#B3BAC8" stop-opacity="0"/>
</radialGradient>
<radialGradient id="paint21_angular_592_301" cx="0" cy="0" r="1" gradientUnits="userSpaceOnUse" gradientTransform="translate(1158.39 64.3072) rotate(-80.4272) scale(110.973 1113.41)">
<stop offset="0.3125" stop-color="#0F62FE"/>
<stop offset="0.848958" stop-color="#B3BAC8" stop-opacity="0"/>
</radialGradient>
<radialGradient id="paint22_angular_592_301" cx="0" cy="0" r="1" gradientUnits="userSpaceOnUse" gradientTransform="translate(1158.24 58.0045) rotate(-80.4118) scale(112.855 1114.15)">
<stop offset="0.3125" stop-color="#0F62FE"/>
<stop offset="0.848958" stop-color="#B3BAC8" stop-opacity="0"/>
</radialGradient>
<radialGradient id="paint23_angular_592_301" cx="0" cy="0" r="1" gradientUnits="userSpaceOnUse" gradientTransform="translate(1158.04 51.6918) rotate(-80.3955) scale(114.884 1114.93)">
<stop offset="0.3125" stop-color="#0F62FE"/>
<stop offset="0.848958" stop-color="#B3BAC8" stop-opacity="0"/>
</radialGradient>
<radialGradient id="paint24_angular_592_301" cx="0" cy="0" r="1" gradientUnits="userSpaceOnUse" gradientTransform="translate(1157.89 45.3942) rotate(-80.3788) scale(117.017 1115.65)">
<stop offset="0.3125" stop-color="#0F62FE"/>
<stop offset="0.848958" stop-color="#B3BAC8" stop-opacity="0"/>
</radialGradient>
<radialGradient id="paint25_angular_592_301" cx="0" cy="0" r="1" gradientUnits="userSpaceOnUse" gradientTransform="translate(1157.75 39.0925) rotate(-80.3617) scale(119.26 1116.36)">
<stop offset="0.3125" stop-color="#0F62FE"/>
<stop offset="0.848958" stop-color="#B3BAC8" stop-opacity="0"/>
</radialGradient>
<radialGradient id="paint26_angular_592_301" cx="0" cy="0" r="1" gradientUnits="userSpaceOnUse" gradientTransform="translate(1157.6 32.7881) rotate(-80.3443) scale(121.595 1117.07)">
<stop offset="0.3125" stop-color="#0F62FE"/>
<stop offset="0.848958" stop-color="#B3BAC8" stop-opacity="0"/>
</radialGradient>
<radialGradient id="paint27_angular_592_301" cx="0" cy="0" r="1" gradientUnits="userSpaceOnUse" gradientTransform="translate(1157.45 26.4651) rotate(-80.3254) scale(124.206 1117.76)">
<stop offset="0.3125" stop-color="#0F62FE"/>
<stop offset="0.848958" stop-color="#B3BAC8" stop-opacity="0"/>
</radialGradient>
<radialGradient id="paint28_angular_592_301" cx="0" cy="0" r="1" gradientUnits="userSpaceOnUse" gradientTransform="translate(1157.3 20.1827) rotate(-80.3028) scale(127.42 1118.39)">
<stop offset="0.3125" stop-color="#0F62FE"/>
<stop offset="0.848958" stop-color="#B3BAC8" stop-opacity="0"/>
</radialGradient>
<radialGradient id="paint29_angular_592_301" cx="0" cy="0" r="1" gradientUnits="userSpaceOnUse" gradientTransform="translate(1157.16 13.8805) rotate(-80.2801) scale(130.774 1119.01)">
<stop offset="0.3125" stop-color="#0F62FE"/>
<stop offset="0.848958" stop-color="#B3BAC8" stop-opacity="0"/>
</radialGradient>
<radialGradient id="paint30_angular_592_301" cx="0" cy="0" r="1" gradientUnits="userSpaceOnUse" gradientTransform="translate(1157.06 7.57851) rotate(-80.2529) scale(134.947 1119.51)">
<stop offset="0.3125" stop-color="#0F62FE"/>
<stop offset="0.848958" stop-color="#B3BAC8" stop-opacity="0"/>
</radialGradient>
<radialGradient id="paint31_angular_592_301" cx="0" cy="0" r="1" gradientUnits="userSpaceOnUse" gradientTransform="translate(1156.86 1.27283) rotate(-80.2276) scale(139.041 1120.13)">
<stop offset="0.3125" stop-color="#0F62FE"/>
<stop offset="0.848958" stop-color="#B3BAC8" stop-opacity="0"/>
</radialGradient>
<radialGradient id="paint32_angular_592_301" cx="0" cy="0" r="1" gradientUnits="userSpaceOnUse" gradientTransform="translate(1156.71 -5.03019) rotate(-80.2034) scale(143.134 1120.7)">
<stop offset="0.3125" stop-color="#0F62FE"/>
<stop offset="0.848958" stop-color="#B3BAC8" stop-opacity="0"/>
</radialGradient>
<radialGradient id="paint33_angular_592_301" cx="0" cy="0" r="1" gradientUnits="userSpaceOnUse" gradientTransform="translate(1134.86 910.555) rotate(90) scale(63.9015 1139.52)">
<stop offset="0.3125" stop-color="#0F62FE"/>
<stop offset="0.848958" stop-color="#B3BAC8" stop-opacity="0"/>
</radialGradient>
<radialGradient id="paint34_angular_592_301" cx="0" cy="0" r="1" gradientUnits="userSpaceOnUse" gradientTransform="translate(1133.37 911.237) rotate(90) scale(59.74 1139.04)">
<stop offset="0.3125" stop-color="#0F62FE"/>
<stop offset="0.848958" stop-color="#B3BAC8" stop-opacity="0"/>
</radialGradient>
<radialGradient id="paint35_angular_592_301" cx="0" cy="0" r="1" gradientUnits="userSpaceOnUse" gradientTransform="translate(1131.86 911.933) rotate(90) scale(56.3473 1138.53)">
<stop offset="0.3125" stop-color="#0F62FE"/>
<stop offset="0.848958" stop-color="#B3BAC8" stop-opacity="0"/>
</radialGradient>
<radialGradient id="paint36_angular_592_301" cx="0" cy="0" r="1" gradientUnits="userSpaceOnUse" gradientTransform="translate(1130.35 912.642) rotate(90) scale(53.912 1138.01)">
<stop offset="0.3125" stop-color="#0F62FE"/>
<stop offset="0.848958" stop-color="#B3BAC8" stop-opacity="0"/>
</radialGradient>
<radialGradient id="paint37_angular_592_301" cx="0" cy="0" r="1" gradientUnits="userSpaceOnUse" gradientTransform="translate(1128.84 913.296) rotate(90) scale(52.008 1137.5)">
<stop offset="0.3125" stop-color="#0F62FE"/>
<stop offset="0.848958" stop-color="#B3BAC8" stop-opacity="0"/>
</radialGradient>
<radialGradient id="paint38_angular_592_301" cx="0" cy="0" r="1" gradientUnits="userSpaceOnUse" gradientTransform="translate(1127.36 913.989) rotate(90) scale(53.7819 1136.99)">
<stop offset="0.3125" stop-color="#0F62FE"/>
<stop offset="0.848958" stop-color="#B3BAC8" stop-opacity="0"/>
</radialGradient>
<radialGradient id="paint39_angular_592_301" cx="0" cy="0" r="1" gradientUnits="userSpaceOnUse" gradientTransform="translate(1125.83 914.7) rotate(90) scale(57.443 1136.52)">
<stop offset="0.3125" stop-color="#0F62FE"/>
<stop offset="0.848958" stop-color="#B3BAC8" stop-opacity="0"/>
</radialGradient>
<radialGradient id="paint40_angular_592_301" cx="0" cy="0" r="1" gradientUnits="userSpaceOnUse" gradientTransform="translate(1124.29 915.371) rotate(90) scale(61.2076 1135.96)">
<stop offset="0.3125" stop-color="#0F62FE"/>
<stop offset="0.848958" stop-color="#B3BAC8" stop-opacity="0"/>
</radialGradient>
<radialGradient id="paint41_angular_592_301" cx="0" cy="0" r="1" gradientUnits="userSpaceOnUse" gradientTransform="translate(1122.83 916.043) rotate(90) scale(65.0299 1135.51)">
<stop offset="0.3125" stop-color="#0F62FE"/>
<stop offset="0.848958" stop-color="#B3BAC8" stop-opacity="0"/>
</radialGradient>
<radialGradient id="paint42_angular_592_301" cx="0" cy="0" r="1" gradientUnits="userSpaceOnUse" gradientTransform="translate(1121.4 916.745) rotate(90) scale(68.9721 1135.09)">
<stop offset="0.3125" stop-color="#0F62FE"/>
<stop offset="0.848958" stop-color="#B3BAC8" stop-opacity="0"/>
</radialGradient>
<radialGradient id="paint43_angular_592_301" cx="0" cy="0" r="1" gradientUnits="userSpaceOnUse" gradientTransform="translate(1119.8 917.422) rotate(90) scale(73.0332 1134.49)">
<stop offset="0.3125" stop-color="#0F62FE"/>
<stop offset="0.848958" stop-color="#B3BAC8" stop-opacity="0"/>
</radialGradient>
<radialGradient id="paint44_angular_592_301" cx="0" cy="0" r="1" gradientUnits="userSpaceOnUse" gradientTransform="translate(1118.23 918.11) rotate(90) scale(77.237 1133.91)">
<stop offset="0.3125" stop-color="#0F62FE"/>
<stop offset="0.848958" stop-color="#B3BAC8" stop-opacity="0"/>
</radialGradient>
<radialGradient id="paint45_angular_592_301" cx="0" cy="0" r="1" gradientUnits="userSpaceOnUse" gradientTransform="translate(1116.82 918.806) rotate(90) scale(81.5257 1133.5)">
<stop offset="0.3125" stop-color="#0F62FE"/>
<stop offset="0.848958" stop-color="#B3BAC8" stop-opacity="0"/>
</radialGradient>
<radialGradient id="paint46_angular_592_301" cx="0" cy="0" r="1" gradientUnits="userSpaceOnUse" gradientTransform="translate(1115.31 919.481) rotate(90) scale(85.9342 1133)">
<stop offset="0.3125" stop-color="#0F62FE"/>
<stop offset="0.848958" stop-color="#B3BAC8" stop-opacity="0"/>
</radialGradient>
<radialGradient id="paint47_angular_592_301" cx="0" cy="0" r="1" gradientUnits="userSpaceOnUse" gradientTransform="translate(1113.75 920.163) rotate(90) scale(90.4118 1132.54)">
<stop offset="0.3125" stop-color="#0F62FE"/>
<stop offset="0.848958" stop-color="#B3BAC8" stop-opacity="0"/>
</radialGradient>
<radialGradient id="paint48_angular_592_301" cx="0" cy="0" r="1" gradientUnits="userSpaceOnUse" gradientTransform="translate(1112.26 920.855) rotate(90) scale(94.9511 1131.95)">
<stop offset="0.3125" stop-color="#0F62FE"/>
<stop offset="0.848958" stop-color="#B3BAC8" stop-opacity="0"/>
</radialGradient>
<radialGradient id="paint49_angular_592_301" cx="0" cy="0" r="1" gradientUnits="userSpaceOnUse" gradientTransform="translate(1110.81 921.542) rotate(90) scale(99.5416 1131.5)">
<stop offset="0.3125" stop-color="#0F62FE"/>
<stop offset="0.848958" stop-color="#B3BAC8" stop-opacity="0"/>
</radialGradient>
<radialGradient id="paint50_angular_592_301" cx="0" cy="0" r="1" gradientUnits="userSpaceOnUse" gradientTransform="translate(1111.76 927.817) rotate(90) scale(96.1696 1132.45)">
<stop offset="0.3125" stop-color="#0F62FE"/>
<stop offset="0.848958" stop-color="#B3BAC8" stop-opacity="0"/>
</radialGradient>
<radialGradient id="paint51_angular_592_301" cx="0" cy="0" r="1" gradientUnits="userSpaceOnUse" gradientTransform="translate(1112.66 934.095) rotate(90) scale(92.9071 1133.36)">
<stop offset="0.3125" stop-color="#0F62FE"/>
<stop offset="0.848958" stop-color="#B3BAC8" stop-opacity="0"/>
</radialGradient>
<radialGradient id="paint52_angular_592_301" cx="0" cy="0" r="1" gradientUnits="userSpaceOnUse" gradientTransform="translate(1113.6 940.372) rotate(90) scale(91.7842 1134.29)">
<stop offset="0.3125" stop-color="#0F62FE"/>
<stop offset="0.848958" stop-color="#B3BAC8" stop-opacity="0"/>
</radialGradient>
<radialGradient id="paint53_angular_592_301" cx="0" cy="0" r="1" gradientUnits="userSpaceOnUse" gradientTransform="translate(1114.53 946.623) rotate(90) scale(93.2493 1135.22)">
<stop offset="0.3125" stop-color="#0F62FE"/>
<stop offset="0.848958" stop-color="#B3BAC8" stop-opacity="0"/>
</radialGradient>
<radialGradient id="paint54_angular_592_301" cx="0" cy="0" r="1" gradientUnits="userSpaceOnUse" gradientTransform="translate(1115.41 952.925) rotate(90) scale(94.8678 1136.1)">
<stop offset="0.3125" stop-color="#0F62FE"/>
<stop offset="0.848958" stop-color="#B3BAC8" stop-opacity="0"/>
</radialGradient>
<radialGradient id="paint55_angular_592_301" cx="0" cy="0" r="1" gradientUnits="userSpaceOnUse" gradientTransform="translate(1116.34 959.202) rotate(90) scale(96.641 1137.03)">
<stop offset="0.3125" stop-color="#0F62FE"/>
<stop offset="0.848958" stop-color="#B3BAC8" stop-opacity="0"/>
</radialGradient>
<radialGradient id="paint56_angular_592_301" cx="0" cy="0" r="1" gradientUnits="userSpaceOnUse" gradientTransform="translate(1117.33 965.485) rotate(90) scale(98.5547 1138.02)">
<stop offset="0.3125" stop-color="#0F62FE"/>
<stop offset="0.848958" stop-color="#B3BAC8" stop-opacity="0"/>
</radialGradient>
<radialGradient id="paint57_angular_592_301" cx="0" cy="0" r="1" gradientUnits="userSpaceOnUse" gradientTransform="translate(1118.25 971.757) rotate(90) scale(100.57 1138.94)">
<stop offset="0.3125" stop-color="#0F62FE"/>
<stop offset="0.848958" stop-color="#B3BAC8" stop-opacity="0"/>
</radialGradient>
<radialGradient id="paint58_angular_592_301" cx="0" cy="0" r="1" gradientUnits="userSpaceOnUse" gradientTransform="translate(1119.18 978.032) rotate(90) scale(102.692 1139.87)">
<stop offset="0.3125" stop-color="#0F62FE"/>
<stop offset="0.848958" stop-color="#B3BAC8" stop-opacity="0"/>
</radialGradient>
<radialGradient id="paint59_angular_592_301" cx="0" cy="0" r="1" gradientUnits="userSpaceOnUse" gradientTransform="translate(1120.11 984.311) rotate(90) scale(104.903 1140.8)">
<stop offset="0.3125" stop-color="#0F62FE"/>
<stop offset="0.848958" stop-color="#B3BAC8" stop-opacity="0"/>
</radialGradient>
<radialGradient id="paint60_angular_592_301" cx="0" cy="0" r="1" gradientUnits="userSpaceOnUse" gradientTransform="translate(1121.05 990.607) rotate(90) scale(107.378 1141.74)">
<stop offset="0.3125" stop-color="#0F62FE"/>
<stop offset="0.848958" stop-color="#B3BAC8" stop-opacity="0"/>
</radialGradient>
<radialGradient id="paint61_angular_592_301" cx="0" cy="0" r="1" gradientUnits="userSpaceOnUse" gradientTransform="translate(1121.98 996.863) rotate(90) scale(110.432 1142.67)">
<stop offset="0.3125" stop-color="#0F62FE"/>
<stop offset="0.848958" stop-color="#B3BAC8" stop-opacity="0"/>
</radialGradient>
<radialGradient id="paint62_angular_592_301" cx="0" cy="0" r="1" gradientUnits="userSpaceOnUse" gradientTransform="translate(1122.9 1003.14) rotate(90) scale(113.623 1143.59)">
<stop offset="0.3125" stop-color="#0F62FE"/>
<stop offset="0.848958" stop-color="#B3BAC8" stop-opacity="0"/>
</radialGradient>
<radialGradient id="paint63_angular_592_301" cx="0" cy="0" r="1" gradientUnits="userSpaceOnUse" gradientTransform="translate(1123.78 1009.42) rotate(90) scale(117.602 1144.48)">
<stop offset="0.3125" stop-color="#0F62FE"/>
<stop offset="0.848958" stop-color="#B3BAC8" stop-opacity="0"/>
</radialGradient>
<radialGradient id="paint64_angular_592_301" cx="0" cy="0" r="1" gradientUnits="userSpaceOnUse" gradientTransform="translate(1124.77 1015.69) rotate(90) scale(121.51 1145.46)">
<stop offset="0.3125" stop-color="#0F62FE"/>
<stop offset="0.848958" stop-color="#B3BAC8" stop-opacity="0"/>
</radialGradient>
<radialGradient id="paint65_angular_592_301" cx="0" cy="0" r="1" gradientUnits="userSpaceOnUse" gradientTransform="translate(1125.7 1021.97) rotate(90) scale(125.422 1146.39)">
<stop offset="0.3125" stop-color="#0F62FE"/>
<stop offset="0.848958" stop-color="#B3BAC8" stop-opacity="0"/>
</radialGradient>
<clipPath id="clip0_592_301">
<rect width="2292" height="1024" fill="white"/>
</clipPath>
</defs>
</svg>
