<svg width="81" height="82" viewBox="0 0 81 82" fill="none" xmlns="http://www.w3.org/2000/svg">
<path d="M7.392 22.0323H22.369C20.8811 27.5614 20.03 33.8359 20.03 40.4998H22.0325C22.0325 33.797 22.8919 27.503 24.3827 22.0323H39.4987V40.4998H41.5012V22.0323H56.6173C58.1081 27.503 58.9675 33.797 58.9675 40.4998H60.9728C60.9728 33.8359 60.1217 27.5614 58.6365 22.0323H73.6108C76.6757 27.503 78.439 33.797 78.439 40.4998H80.4443C80.4443 18.4778 62.5275 0.561035 40.5056 0.561035C18.4836 0.561035 0.561249 18.4778 0.561249 40.4998H2.56375C2.56375 33.797 4.32706 27.503 7.392 22.0323ZM24.9751 20.0298C28.0928 10.084 33.405 3.34229 39.4987 2.66644V20.0298H24.9751ZM41.5012 20.0298V2.66644C47.595 3.34229 52.9044 10.084 56.0249 20.0298H41.5012ZM72.3898 20.0298H58.0441C55.7162 12.4676 52.1534 6.53238 47.8898 3.29779C58.1498 5.33366 66.9107 11.5247 72.3898 20.0298ZM33.1102 3.29779C28.8493 6.53238 25.2838 12.4676 22.9587 20.0298H8.61019C14.0892 11.5247 22.8502 5.33366 33.1102 3.29779ZM58.9675 48.8435V50.3454L48.8438 47.8423H41.1981C39.6072 47.8423 38.072 48.4208 36.8788 49.4693L35.5605 50.6235H22.0325V48.8435C22.0325 48.2901 21.5847 47.8423 21.0312 47.8423H1.5625V49.8476H20.03V72.8735H1.5625V74.8788H21.0312C21.5847 74.8788 22.0325 74.431 22.0325 73.8776V72.0976H24.6858L30.6599 80.5581C31.4053 81.3897 32.4399 81.818 33.4829 81.818C34.2394 81.818 34.9987 81.5928 35.6578 81.1283L37.4462 79.8712C37.5519 79.9101 37.6353 79.988 37.7466 80.0186C38.072 80.102 38.4002 80.1465 38.7256 80.1465C39.3819 80.1465 40.03 79.9741 40.6113 79.6348L42.9252 78.2998C43.348 78.4555 43.7847 78.564 44.238 78.564C44.8777 78.564 45.5285 78.3999 46.1237 78.0578L48.4405 76.72C48.8632 76.8758 49.2999 76.9842 49.7532 76.9842C50.3929 76.9842 51.0465 76.8201 51.6417 76.478C53.2048 75.5741 53.8055 73.7246 53.291 72.0948H58.9703V73.8748C58.9703 74.4283 59.4181 74.876 59.9715 74.876H79.4403V72.8735H60.9728V49.8448H79.4375V47.8423H59.9688C59.4153 47.8423 58.9675 48.2901 58.9675 48.8435ZM50.6377 74.7453C49.7894 75.2348 48.6936 74.9428 48.2041 74.0945L44.0322 66.8688L42.2967 67.8673L46.6632 75.4323L45.1224 76.3195C44.2714 76.8173 43.1811 76.5198 42.6888 75.6715L39.9076 70.8543L39.2123 69.6501L37.4796 70.6485L38.1749 71.85L40.9561 76.6672C40.9561 76.6699 40.9589 76.6699 40.9617 76.6727L41.1536 77.0037L39.61 77.8937C39.2039 78.1329 38.7256 78.1941 38.2667 78.0717C37.8077 77.9493 37.4267 77.6573 37.1875 77.2512L34.4007 72.4258L32.6652 73.4242L35.4465 78.2413C35.4492 78.2441 35.452 78.2469 35.452 78.2497L35.6857 78.653L34.5064 79.4846C33.7694 80.0047 32.7598 79.8878 32.2258 79.3066L26.0236 70.5123C25.8345 70.2453 25.5313 70.0867 25.2059 70.0867H22.0325V52.626H33.2687L28.0233 57.2151C27.6339 57.5516 27.4003 58.0411 27.3836 58.5529C27.3642 59.0674 27.5616 59.5708 27.9287 59.9352C30.2984 62.3048 34.0586 62.5106 36.673 60.4191L39.4626 58.1858H44.06L51.2885 72.3089C51.7752 73.1628 51.4832 74.2558 50.6377 74.7453ZM52.3954 70.0923L45.5619 56.7312C45.3894 56.3974 45.0446 56.186 44.6719 56.186H39.1094C38.8813 56.186 38.6616 56.2639 38.4836 56.4058L35.4187 58.8588C33.6025 60.3106 30.9937 60.1716 29.3388 58.7253L38.1971 50.974C39.0259 50.2453 40.0912 49.8476 41.1981 49.8476L48.6018 49.817L58.9675 52.4091V70.0923H52.3954Z" fill="white"/>
</svg>
