<svg width="32" height="32" viewBox="0 0 32 32" fill="none" xmlns="http://www.w3.org/2000/svg">
<path d="M31 23.36H1.00001C0.801015 23.36 0.640015 23.199 0.640015 23V9.00001C0.640015 8.80101 0.801015 8.64001 1.00001 8.64001H31C31.199 8.64001 31.36 8.80101 31.36 9.00001V23C31.36 23.199 31.199 23.36 31 23.36ZM1.36001 22.64H30.64V9.36001H1.36001V22.64ZM29 21.36H24C23.801 21.36 23.64 21.199 23.64 21V19C23.64 18.801 23.801 18.64 24 18.64H29C29.199 18.64 29.36 18.801 29.36 19V21C29.36 21.199 29.199 21.36 29 21.36ZM24.36 20.64H28.639V19.36H24.36V20.64ZM22 21.36H10C9.80101 21.36 9.64001 21.199 9.64001 21V19C9.64001 18.801 9.80101 18.64 10 18.64H22C22.199 18.64 22.36 18.801 22.36 19V21C22.36 21.199 22.199 21.36 22 21.36ZM10.36 20.64H21.64V19.36H10.36V20.64ZM8.00001 21.36H3.00001C2.80101 21.36 2.64001 21.199 2.64001 21V19C2.64001 18.801 2.80101 18.64 3.00001 18.64H8.00001C8.19901 18.64 8.36001 18.801 8.36001 19V21C8.36001 21.199 8.19901 21.36 8.00001 21.36ZM3.36001 20.64H7.64001V19.36H3.36001V20.64ZM29 17.36H25C24.801 17.36 24.64 17.199 24.64 17V15C24.64 14.801 24.801 14.64 25 14.64H29C29.199 14.64 29.36 14.801 29.36 15V17C29.36 17.199 29.199 17.36 29 17.36ZM25.36 16.64H28.639V15.36H25.36V16.64ZM23 17.36H21C20.801 17.36 20.64 17.199 20.64 17V15C20.64 14.801 20.801 14.64 21 14.64H23C23.199 14.64 23.36 14.801 23.36 15V17C23.36 17.199 23.199 17.36 23 17.36ZM21.36 16.64H22.639V15.36H21.36V16.64ZM19 17.36H17C16.801 17.36 16.64 17.199 16.64 17V15C16.64 14.801 16.801 14.64 17 14.64H19C19.199 14.64 19.36 14.801 19.36 15V17C19.36 17.199 19.199 17.36 19 17.36ZM17.36 16.64H18.639V15.36H17.36V16.64ZM15 17.36H13C12.801 17.36 12.64 17.199 12.64 17V15C12.64 14.801 12.801 14.64 13 14.64H15C15.199 14.64 15.36 14.801 15.36 15V17C15.36 17.199 15.199 17.36 15 17.36ZM13.36 16.64H14.64V15.36H13.36V16.64ZM11 17.36H9.00001C8.80101 17.36 8.64001 17.199 8.64001 17V15C8.64001 14.801 8.80101 14.64 9.00001 14.64H11C11.199 14.64 11.36 14.801 11.36 15V17C11.36 17.199 11.199 17.36 11 17.36ZM9.36001 16.64H10.64V15.36H9.36001V16.64ZM7.00001 17.36H3.00001C2.80101 17.36 2.64001 17.199 2.64001 17V15C2.64001 14.801 2.80101 14.64 3.00001 14.64H7.00001C7.19901 14.64 7.36001 14.801 7.36001 15V17C7.36001 17.199 7.19901 17.36 7.00001 17.36ZM3.36001 16.64H6.64001V15.36H3.36001V16.64ZM29 13.36H27C26.801 13.36 26.64 13.199 26.64 13V11C26.64 10.801 26.801 10.64 27 10.64H29C29.199 10.64 29.36 10.801 29.36 11V13C29.36 13.199 29.199 13.36 29 13.36ZM27.36 12.64H28.639V11.36H27.36V12.64ZM25 13.36H23C22.801 13.36 22.64 13.199 22.64 13V11C22.64 10.801 22.801 10.64 23 10.64H25C25.199 10.64 25.36 10.801 25.36 11V13C25.36 13.199 25.199 13.36 25 13.36ZM23.36 12.64H24.639V11.36H23.36V12.64ZM21 13.36H19C18.801 13.36 18.64 13.199 18.64 13V11C18.64 10.801 18.801 10.64 19 10.64H21C21.199 10.64 21.36 10.801 21.36 11V13C21.36 13.199 21.199 13.36 21 13.36ZM19.36 12.64H20.639V11.36H19.36V12.64ZM17 13.36H15C14.801 13.36 14.64 13.199 14.64 13V11C14.64 10.801 14.801 10.64 15 10.64H17C17.199 10.64 17.36 10.801 17.36 11V13C17.36 13.199 17.199 13.36 17 13.36ZM15.36 12.64H16.64V11.36H15.36V12.64V12.64ZM13 13.36H11C10.801 13.36 10.64 13.199 10.64 13V11C10.64 10.801 10.801 10.64 11 10.64H13C13.199 10.64 13.36 10.801 13.36 11V13C13.36 13.199 13.199 13.36 13 13.36ZM11.36 12.64H12.64V11.36H11.36V12.64ZM9.00001 13.36H7.00001C6.80101 13.36 6.64001 13.199 6.64001 13V11C6.64001 10.801 6.80101 10.64 7.00001 10.64H9.00001C9.19901 10.64 9.36001 10.801 9.36001 11V13C9.36001 13.199 9.19901 13.36 9.00001 13.36ZM7.36001 12.64H8.64001V11.36H7.36001V12.64ZM5.00001 13.36H3.00001C2.80101 13.36 2.64001 13.199 2.64001 13V11C2.64001 10.801 2.80101 10.64 3.00001 10.64H5.00001C5.19901 10.64 5.36001 10.801 5.36001 11V13C5.36001 13.199 5.19901 13.36 5.00001 13.36ZM3.36001 12.64H4.64001V11.36H3.36001V12.64Z" fill="white"/>
</svg>
