<svg width="81" height="87" viewBox="0 0 81 87" fill="none" xmlns="http://www.w3.org/2000/svg">
<path d="M79.4375 86.2201H40.5C39.9465 86.2201 39.4988 85.7723 39.4988 85.2188V57.4063C39.4988 56.8528 39.9465 56.4051 40.5 56.4051H50.6238V49.0626C50.6238 48.5091 51.0715 48.0613 51.625 48.0613H68.3125C68.866 48.0613 69.3138 48.5091 69.3138 49.0626V56.4051H79.4375C79.991 56.4051 80.4388 56.8528 80.4388 57.4063V85.2188C80.4388 85.7723 79.991 86.2201 79.4375 86.2201ZM41.5013 84.2176H78.4363V69.5326H66.5325V71.3126C66.5325 71.866 66.0847 72.3138 65.5313 72.3138H54.4063C53.8528 72.3138 53.405 71.866 53.405 71.3126V69.5326H41.5013V84.2176ZM55.4075 70.3113H64.5272V66.7513H55.4075V70.3113ZM66.5325 67.5301H78.4335V58.4076H41.5013V67.5273H53.405V65.7501C53.405 65.1966 53.8528 64.7488 54.4063 64.7488H65.5313C66.0847 64.7488 66.5325 65.1966 66.5325 65.7501V67.5301ZM52.6263 56.4051H67.3085V50.0638H52.6263V56.4051ZM19.2512 85.2188H17.2488V64.3594C17.2488 54.3692 23.526 45.675 32.7848 42.446C29.0969 39.9234 26.8162 35.7126 26.8162 31.1541C26.8162 25.6917 30.0342 20.9636 34.6761 18.772C35.2212 17.4036 35.4965 15.9573 35.4965 14.4666C35.4965 8.02521 30.2567 2.78256 23.8125 2.78256C17.3683 2.78256 12.1285 8.02243 12.1285 14.4666C12.1285 19.0696 14.8541 23.2609 19.0705 25.1355C19.4654 25.3107 19.7018 25.7167 19.6601 26.1451C19.6212 26.5706 19.3124 26.9266 18.8953 27.0239C9.27769 29.3046 2.56375 37.7957 2.56375 47.6719V68.5313H0.561249V47.6719C0.561249 37.6817 6.83853 28.9875 16.0945 25.7585C12.4066 23.2359 10.1287 19.0251 10.1287 14.4666C10.1287 6.92106 16.267 0.782837 23.8125 0.782837C31.358 0.782837 37.4963 6.92106 37.4963 14.4666C37.4963 15.6403 37.3516 16.7889 37.0596 17.907C39.2568 17.3368 41.7404 17.3368 43.9376 17.907C43.6484 16.7917 43.501 15.6403 43.501 14.4666C43.501 6.92106 49.642 0.782837 57.1875 0.782837C64.733 0.782837 70.874 6.92106 70.874 14.4666C70.874 19.0251 68.5934 23.2386 64.9055 25.7612C74.1643 28.9931 80.4415 37.6956 80.4415 47.697V49.0626H78.4363V47.6942C78.4363 37.8041 71.7223 29.3046 62.1075 27.0239C61.6903 26.9238 61.3816 26.5706 61.3427 26.1451C61.301 25.7167 61.5402 25.3107 61.9323 25.1382C66.1459 23.2581 68.8688 19.0696 68.8688 14.4666C68.8688 8.02521 63.6289 2.78256 57.1875 2.78256C50.7461 2.78256 45.5063 8.02243 45.5063 14.4666C45.5063 15.9573 45.7816 17.4036 46.3267 18.772C50.9686 20.9664 54.1865 25.6917 54.1865 31.1541C54.1865 33.7601 53.4495 36.2938 52.0561 38.4771C50.6043 40.7605 48.5267 42.5517 46.0569 43.653L45.242 41.8257C47.3558 40.8857 49.1247 39.356 50.3679 37.4036C51.5555 35.5373 52.1813 33.3791 52.1813 31.1541C52.1813 24.7127 46.9414 19.4701 40.5 19.4701C34.0586 19.4701 28.8188 24.7099 28.8188 31.1541C28.8188 35.7598 31.5444 39.9484 35.7607 41.823C36.1529 41.9982 36.3893 42.4042 36.3504 42.8326C36.3114 43.2581 36.0027 43.6141 35.5855 43.7114C25.968 45.9921 19.2512 54.4804 19.2512 64.3594C19.2512 64.3594 19.2512 85.2188 19.2512 85.2188Z" fill="white"/>
</svg>
