<svg width="17" height="25" viewBox="0 0 17 25" fill="none" xmlns="http://www.w3.org/2000/svg">
<path d="M14.4062 10.8125V13.3438C14.4062 14.9102 13.784 16.4125 12.6763 17.5201C11.5687 18.6277 10.0664 19.25 8.5 19.25C6.93357 19.25 5.43129 18.6277 4.32365 17.5201C3.21601 16.4125 2.59375 14.9102 2.59375 13.3438V10.8125H0.90625V13.3438C0.907136 15.211 1.59598 17.0125 2.84115 18.404C4.08633 19.7955 5.80054 20.6794 7.65625 20.8869V22.625H4.28125V24.3125H12.7188V22.625H9.34375V20.8869C11.1995 20.6794 12.9137 19.7955 14.1588 18.404C15.404 17.0125 16.0929 15.211 16.0938 13.3438V10.8125H14.4062Z" fill="white"/>
<path d="M8.5 17.5625C9.61888 17.5625 10.6919 17.118 11.4831 16.3269C12.2743 15.5357 12.7188 14.4626 12.7188 13.3438V4.90625C12.7188 3.78737 12.2743 2.71431 11.4831 1.92314C10.6919 1.13197 9.61888 0.6875 8.5 0.6875C7.38112 0.6875 6.30806 1.13197 5.51689 1.92314C4.72572 2.71431 4.28125 3.78737 4.28125 4.90625V13.3438C4.28125 14.4626 4.72572 15.5357 5.51689 16.3269C6.30806 17.118 7.38112 17.5625 8.5 17.5625Z" fill="white"/>
</svg>
