<svg width="13" height="12" viewBox="0 0 13 12" fill="none" xmlns="http://www.w3.org/2000/svg">
<path d="M12.7249 5.555L1.72494 0.0550032C1.63873 0.0118866 1.54189 -0.00538936 1.44608 0.00525571C1.35028 0.0159008 1.25959 0.0540129 1.18494 0.115003C1.11365 0.174749 1.06045 0.253196 1.0313 0.341525C1.00215 0.429854 0.998216 0.524562 1.01994 0.615003L2.49994 6L0.999942 11.37C0.979555 11.4455 0.977176 11.5248 0.992994 11.6014C1.00881 11.678 1.04239 11.7499 1.09102 11.8111C1.13965 11.8724 1.20199 11.9214 1.27301 11.9542C1.34403 11.987 1.42176 12.0027 1.49994 12C1.57821 11.9995 1.65528 11.9807 1.72494 11.945L12.7249 6.445C12.8068 6.40304 12.8756 6.3393 12.9236 6.26078C12.9716 6.18226 12.997 6.09203 12.997 6C12.997 5.90798 12.9716 5.81774 12.9236 5.73923C12.8756 5.66071 12.8068 5.59696 12.7249 5.555ZM2.27494 10.555L3.37994 6.5H7.99994V5.5H3.37994L2.27494 1.445L11.3799 6L2.27494 10.555Z" fill="url(#paint0_linear_825_225)" style="mix-blend-mode:multiply"/>
<defs>
<linearGradient id="paint0_linear_825_225" x1="6.98981" y1="0.00219727" x2="6.98981" y2="12.0003" gradientUnits="userSpaceOnUse">
<stop stop-color="white"/>
<stop offset="1" stop-color="white" stop-opacity="0"/>
</linearGradient>
</defs>
</svg>
