<svg width="951" height="397" viewBox="0 0 951 397" fill="none" xmlns="http://www.w3.org/2000/svg">
<path d="M926.812 292.794C865.945 293.138 822.012 305.904 792.956 317.657C763.574 329.542 741.999 343.411 704.13 348.819C662.356 354.851 635.855 348.623 625.427 345.469C610.969 341.09 612.055 338.963 588.576 329.589C543.475 311.58 534.194 317.303 514.228 306.14C481.122 287.636 493.235 264.417 459.393 234.977C434.886 213.65 393.017 194.936 353.23 202.544C315.762 209.711 309.671 234.57 270.795 235.133C254.826 235.365 241.895 231.077 216.041 222.503C182.902 211.557 161.014 199.539 152.209 195.229C126.126 182.447 83.2053 172.337 10.6446 187.906" stroke="url(#paint0_angular_130_2574)" stroke-width="0.5" stroke-miterlimit="10"/>
<path d="M927.853 284.681C869.017 284.487 824.149 295.648 792.515 307.71C766.804 317.671 746.886 329.235 720.111 336.521C714.255 338.108 708.1 339.606 701.504 340.801C659.94 348.318 633.355 344.47 622.285 342.52C607.438 339.913 607.566 338.27 584.551 329.145C568.33 322.724 556.721 318.874 547.702 316.238C532.369 311.763 524.584 310.933 512.773 303.704C508.365 301.026 504.28 297.849 500.599 294.236C483.572 277.534 485.859 258.222 457.238 235.329C432.325 215.401 390.599 198.547 351.482 206.133C348.383 206.736 345.316 207.495 342.294 208.408C311.791 217.632 303.561 237.401 269.387 237.941C265.786 238.003 262.184 237.824 258.606 237.407C246.58 236.041 234.349 232.059 214.988 225.644C182.915 214.968 161.363 203.171 151.655 198.409C144.542 194.949 137.151 192.092 129.56 189.868C103.3 182.097 65.5985 178.563 11.3632 188.937" stroke="url(#paint1_angular_130_2574)" stroke-width="0.5" stroke-miterlimit="10"/>
<path d="M928.951 275.849C872.152 275.135 826.314 284.567 792.124 297.117C764.973 307.077 744.125 319.247 717.794 327.041C711.783 328.829 705.558 330.629 698.914 332.071C657.559 341.081 630.861 340.476 619.17 338.859C604.108 336.755 603.088 336.852 580.573 327.989C564.809 321.771 553.279 317.5 544.469 314.444C529.624 309.32 522.401 307.957 511.403 300.55C507.214 297.702 503.323 294.438 499.788 290.81C483.373 274.257 483.925 255.981 455.123 234.932C429.803 216.412 388.22 201.417 349.774 208.982C346.516 209.657 343.498 210.351 340.651 211.243C309.199 220.607 300.932 239.425 268.013 239.952C264.44 240.024 260.865 239.86 257.313 239.461C245.078 238.145 232.859 234.247 213.974 227.915C182.956 217.544 161.76 205.942 151.132 200.821C144.076 197.392 136.756 194.535 129.243 192.277C103.232 184.396 65.7558 180.238 12.1592 189.213" stroke="url(#paint2_angular_130_2574)" stroke-width="0.5" stroke-miterlimit="10"/>
<path d="M930.086 266.415C875.328 265.145 828.538 272.97 791.774 285.877C763.215 295.913 741.413 308.64 715.542 316.953C709.367 318.942 703.064 321.033 696.391 322.733C655.246 333.218 628.624 334.013 616.121 334.598C600.653 335.315 598.674 334.836 576.65 326.234C561.325 320.236 549.874 315.535 541.227 312.055C526.878 306.291 520.199 304.376 510.014 296.8C506.079 293.779 502.406 290.432 499.033 286.794C483.227 270.4 481.989 253.163 453.08 233.973C427.315 216.859 385.913 203.718 348.137 211.27C344.907 211.947 341.908 212.642 339.081 213.508C306.695 223.06 298.365 240.888 266.713 241.495C263.164 241.578 259.613 241.428 256.083 241.047C243.64 239.788 231.398 235.954 213.013 229.754C183.066 219.699 162.208 208.299 150.675 202.746C143.66 199.363 136.402 196.509 128.962 194.206C103.202 186.214 65.9513 181.424 13.0018 189.009" stroke="url(#paint3_angular_130_2574)" stroke-width="0.5" stroke-miterlimit="10"/>
<path d="M931.232 256.963C878.504 255.156 830.781 261.356 791.434 274.628C761.456 284.748 738.709 298.043 713.283 306.855C706.953 309.046 700.579 311.438 693.859 313.385C652.926 325.317 626.368 328.393 613.064 330.309C597.345 332.577 594.291 332.794 572.72 324.451C557.798 318.642 546.481 313.542 538.014 309.667C524.159 303.273 518.036 300.789 508.652 293.053C504.978 289.866 501.521 286.437 498.305 282.789C483.099 266.572 480.07 250.366 451.048 232.979C424.839 217.279 383.628 205.983 346.513 213.512C343.32 214.192 340.339 214.889 337.523 215.737C304.194 225.466 295.828 242.214 265.429 242.955C261.904 243.035 258.378 242.9 254.87 242.55C242.237 241.342 230.026 237.584 212.068 231.511C183.176 221.751 162.664 210.546 150.225 204.587C143.259 201.236 136.066 198.381 128.698 196.043C103.179 187.931 66.1532 182.526 13.8431 188.703" stroke="url(#paint4_angular_130_2574)" stroke-width="0.5" stroke-miterlimit="10"/>
<path d="M932.096 250.881C881.398 248.535 832.735 253.101 790.814 266.739C759.426 276.954 735.722 290.842 710.743 300.117C704.266 302.519 697.807 305.174 691.047 307.397C650.345 320.777 623.826 326.086 609.754 329.401C593.78 333.153 589.587 334.136 568.536 326.047C556.911 321.568 545.56 316.408 534.541 310.595C521.153 303.578 515.605 300.507 507.048 292.658C503.313 289.218 500.415 285.638 497.251 282.13C482.641 266.127 477.819 250.887 448.708 235.351C422.026 221.073 381.024 211.614 344.58 219.121C341.414 219.803 338.452 220.501 335.656 221.333C301.377 231.21 292.962 247.034 263.826 247.782C260.329 247.865 256.831 247.741 253.348 247.41C240.509 246.233 228.308 242.578 210.84 236.664C183.009 227.229 162.837 216.198 149.5 209.835C142.578 206.517 135.442 203.664 128.14 201.295C102.872 193.063 66.0811 187.026 14.4089 191.813" stroke="url(#paint5_angular_130_2574)" stroke-width="0.5" stroke-miterlimit="10"/>
<path d="M932.861 246.556C884.201 243.69 834.595 246.631 790.093 260.617C757.295 270.926 732.651 285.428 708.105 295.099C701.472 297.722 694.945 300.65 688.137 303.129C647.622 317.927 621.135 325.458 606.301 330.191C590.103 335.384 584.779 337.18 564.209 329.352C552.683 324.965 541.552 319.603 530.937 313.324C518.052 305.705 513.044 302.025 505.3 293.99C501.861 290.442 499.223 286.743 496.09 283.201C482.073 267.337 475.434 253.238 446.261 239.452C419.086 226.613 378.304 218.973 342.53 226.467C339.401 227.152 336.467 227.853 333.672 228.666C298.445 238.665 289.956 253.535 262.122 254.272C258.649 254.367 255.174 254.258 251.715 253.944C238.685 252.816 226.478 249.245 209.495 243.424C182.728 234.286 162.902 223.459 148.651 216.672C141.776 213.393 134.704 210.542 127.476 208.136C102.45 199.784 65.885 193.114 14.85 196.52" stroke="url(#paint6_angular_130_2574)" stroke-width="0.5" stroke-miterlimit="10"/>
<path d="M933.603 242.164C886.983 238.742 836.452 240.097 789.349 254.427C755.149 264.841 729.574 279.977 705.457 290.099C698.666 292.96 692.053 296.16 685.208 298.878C644.899 315.076 618.427 324.791 602.856 331.009C586.335 337.599 579.97 340.242 559.89 332.675C548.447 328.331 537.526 322.718 527.333 315.941C514.967 307.74 510.492 303.415 503.548 295.256C500.433 291.594 498.035 287.803 494.944 284.199C481.505 268.538 473.028 255.502 443.809 243.488C416.131 232.105 375.598 226.278 340.522 233.743C337.422 234.43 334.506 235.132 331.73 235.937C295.551 246.122 287.054 260.016 260.44 260.83C256.995 260.927 253.547 260.832 250.113 260.545C236.872 259.512 224.68 255.979 208.181 250.27C182.466 241.456 162.998 230.805 147.83 223.621C141.002 220.369 133.991 217.515 126.833 215.072C102.055 206.637 65.7157 199.335 15.3301 201.323" stroke="url(#paint7_angular_130_2574)" stroke-width="0.5" stroke-miterlimit="10"/>
<path d="M934.355 237.754C889.766 233.794 838.301 233.543 788.616 248.22C753.006 258.737 726.497 274.516 702.805 285.033C695.877 288.107 689.17 291.551 682.292 294.582C642.181 312.179 615.705 324.078 599.405 331.78C582.581 339.758 575.163 343.268 555.565 335.961C544.207 331.664 533.494 325.827 523.725 318.614C511.804 309.816 507.946 304.852 501.801 296.569C499.003 292.783 496.824 288.916 493.784 285.251C480.925 269.784 470.625 257.842 441.364 247.571C413.16 237.67 372.889 233.619 338.455 241.069C335.382 241.759 332.485 242.462 329.73 243.241C292.593 253.546 284.067 266.509 258.704 267.365C255.283 267.465 251.86 267.384 248.448 267.122C235.007 266.158 222.783 262.678 206.784 257.101C182.142 248.593 163.012 238.127 146.938 230.538C140.16 227.308 133.213 224.444 126.129 221.957C101.595 213.374 65.4784 205.476 15.7314 206.065" stroke="url(#paint8_angular_130_2574)" stroke-width="0.5" stroke-miterlimit="10"/>
<path d="M935.106 233.363C892.545 228.892 840.127 227.043 787.861 242.058C750.802 252.685 723.416 269.12 700.131 280.013C693.054 283.325 686.264 287.013 679.346 290.301C639.444 309.272 612.957 323.343 595.933 332.578C578.773 341.895 570.328 346.309 551.22 339.264C539.942 334.984 529.435 328.9 520.11 321.249C508.67 311.885 505.394 306.241 500.048 297.844C497.566 293.935 495.634 290.003 492.59 286.263C480.292 270.998 468.146 260.203 438.865 251.621C410.136 243.222 370.136 240.929 336.363 248.357C333.327 249.049 330.448 249.753 327.708 250.469C289.623 260.904 281.058 272.935 256.965 273.816C253.563 273.937 250.157 273.869 246.762 273.615C233.126 272.644 220.938 269.306 205.372 263.884C181.793 255.682 163.012 245.401 146.022 237.406C139.884 234.512 133.06 231.592 125.387 228.857C101.103 220.163 65.212 211.633 16.1121 210.832" stroke="url(#paint9_angular_130_2574)" stroke-width="0.5" stroke-miterlimit="10"/>
<path d="M935.848 229.101C895.363 224.086 842.002 220.63 787.138 235.972C748.713 246.716 720.373 263.819 697.488 275.078C690.271 278.631 683.388 282.553 676.43 286.117C636.7 306.457 610.184 322.69 592.502 333.453C575.001 344.165 565.542 349.429 546.915 342.644C535.704 338.379 525.39 332.054 516.505 323.997C505.528 314.055 502.91 307.729 498.305 299.232C496.139 295.198 494.435 291.192 491.471 287.393C479.731 272.348 465.754 262.646 436.459 255.791C407.163 248.936 367.465 248.367 334.364 255.772C331.356 256.466 328.495 257.172 325.773 257.889C286.73 268.454 278.126 279.554 255.267 280.465C251.898 280.595 248.526 280.539 245.163 280.3C231.299 279.395 219.143 276.124 204.099 270.799C181.573 262.911 163.15 252.807 145.243 244.415C139.131 241.541 132.363 238.635 124.785 235.861C100.751 227.057 65.0853 217.903 16.6249 215.694" stroke="url(#paint10_angular_130_2574)" stroke-width="0.5" stroke-miterlimit="10"/>
<path d="M936.575 224.893C898.094 219.319 843.843 214.299 786.38 229.958C746.518 240.785 717.314 258.611 694.83 270.198C687.464 273.999 680.489 278.146 673.473 281.984C633.932 303.705 607.38 322.072 589.045 334.419C571.174 346.422 560.683 352.645 542.612 346.117C530.613 341.782 520.023 333.923 512.911 326.838C502.387 316.337 500.343 309.303 496.564 300.712C494.732 296.556 493.248 292.474 490.336 288.605C479.144 273.797 463.359 265.237 434.035 260.061C404.228 254.773 364.779 255.896 332.348 263.279C329.376 263.976 326.534 264.684 323.821 265.401C283.83 276.106 275.196 286.274 253.617 287.211C250.273 287.348 246.924 287.307 243.584 287.088C229.537 286.262 217.376 283.047 202.761 277.838C181.298 270.256 163.25 260.339 144.427 251.542C138.341 248.698 131.628 245.787 124.154 242.993C100.362 234.068 64.9216 224.291 17.1069 220.711" stroke="url(#paint11_angular_130_2574)" stroke-width="0.5" stroke-miterlimit="10"/>
<path d="M937.308 220.742C900.858 214.62 845.707 208.136 785.627 224.01C744.419 235.066 714.26 253.468 692.157 265.409C684.659 269.47 677.565 273.831 670.546 277.947C631.162 300.99 604.558 321.564 585.576 335.421C567.323 348.75 555.906 355.887 538.242 349.623C526.664 345.487 516.158 337.263 509.259 329.712C499.187 318.651 497.82 310.927 494.773 302.226C493.249 297.946 492.002 293.807 489.132 289.868C478.492 275.252 460.867 267.894 431.53 264.315C401.161 260.619 362.01 263.409 330.249 270.779C327.302 271.473 324.482 272.182 321.787 272.907C280.83 283.722 272.165 292.977 251.847 293.938C248.531 294.088 245.208 294.062 241.895 293.859C227.648 293.092 215.482 289.941 201.34 284.862C180.948 277.596 163.233 267.816 143.483 258.649C137.423 255.817 130.774 252.929 123.386 250.105C99.8445 241.06 64.6293 230.659 17.4547 225.661" stroke="url(#paint12_angular_130_2574)" stroke-width="0.5" stroke-miterlimit="10"/>
<path d="M938.035 216.656C903.624 210.005 847.53 201.915 784.869 218.126C742.25 229.285 711.188 248.416 689.48 260.658C681.852 264.959 674.666 269.554 667.597 273.945C628.378 298.329 601.68 321.07 582.111 336.498C563.456 351.161 551.074 359.244 533.938 353.235C522.771 349.308 512.34 340.71 505.674 332.674C496.036 321.053 495.347 312.62 493.06 303.821C491.899 299.41 490.825 295.202 488.015 291.202C477.85 276.809 458.467 269.723 429.052 268.683C398.128 267.591 359.269 271.036 328.169 278.384C325.254 279.079 322.455 279.79 319.772 280.516C277.844 291.386 269.162 299.794 250.106 300.779C246.814 300.935 243.516 300.919 240.225 300.733C225.78 300.015 213.58 296.946 199.955 292.019C180.667 285.015 163.267 275.362 142.605 265.845C136.573 263.034 129.979 260.151 122.695 257.297C99.3952 248.132 64.4052 237.108 17.8785 230.711" stroke="url(#paint13_angular_130_2574)" stroke-width="0.5" stroke-miterlimit="10"/>
<path d="M938.796 212.618C906.413 205.448 849.387 195.733 784.144 212.291C740.114 223.554 708.207 243.408 686.843 255.993C679.056 260.551 671.779 265.353 664.686 270.058C625.611 295.81 598.887 320.667 578.666 337.669C559.574 353.646 546.212 362.618 529.548 356.878C518.801 353.16 508.445 344.196 502.003 335.676C492.797 323.513 492.813 314.373 491.231 305.48C490.414 300.939 489.53 296.671 486.774 292.591C477.194 278.43 455.992 273.469 426.58 273.108C395.194 272.695 356.542 278.72 326.113 286.045C323.271 286.753 320.429 287.46 317.781 288.183C274.904 299.192 266.173 306.677 248.379 307.677C245.114 307.846 241.843 307.845 238.578 307.674C223.933 307.015 211.774 304.014 198.587 299.195C180.312 292.54 163.294 283.121 141.729 273.153C135.713 270.362 129.162 267.528 121.958 264.598C98.9053 255.368 64.1347 243.673 18.2928 235.881" stroke="url(#paint14_angular_130_2574)" stroke-width="0.5" stroke-miterlimit="10"/>
<path d="M939.47 208.62C909.128 200.894 851.176 189.593 783.334 206.487C737.856 217.851 705.126 238.477 684.149 251.342C676.267 256.172 668.835 261.166 661.722 266.13C622.746 293.115 596.001 320.274 575.231 338.832C555.744 356.18 541.476 366.048 525.23 360.545C514.904 357.037 504.604 347.705 498.394 338.712C489.616 325.95 490.352 316.16 489.475 307.155C489.031 302.475 488.318 298.156 485.623 294.007C476.565 280.071 453.553 276.382 424.134 277.553C392.239 278.781 353.824 286.423 324.074 293.736C321.231 294.444 318.454 295.156 315.812 295.805C271.976 306.953 263.222 313.544 246.681 314.568C243.419 314.731 240.151 314.724 236.891 314.547C223.305 314.001 209.901 311.23 197.212 306.344C180.001 299.994 163.33 290.761 140.849 280.386C134.859 277.625 128.374 274.769 121.292 271.838C88.1659 258.317 53.827 247.984 18.7407 240.979" stroke="url(#paint15_angular_130_2574)" stroke-width="0.5" stroke-miterlimit="10"/>
<path d="M940.188 204.654C911.876 196.389 852.99 183.482 782.566 200.723C735.714 212.193 702.102 233.531 681.435 246.718C589.699 305.309 556.583 376.154 520.844 364.254C510.938 360.954 500.695 351.256 494.727 341.779C481.979 321.555 492.085 307.758 484.404 295.454C465.576 265.28 368.39 289.76 313.77 303.514C260.515 316.928 258.156 322.402 235.258 321.545C195.287 320.073 175.823 302.455 120.581 279.159C87.7318 265.361 53.7898 254.325 19.1075 246.163" stroke="url(#paint16_angular_130_2574)" stroke-width="0.5" stroke-miterlimit="10"/>
<path d="M940.394 202.013C911.359 193.125 854.264 181.083 786.935 197.589C740.458 209.024 708.176 230.697 686.018 244.53C597.511 299.713 566.196 364.511 529.532 355.651C515.207 352.193 500.843 346.381 491.677 338.476C473.668 322.932 481.749 310.919 471.545 298.817C449.208 272.308 358.722 293.057 306.766 305.532C256.15 317.74 253.802 322.128 229.746 319.323C189.772 314.663 171.107 298.957 119.094 276.674C86.6416 262.778 52.9534 251.967 18.4749 244.386" stroke="url(#paint17_angular_130_2574)" stroke-width="0.5" stroke-miterlimit="10"/>
<path d="M940.608 199.261C892.216 184.075 840.597 182.378 791.312 194.354C745.21 205.743 714.312 227.776 690.61 242.24C605.43 294.18 575.375 353.893 538.219 346.945C519.366 343.413 501.53 341.502 488.636 335.062C466.512 324.046 471.762 314.144 458.694 302.07C433.727 279.025 349.062 296.252 299.761 307.448C251.868 318.456 249.513 321.849 224.232 316.998C184.343 309.353 166.407 295.265 117.615 274.078C85.5691 260.092 52.1437 249.508 17.8881 242.501" stroke="url(#paint18_angular_130_2574)" stroke-width="0.5" stroke-miterlimit="10"/>
<path d="M940.99 194.367C894.043 179.157 843.793 177.29 795.847 188.976C750.128 200.33 720.605 222.72 695.368 237.809C613.673 286.639 584.953 334.713 547.082 336.098C523.39 336.963 502.71 334.236 485.752 329.513C460.129 322.387 462.21 315.238 446 303.189C419.166 283.241 339.558 297.211 292.932 307.222C247.695 316.932 245.422 319.514 218.895 312.54C179.095 302.079 161.881 289.449 116.293 269.349C84.6507 255.258 51.4771 244.896 17.4405 238.471" stroke="url(#paint19_angular_130_2574)" stroke-width="0.5" stroke-miterlimit="10"/>
<path d="M941.571 186.916C896.073 171.687 847.191 169.66 800.588 181.068C755.243 192.396 727.105 215.145 700.324 230.847C622.161 276.673 594.072 319.994 556.133 322.721C527.948 324.74 502.849 329.23 483.075 321.436C455.865 310.712 454.868 310.039 433.513 301.778C408.762 279.773 330.259 295.668 286.291 304.465C243.732 312.944 241.531 314.723 213.746 305.543C174.051 292.424 157.564 281.068 115.177 262.09C83.9373 247.899 51.0107 237.76 17.1989 231.921" stroke="url(#paint20_angular_130_2574)" stroke-width="0.5" stroke-miterlimit="10"/>
<path d="M942.166 179.288C898.119 164.035 850.606 161.82 805.331 172.91C760.361 184.192 733.613 207.329 705.28 223.634C630.717 266.554 603.244 305.539 565.25 309.097C532.496 312.154 504.918 318.903 480.399 313.099C448.784 305.617 445.796 307.353 421.028 300.108C394.813 280.199 320.982 293.95 279.716 301.462C239.835 308.711 237.69 309.779 208.662 298.3C169.007 282.647 153.315 272.422 114.118 254.585C83.2794 240.292 50.5954 230.376 17.0135 225.125" stroke="url(#paint21_angular_130_2574)" stroke-width="0.5" stroke-miterlimit="10"/>
<path d="M942.772 171.514C900.185 156.26 854.051 153.874 810.118 164.653C765.522 175.9 740.184 199.425 710.282 216.323C639.339 256.413 612.466 291.282 574.291 295.366C537.072 299.347 506.966 302.648 477.768 304.672C441.714 307.174 436.769 304.587 408.587 298.348C380.866 280.477 311.716 292.095 273.065 298.352C235.863 304.369 233.769 304.782 203.503 290.949C163.963 272.871 149.012 263.632 113.031 246.966C82.5905 232.576 50.1451 222.882 16.7998 218.216" stroke="url(#paint22_angular_130_2574)" stroke-width="0.5" stroke-miterlimit="10"/>
<path d="M943.387 163.637C909.785 151.012 863.628 144.04 814.886 156.283C770.644 167.399 746.744 191.426 715.273 208.899C648.01 246.239 621.698 277.129 583.388 281.527C541.618 286.315 508.284 291.584 475.117 296.132C435.395 301.591 426.437 306.866 396.126 296.475C364.72 285.712 302.461 290.1 266.469 295.134C231.946 299.93 229.882 299.713 198.399 283.499C158.838 263.07 144.755 254.716 111.905 239.242C91.4838 229.623 60.5518 216.713 16.548 211.201" stroke="url(#paint23_angular_130_2574)" stroke-width="0.5" stroke-miterlimit="10"/>
<path d="M944.012 155.622C909.649 142.389 865.321 136.266 819.673 147.784C775.807 158.856 753.331 183.328 720.275 201.346C656.733 235.994 631.068 263.005 592.485 267.558C546.166 273.032 509.533 280.329 472.486 287.464C428.997 295.843 417.675 303.915 383.685 294.474C351.289 285.445 293.219 288.051 259.874 291.786C228.01 295.359 225.911 294.638 193.296 275.911C153.709 253.194 140.531 245.636 110.836 231.392C90.7234 221.741 60.2624 208.868 16.353 204.051" stroke="url(#paint24_angular_130_2574)" stroke-width="0.5" stroke-miterlimit="10"/>
<path d="M944.644 147.515C909.496 133.626 867.021 128.4 824.469 139.184C780.978 150.21 759.943 175.139 725.285 193.692C665.488 225.706 640.438 248.872 601.599 253.489C550.692 259.543 510.746 268.941 469.863 278.694C422.533 289.979 408.927 300.651 371.252 292.371C337.824 285.026 283.989 285.854 253.297 288.338C224.146 290.71 221.948 289.47 188.21 268.222C148.539 243.25 136.325 236.427 109.775 223.441C89.9626 213.748 59.9938 200.877 16.1653 196.809" stroke="url(#paint25_angular_130_2574)" stroke-width="0.5" stroke-miterlimit="10"/>
<path d="M945.285 139.288C909.412 124.813 868.721 120.423 829.273 130.473C786.156 141.464 766.579 166.878 730.303 185.927C674.284 215.355 650.127 239.232 610.713 239.308C554.835 239.419 511.941 257.431 467.248 269.813C416.042 283.991 397.525 306.181 358.828 290.157C326.504 276.74 274.8 283.605 246.718 284.778C220.264 285.92 217.963 284.226 183.123 260.43C143.337 233.239 132.15 227.071 108.722 215.379C89.2202 205.636 59.723 192.792 15.9869 189.446" stroke="url(#paint26_angular_130_2574)" stroke-width="0.5" stroke-miterlimit="10"/>
<path d="M945.948 130.793C909.315 115.692 870.45 112.197 834.093 121.438C791.36 132.394 773.256 158.332 735.346 177.838C683.084 204.726 659.583 224.112 619.861 224.804C559.393 225.877 513.125 245.586 464.649 260.609C409.53 277.677 389.599 301.308 346.419 287.62C312.169 276.755 265.577 280.962 240.174 280.895C216.406 280.835 213.926 278.69 178.071 252.307C138.122 222.92 128.001 217.365 107.685 206.992C88.5039 197.192 59.4769 184.393 15.8238 181.769" stroke="url(#paint27_angular_130_2574)" stroke-width="0.5" stroke-miterlimit="10"/>
<path d="M946.652 121.762C909.269 106.036 872.232 103.399 838.956 111.97C796.597 122.89 779.992 149.39 740.423 169.316C692.017 193.699 669.082 208.558 629.034 209.866C563.95 211.99 514.325 233.296 462.094 250.962C403.013 270.945 381.517 295.475 334.054 284.64C297.964 276.4 256.43 277.936 233.655 276.578C212.59 275.325 209.903 272.738 173.044 243.749C132.911 212.183 123.871 207.186 106.692 198.164C87.8334 188.277 59.2191 175.548 15.7045 173.65" stroke="url(#paint28_angular_130_2574)" stroke-width="0.5" stroke-miterlimit="10"/>
<path d="M947.368 112.574C909.227 96.2226 874.016 94.4615 843.835 102.29C801.85 113.183 786.767 140.304 745.517 160.581C700.935 182.503 678.625 192.812 638.232 194.716C568.562 197.997 515.522 220.802 459.555 241.111C396.457 263.996 373.268 289.035 321.705 281.456C283.865 275.895 247.289 274.724 227.162 272.049C208.808 269.624 205.866 266.607 168.042 234.98C127.67 201.24 119.856 196.729 105.716 189.123C87.2002 179.123 59.0802 166.488 15.6017 165.318" stroke="url(#paint29_angular_130_2574)" stroke-width="0.5" stroke-miterlimit="10"/>
<path d="M948.148 102.574C909.246 85.6057 875.886 84.7693 848.778 91.8059C807.187 102.758 793.645 130.491 750.674 151.043C709.932 170.533 688.238 176.274 647.484 178.762C573.258 183.295 516.764 207.493 457.116 230.461C390.075 256.252 365.012 277.569 309.456 277.473C269.868 277.395 238.256 270.712 220.758 266.719C205.087 263.137 201.892 259.674 163.13 225.418C122.511 189.494 115.91 185.505 104.837 179.3C86.6978 169.125 58.984 156.643 15.5978 156.195" stroke="url(#paint30_angular_130_2574)" stroke-width="0.5" stroke-miterlimit="10"/>
<path d="M948.92 92.6756C909.268 75.0819 877.726 75.1119 853.704 81.4137C812.497 92.3303 800.563 120.877 755.823 141.597C718.929 158.684 697.862 159.838 656.739 162.901C577.958 168.77 517.99 194.286 454.587 219.887C383.519 248.597 356.117 271.663 297.117 273.565C256.14 274.866 229.11 266.841 214.284 261.476C201.284 256.746 197.807 252.852 158.147 215.935C117.232 177.851 111.915 174.306 103.87 169.545C86.1806 159.08 58.8067 146.884 15.5037 147.158" stroke="url(#paint31_angular_130_2574)" stroke-width="0.5" stroke-miterlimit="10"/>
<path d="M949.693 82.7678C909.308 64.5596 879.512 65.441 858.639 71.0223C817.843 81.9059 807.534 111.415 760.973 132.152C727.923 146.872 707.496 143.403 665.983 147.04C582.687 154.34 519.202 181.114 452.103 209.325C377.009 240.945 347.192 265.793 284.824 269.671C242.302 272.31 219.97 263.016 207.836 256.236C197.483 250.449 193.767 246.044 153.192 206.454C111.972 166.2 107.988 163.075 102.948 159.802C85.9103 148.728 58.6764 137.119 15.4564 138.115" stroke="url(#paint32_angular_130_2574)" stroke-width="0.5" stroke-miterlimit="10"/>
<defs>
<radialGradient id="paint0_angular_130_2574" cx="0" cy="0" r="1" gradientUnits="userSpaceOnUse" gradientTransform="translate(466.264 271.944) rotate(-85.541) scale(63.9015 460.774)">
<stop offset="0.3125" stop-color="#0F62FE"/>
<stop offset="0.848958" stop-color="#B3BAC8" stop-opacity="0"/>
</radialGradient>
<radialGradient id="paint1_angular_130_2574" cx="0" cy="0" r="1" gradientUnits="userSpaceOnUse" gradientTransform="translate(466.918 271.311) rotate(-85.541) scale(59.74 460.58)">
<stop offset="0.3125" stop-color="#0F62FE"/>
<stop offset="0.848958" stop-color="#B3BAC8" stop-opacity="0"/>
</radialGradient>
<radialGradient id="paint2_angular_130_2574" cx="0" cy="0" r="1" gradientUnits="userSpaceOnUse" gradientTransform="translate(467.581 270.665) rotate(-85.541) scale(56.3473 460.376)">
<stop offset="0.3125" stop-color="#0F62FE"/>
<stop offset="0.848958" stop-color="#B3BAC8" stop-opacity="0"/>
</radialGradient>
<radialGradient id="paint3_angular_130_2574" cx="0" cy="0" r="1" gradientUnits="userSpaceOnUse" gradientTransform="translate(468.246 270.006) rotate(-85.541) scale(53.912 460.163)">
<stop offset="0.3125" stop-color="#0F62FE"/>
<stop offset="0.848958" stop-color="#B3BAC8" stop-opacity="0"/>
</radialGradient>
<radialGradient id="paint4_angular_130_2574" cx="0" cy="0" r="1" gradientUnits="userSpaceOnUse" gradientTransform="translate(468.906 269.401) rotate(-85.541) scale(52.008 459.959)">
<stop offset="0.3125" stop-color="#0F62FE"/>
<stop offset="0.848958" stop-color="#B3BAC8" stop-opacity="0"/>
</radialGradient>
<radialGradient id="paint5_angular_130_2574" cx="0" cy="0" r="1" gradientUnits="userSpaceOnUse" gradientTransform="translate(469.555 268.756) rotate(-85.541) scale(53.7819 459.751)">
<stop offset="0.3125" stop-color="#0F62FE"/>
<stop offset="0.848958" stop-color="#B3BAC8" stop-opacity="0"/>
</radialGradient>
<radialGradient id="paint6_angular_130_2574" cx="0" cy="0" r="1" gradientUnits="userSpaceOnUse" gradientTransform="translate(470.225 268.096) rotate(-85.541) scale(57.443 459.561)">
<stop offset="0.3125" stop-color="#0F62FE"/>
<stop offset="0.848958" stop-color="#B3BAC8" stop-opacity="0"/>
</radialGradient>
<radialGradient id="paint7_angular_130_2574" cx="0" cy="0" r="1" gradientUnits="userSpaceOnUse" gradientTransform="translate(470.9 267.475) rotate(-85.541) scale(61.2076 459.334)">
<stop offset="0.3125" stop-color="#0F62FE"/>
<stop offset="0.848958" stop-color="#B3BAC8" stop-opacity="0"/>
</radialGradient>
<radialGradient id="paint8_angular_130_2574" cx="0" cy="0" r="1" gradientUnits="userSpaceOnUse" gradientTransform="translate(471.539 266.851) rotate(-85.541) scale(65.0299 459.154)">
<stop offset="0.3125" stop-color="#0F62FE"/>
<stop offset="0.848958" stop-color="#B3BAC8" stop-opacity="0"/>
</radialGradient>
<radialGradient id="paint9_angular_130_2574" cx="0" cy="0" r="1" gradientUnits="userSpaceOnUse" gradientTransform="translate(472.17 266.195) rotate(-85.541) scale(68.9721 458.982)">
<stop offset="0.3125" stop-color="#0F62FE"/>
<stop offset="0.848958" stop-color="#B3BAC8" stop-opacity="0"/>
</radialGradient>
<radialGradient id="paint10_angular_130_2574" cx="0" cy="0" r="1" gradientUnits="userSpaceOnUse" gradientTransform="translate(472.869 265.571) rotate(-85.541) scale(73.0332 458.741)">
<stop offset="0.3125" stop-color="#0F62FE"/>
<stop offset="0.848958" stop-color="#B3BAC8" stop-opacity="0"/>
</radialGradient>
<radialGradient id="paint11_angular_130_2574" cx="0" cy="0" r="1" gradientUnits="userSpaceOnUse" gradientTransform="translate(473.555 264.935) rotate(-85.541) scale(77.237 458.505)">
<stop offset="0.3125" stop-color="#0F62FE"/>
<stop offset="0.848958" stop-color="#B3BAC8" stop-opacity="0"/>
</radialGradient>
<radialGradient id="paint12_angular_130_2574" cx="0" cy="0" r="1" gradientUnits="userSpaceOnUse" gradientTransform="translate(474.177 264.285) rotate(-85.541) scale(81.5257 458.343)">
<stop offset="0.3125" stop-color="#0F62FE"/>
<stop offset="0.848958" stop-color="#B3BAC8" stop-opacity="0"/>
</radialGradient>
<radialGradient id="paint13_angular_130_2574" cx="0" cy="0" r="1" gradientUnits="userSpaceOnUse" gradientTransform="translate(474.839 263.66) rotate(-85.541) scale(85.9342 458.139)">
<stop offset="0.3125" stop-color="#0F62FE"/>
<stop offset="0.848958" stop-color="#B3BAC8" stop-opacity="0"/>
</radialGradient>
<radialGradient id="paint14_angular_130_2574" cx="0" cy="0" r="1" gradientUnits="userSpaceOnUse" gradientTransform="translate(475.52 263.029) rotate(-85.541) scale(90.4118 457.954)">
<stop offset="0.3125" stop-color="#0F62FE"/>
<stop offset="0.848958" stop-color="#B3BAC8" stop-opacity="0"/>
</radialGradient>
<radialGradient id="paint15_angular_130_2574" cx="0" cy="0" r="1" gradientUnits="userSpaceOnUse" gradientTransform="translate(476.174 262.386) rotate(-85.541) scale(94.9511 457.713)">
<stop offset="0.3125" stop-color="#0F62FE"/>
<stop offset="0.848958" stop-color="#B3BAC8" stop-opacity="0"/>
</radialGradient>
<radialGradient id="paint16_angular_130_2574" cx="0" cy="0" r="1" gradientUnits="userSpaceOnUse" gradientTransform="translate(476.814 261.747) rotate(-85.541) scale(99.5416 457.533)">
<stop offset="0.3125" stop-color="#0F62FE"/>
<stop offset="0.848958" stop-color="#B3BAC8" stop-opacity="0"/>
</radialGradient>
<radialGradient id="paint17_angular_130_2574" cx="0" cy="0" r="1" gradientUnits="userSpaceOnUse" gradientTransform="translate(476.919 255.461) rotate(-85.541) scale(96.1696 457.917)">
<stop offset="0.3125" stop-color="#0F62FE"/>
<stop offset="0.848958" stop-color="#B3BAC8" stop-opacity="0"/>
</radialGradient>
<radialGradient id="paint18_angular_130_2574" cx="0" cy="0" r="1" gradientUnits="userSpaceOnUse" gradientTransform="translate(477.042 249.174) rotate(-85.541) scale(92.9071 458.283)">
<stop offset="0.3125" stop-color="#0F62FE"/>
<stop offset="0.848958" stop-color="#B3BAC8" stop-opacity="0"/>
</radialGradient>
<radialGradient id="paint19_angular_130_2574" cx="0" cy="0" r="1" gradientUnits="userSpaceOnUse" gradientTransform="translate(477.151 242.886) rotate(-85.541) scale(91.7842 458.663)">
<stop offset="0.3125" stop-color="#0F62FE"/>
<stop offset="0.848958" stop-color="#B3BAC8" stop-opacity="0"/>
</radialGradient>
<radialGradient id="paint20_angular_130_2574" cx="0" cy="0" r="1" gradientUnits="userSpaceOnUse" gradientTransform="translate(477.264 236.624) rotate(-85.541) scale(93.2493 459.038)">
<stop offset="0.3125" stop-color="#0F62FE"/>
<stop offset="0.848958" stop-color="#B3BAC8" stop-opacity="0"/>
</radialGradient>
<radialGradient id="paint21_angular_130_2574" cx="0" cy="0" r="1" gradientUnits="userSpaceOnUse" gradientTransform="translate(477.398 230.314) rotate(-85.541) scale(94.8678 459.394)">
<stop offset="0.3125" stop-color="#0F62FE"/>
<stop offset="0.848958" stop-color="#B3BAC8" stop-opacity="0"/>
</radialGradient>
<radialGradient id="paint22_angular_130_2574" cx="0" cy="0" r="1" gradientUnits="userSpaceOnUse" gradientTransform="translate(477.512 224.027) rotate(-85.541) scale(96.641 459.769)">
<stop offset="0.3125" stop-color="#0F62FE"/>
<stop offset="0.848958" stop-color="#B3BAC8" stop-opacity="0"/>
</radialGradient>
<radialGradient id="paint23_angular_130_2574" cx="0" cy="0" r="1" gradientUnits="userSpaceOnUse" gradientTransform="translate(477.603 217.731) rotate(-85.541) scale(98.5547 460.168)">
<stop offset="0.3125" stop-color="#0F62FE"/>
<stop offset="0.848958" stop-color="#B3BAC8" stop-opacity="0"/>
</radialGradient>
<radialGradient id="paint24_angular_130_2574" cx="0" cy="0" r="1" gradientUnits="userSpaceOnUse" gradientTransform="translate(477.717 211.45) rotate(-85.541) scale(100.57 460.543)">
<stop offset="0.3125" stop-color="#0F62FE"/>
<stop offset="0.848958" stop-color="#B3BAC8" stop-opacity="0"/>
</radialGradient>
<radialGradient id="paint25_angular_130_2574" cx="0" cy="0" r="1" gradientUnits="userSpaceOnUse" gradientTransform="translate(477.831 205.164) rotate(-85.541) scale(102.692 460.918)">
<stop offset="0.3125" stop-color="#0F62FE"/>
<stop offset="0.848958" stop-color="#B3BAC8" stop-opacity="0"/>
</radialGradient>
<radialGradient id="paint26_angular_130_2574" cx="0" cy="0" r="1" gradientUnits="userSpaceOnUse" gradientTransform="translate(477.945 198.876) rotate(-85.541) scale(104.903 461.293)">
<stop offset="0.3125" stop-color="#0F62FE"/>
<stop offset="0.848958" stop-color="#B3BAC8" stop-opacity="0"/>
</radialGradient>
<radialGradient id="paint27_angular_130_2574" cx="0" cy="0" r="1" gradientUnits="userSpaceOnUse" gradientTransform="translate(478.056 192.569) rotate(-85.541) scale(107.378 461.673)">
<stop offset="0.3125" stop-color="#0F62FE"/>
<stop offset="0.848958" stop-color="#B3BAC8" stop-opacity="0"/>
</radialGradient>
<radialGradient id="paint28_angular_130_2574" cx="0" cy="0" r="1" gradientUnits="userSpaceOnUse" gradientTransform="translate(478.168 186.303) rotate(-85.541) scale(110.432 462.048)">
<stop offset="0.3125" stop-color="#0F62FE"/>
<stop offset="0.848958" stop-color="#B3BAC8" stop-opacity="0"/>
</radialGradient>
<radialGradient id="paint29_angular_130_2574" cx="0" cy="0" r="1" gradientUnits="userSpaceOnUse" gradientTransform="translate(478.282 180.016) rotate(-85.541) scale(113.623 462.423)">
<stop offset="0.3125" stop-color="#0F62FE"/>
<stop offset="0.848958" stop-color="#B3BAC8" stop-opacity="0"/>
</radialGradient>
<radialGradient id="paint30_angular_130_2574" cx="0" cy="0" r="1" gradientUnits="userSpaceOnUse" gradientTransform="translate(478.415 173.73) rotate(-85.541) scale(117.602 462.78)">
<stop offset="0.3125" stop-color="#0F62FE"/>
<stop offset="0.848958" stop-color="#B3BAC8" stop-opacity="0"/>
</radialGradient>
<radialGradient id="paint31_angular_130_2574" cx="0" cy="0" r="1" gradientUnits="userSpaceOnUse" gradientTransform="translate(478.506 167.441) rotate(-85.541) scale(121.51 463.178)">
<stop offset="0.3125" stop-color="#0F62FE"/>
<stop offset="0.848958" stop-color="#B3BAC8" stop-opacity="0"/>
</radialGradient>
<radialGradient id="paint32_angular_130_2574" cx="0" cy="0" r="1" gradientUnits="userSpaceOnUse" gradientTransform="translate(478.62 161.154) rotate(-85.541) scale(125.422 463.553)">
<stop offset="0.3125" stop-color="#0F62FE"/>
<stop offset="0.848958" stop-color="#B3BAC8" stop-opacity="0"/>
</radialGradient>
</defs>
</svg>
