<svg width="974" height="498" viewBox="0 0 974 498" fill="none" xmlns="http://www.w3.org/2000/svg">
<path d="M26.1892 278.058C84.7516 261.466 123.678 237.427 148.538 218.339C173.677 199.037 190.763 179.908 225.811 164.58C264.455 147.608 291.657 146.53 302.549 146.784C317.651 147.142 317.173 149.481 342.302 152.242C390.575 157.549 397.99 149.554 420.213 154.977C457.059 163.965 451.589 189.575 492.066 208.905C521.379 222.91 566.726 229.759 603.035 211.798C637.226 194.882 636.455 169.3 673.767 158.371C689.094 153.882 702.701 154.559 729.906 155.916C764.764 157.61 789.067 163.345 798.704 165.146C827.254 170.496 871.315 168.772 937.08 134.385" stroke="url(#paint0_angular_130_2539)" stroke-width="0.5" stroke-miterlimit="10"/>
<path d="M27.3528 286.154C84.1028 270.623 124.358 247.882 151.62 227.807C173.736 211.34 189.841 194.875 213.697 180.701C218.915 177.607 224.447 174.519 230.484 171.605C268.529 153.258 295.176 149.864 306.365 148.786C321.368 147.332 321.683 148.95 346.299 151.595C363.646 153.449 375.862 154.058 385.258 154.188C401.229 154.404 408.953 153.125 422.265 156.936C427.229 158.339 432.014 160.309 436.527 162.807C457.396 174.354 460.352 193.575 494.048 207.99C523.38 220.539 568.092 225.634 603.76 207.873C606.586 206.464 609.338 204.913 612.007 203.226C638.937 186.188 641.587 164.94 674.374 155.29C677.828 154.268 681.347 153.478 684.906 152.925C696.86 151.028 709.71 151.598 730.082 152.607C763.841 154.327 787.761 159.938 798.389 161.933C806.167 163.367 814.053 164.146 821.962 164.262C849.344 164.735 886.619 158.069 936.112 133.583" stroke="url(#paint1_angular_130_2539)" stroke-width="0.5" stroke-miterlimit="10"/>
<path d="M28.6548 294.959C83.5798 280.472 125.232 259.139 154.827 237.91C178.33 221.059 195.17 203.763 218.462 189.218C223.777 185.888 229.295 182.491 235.311 179.326C272.757 159.596 298.646 153.046 310.344 151.482C325.421 149.486 326.378 149.12 350.443 151.645C367.294 153.426 379.546 154.462 388.852 155.054C404.527 156.026 411.852 155.409 424.428 159.609C429.226 161.235 433.847 163.34 438.223 165.893C458.464 177.458 462.815 195.218 496.193 207.808C525.54 218.891 569.617 222.231 604.645 204.671C607.604 203.15 610.327 201.676 612.832 200.055C640.64 182.629 643.58 162.286 675.161 152.985C678.585 151.96 682.074 151.163 685.604 150.599C697.745 148.6 710.561 149.091 730.451 150.148C763.113 151.855 786.638 157.374 798.248 159.469C805.964 160.889 813.781 161.687 821.624 161.855C848.795 162.501 886.02 156.497 935.271 133.53" stroke="url(#paint2_angular_130_2539)" stroke-width="0.5" stroke-miterlimit="10"/>
<path d="M30.0811 304.353C83.1881 290.948 126.188 270.908 158.167 248.649C183.007 231.348 200.617 213.259 223.326 198.337C228.745 194.771 234.261 191.071 240.237 187.651C277.086 166.555 302.528 158.678 314.421 154.773C329.135 149.95 331.17 149.884 354.692 152.289C371.062 153.975 383.352 155.447 392.614 156.49C407.982 158.211 414.93 158.272 426.769 162.851C431.368 164.712 435.802 166.956 440.024 169.561C459.634 181.137 465.433 197.416 498.418 208.185C527.818 217.795 571.226 219.398 605.612 202.029C608.543 200.514 611.248 199.043 613.74 197.453C642.398 179.597 645.662 160.191 676.002 151.151C679.4 150.123 682.862 149.318 686.365 148.743C698.692 146.632 711.514 147.056 730.886 148.119C762.431 149.809 785.577 155.222 798.174 157.493C805.838 158.878 813.595 159.69 821.379 159.922C848.338 160.741 885.515 155.406 934.514 133.951" stroke="url(#paint3_angular_130_2539)" stroke-width="0.5" stroke-miterlimit="10"/>
<path d="M31.5017 313.767C82.7963 301.423 127.128 282.699 161.499 259.398C187.684 241.637 206.053 222.749 228.201 207.465C233.716 203.662 239.219 199.654 245.174 195.983C281.432 173.549 306.203 163.491 318.512 158.09C333.054 151.706 335.939 150.68 358.955 152.958C374.886 154.569 387.154 156.46 396.349 157.932C411.408 160.393 417.973 161.151 429.082 166.099C433.474 168.189 437.721 170.57 441.795 173.226C460.781 184.791 468.029 199.599 500.641 208.601C530.091 216.729 572.823 216.605 606.578 199.435C609.473 197.926 612.159 196.459 614.646 194.889C644.165 176.61 647.753 158.236 676.849 149.4C680.224 148.381 683.658 147.57 687.133 146.97C699.629 144.76 712.4 145.119 731.328 146.174C761.777 147.86 784.537 153.179 798.116 155.598C805.723 156.966 813.418 157.796 821.143 158.08C847.901 159.08 885.026 154.398 933.784 134.471" stroke="url(#paint4_angular_130_2539)" stroke-width="0.5" stroke-miterlimit="10"/>
<path d="M32.2936 319.859C81.7758 308.576 127.451 291.176 164.205 266.834C191.723 248.606 210.856 228.89 232.449 213.279C238.049 209.234 243.564 204.95 249.484 201.002C285.133 177.234 309.269 165.035 321.945 158.081C336.336 150.197 340.113 148.13 362.561 150.301C374.96 151.513 387.277 153.453 399.448 156.111C414.223 159.297 420.39 160.774 430.733 166.051C435.252 168.369 439.001 171.044 442.987 173.579C461.341 185.097 470.059 198.495 502.262 205.69C531.789 212.321 573.828 210.483 606.942 193.513C609.81 192.01 612.478 190.546 614.951 188.998C645.345 170.322 649.227 152.825 677.104 144.321C680.452 143.306 683.856 142.491 687.3 141.88C699.988 139.585 712.722 139.847 731.135 140.88C760.475 142.537 782.861 147.778 797.412 150.347C804.97 151.695 812.608 152.538 820.278 152.87C846.826 154.053 883.893 150.042 932.408 131.625" stroke="url(#paint5_angular_130_2539)" stroke-width="0.5" stroke-miterlimit="10"/>
<path d="M32.7123 324.231C80.3694 313.993 127.386 297.907 166.535 272.542C195.387 253.846 215.261 233.286 236.331 217.41C242.023 213.111 247.53 208.545 253.428 204.338C288.518 179.254 312.031 164.921 325.061 156.397C339.283 147.065 343.933 143.913 365.847 145.961C378.127 147.11 390.285 149.303 402.191 152.518C416.644 156.418 422.453 158.626 432.062 164.301C436.324 166.801 439.854 169.66 443.82 172.237C461.565 183.78 471.73 195.593 503.525 201.084C533.143 206.198 574.483 202.665 606.955 185.886C609.787 184.39 612.428 182.931 614.903 181.401C646.179 162.355 650.387 145.757 677.013 137.611C680.334 136.592 683.712 135.769 687.129 135.147C699.986 132.753 712.704 132.934 730.625 134.006C758.86 135.662 780.858 140.799 796.404 143.532C803.906 144.855 811.482 145.713 819.09 146.1C845.438 147.464 882.456 144.123 930.726 127.207" stroke="url(#paint6_angular_130_2539)" stroke-width="0.5" stroke-miterlimit="10"/>
<path d="M33.1706 328.662C79.0097 319.505 127.343 304.701 168.905 278.307C199.08 259.136 219.683 237.718 240.219 221.521C245.999 216.95 251.516 212.099 257.387 207.652C291.903 181.274 314.818 164.84 328.162 154.688C342.322 143.925 347.75 139.677 369.122 141.605C381.31 142.734 393.333 145.225 404.965 149.033C419.073 153.633 424.541 156.605 433.413 162.613C437.392 165.309 440.716 168.322 444.658 170.969C461.791 182.471 473.443 192.768 504.809 196.54C534.523 200.116 575.139 194.903 606.946 178.339C609.75 176.848 612.373 175.393 614.832 173.875C646.976 154.396 651.452 138.736 676.882 130.842C680.175 129.828 683.523 128.999 686.909 128.358C699.945 125.816 712.638 125.964 730.063 127.057C757.197 128.682 778.803 133.745 795.338 136.616C802.788 137.925 810.306 138.803 817.857 139.245C843.987 140.754 880.957 138.083 928.98 122.707" stroke="url(#paint7_angular_130_2539)" stroke-width="0.5" stroke-miterlimit="10"/>
<path d="M33.6233 333.112C77.65 325.017 127.312 311.51 171.269 284.093C202.777 264.445 224.106 242.158 244.128 225.694C249.983 220.881 255.526 215.771 261.345 211.013C295.297 183.339 317.631 164.801 331.282 153.023C345.363 140.841 351.573 135.477 372.412 137.283C384.504 138.39 396.388 141.153 407.729 145.493C421.566 150.787 426.611 154.541 434.745 160.881C438.453 163.781 441.586 166.926 445.494 169.646C462.018 181.115 475.134 189.872 506.075 191.953C535.899 193.959 575.789 187.104 606.981 170.726C609.758 169.241 612.362 167.79 614.809 166.303C647.843 146.451 652.596 131.681 676.809 124.081C680.078 123.071 683.399 122.235 686.757 121.575C699.967 118.914 712.676 119.002 729.584 120.102C755.603 121.718 776.833 126.693 794.351 129.712C801.745 131.013 809.204 131.918 816.696 132.422C842.631 134.14 879.545 132.102 927.327 118.245" stroke="url(#paint8_angular_130_2539)" stroke-width="0.5" stroke-miterlimit="10"/>
<path d="M34.0725 337.545C76.2815 330.483 127.289 318.262 173.643 289.83C206.517 269.689 228.517 246.535 248.046 229.818C253.981 224.735 259.539 219.367 265.327 214.351C298.711 185.41 320.476 164.774 334.414 151.327C348.462 137.764 355.421 131.255 375.717 132.939C387.728 134.05 399.478 137.107 410.508 141.988C424.034 147.956 428.698 152.52 436.094 159.183C439.53 162.288 442.442 165.56 446.374 168.351C462.304 179.776 476.892 186.934 507.402 187.382C537.33 187.801 576.489 179.324 607.05 163.145C609.79 161.667 612.377 160.219 614.826 158.797C648.739 138.567 653.779 124.685 676.761 117.4C680.007 116.375 683.308 115.53 686.647 114.868C700.047 112.161 712.684 112.121 729.132 113.188C754.045 114.794 774.891 119.683 793.399 122.849C800.087 123.998 807.442 124.989 815.568 125.574C841.292 127.465 878.157 126.098 925.686 113.752" stroke="url(#paint9_angular_130_2539)" stroke-width="0.5" stroke-miterlimit="10"/>
<path d="M34.4969 341.85C74.8498 335.867 127.195 324.942 175.967 295.501C210.125 274.883 232.865 250.83 251.912 233.867C257.917 228.516 263.502 222.897 269.254 217.604C302.107 187.39 323.323 164.663 337.487 149.567C351.491 134.569 359.2 126.97 378.962 128.532C390.905 129.648 402.533 132.987 413.248 138.378C426.482 145.026 430.695 150.422 437.403 157.381C440.567 160.689 443.279 164.095 447.151 166.963C462.483 178.326 478.544 183.941 508.606 182.721C538.668 181.501 577.075 171.444 606.996 155.465C609.709 153.992 612.277 152.548 614.709 151.13C649.51 130.519 654.836 117.524 676.621 110.539C679.833 109.514 683.098 108.666 686.402 107.999C700.004 105.167 712.592 105.071 728.511 106.185C752.326 107.768 772.779 112.584 792.277 115.887C798.934 117.023 806.233 118.015 814.277 118.664C839.789 120.728 876.604 120.022 923.893 109.205" stroke="url(#paint10_angular_130_2539)" stroke-width="0.5" stroke-miterlimit="10"/>
<path d="M34.9198 346.099C73.4911 341.19 127.112 331.535 178.303 301.094C213.824 280.012 237.204 255.032 255.776 237.86C261.859 232.229 267.472 226.369 273.208 220.797C305.509 189.302 326.19 164.509 340.56 147.713C354.576 131.372 363.022 122.572 382.18 124.035C394.901 125.008 407.207 129.752 415.953 134.68C428.9 141.987 432.748 148.22 438.685 155.489C441.56 159.004 444.081 162.542 447.921 165.492C462.662 176.772 480.16 180.805 509.801 177.959C539.938 175.091 577.653 163.471 606.933 147.692C609.61 146.226 612.16 144.786 614.583 143.369C650.261 122.37 655.865 110.265 676.409 103.598C679.595 102.572 682.833 101.717 686.11 101.036C699.867 98.0791 712.445 97.9286 727.921 99.0436C750.629 100.616 770.671 105.352 791.16 108.801C797.784 109.915 805.03 110.927 812.979 111.623C838.291 113.868 875.055 113.822 922.089 104.499" stroke="url(#paint11_angular_130_2539)" stroke-width="0.5" stroke-miterlimit="10"/>
<path d="M35.3228 350.295C72.0835 346.457 126.962 337.972 180.618 306.625C217.375 284.963 241.522 259.173 259.632 241.76C265.772 235.844 271.443 229.747 277.107 223.905C308.904 191.179 329.045 164.245 343.635 145.82C357.665 128.099 366.76 118.173 385.455 119.49C397.717 120.383 410.039 125.5 418.704 130.935C431.365 138.902 434.746 145.981 440.006 153.551C442.618 157.269 444.926 160.924 448.744 163.954C462.902 175.196 481.852 177.578 511.079 173.189C541.331 168.639 578.314 155.491 606.952 139.904C609.606 138.449 612.135 137.012 614.538 135.593C651.117 114.229 656.995 102.996 676.317 96.642C679.473 95.6112 682.682 94.7492 685.929 94.0598C699.863 90.9932 712.428 90.7791 727.414 91.8954C749.005 93.4502 768.689 98.1418 790.171 101.7C796.766 102.81 803.946 103.816 811.82 104.564C836.922 106.991 873.636 107.607 920.431 99.8207" stroke="url(#paint12_angular_130_2539)" stroke-width="0.5" stroke-miterlimit="10"/>
<path d="M35.7136 354.427C70.651 351.643 126.867 344.454 182.92 312.093C221.009 289.953 245.831 263.22 263.48 245.624C269.682 239.442 275.38 233.093 281.018 226.973C312.298 192.998 331.951 163.952 346.687 143.857C360.747 124.743 370.52 113.646 388.638 114.859C400.448 115.66 412.797 121.16 421.367 127.122C433.759 135.746 436.676 143.689 441.231 151.557C443.528 155.497 445.687 159.266 449.463 162.37C463.104 173.524 483.676 175.174 512.299 168.318C542.392 161.11 578.918 147.409 606.924 132.02C609.548 130.571 612.056 129.139 614.447 127.722C651.947 106.047 658.067 95.6246 676.168 89.5846C679.299 88.5552 682.481 87.6889 685.702 86.9892C699.814 83.8218 712.39 83.5206 726.836 84.6288C747.294 86.2254 766.64 90.8791 789.094 94.5305C795.658 95.6282 802.783 96.645 810.564 97.4488C835.465 100.057 872.129 101.333 918.674 95.0679" stroke="url(#paint13_angular_130_2539)" stroke-width="0.5" stroke-miterlimit="10"/>
<path d="M36.059 358.521C69.1805 356.78 126.729 350.907 185.177 317.522C224.598 294.906 250.042 267.249 267.268 249.415C273.554 242.942 279.284 236.371 284.862 229.942C315.637 194.687 334.75 163.595 349.694 141.808C363.824 121.312 374.303 109.096 391.895 110.176C403.245 110.887 415.619 116.759 424.103 123.248C436.223 132.51 438.65 141.322 442.55 149.469C444.55 153.628 446.542 157.504 450.289 160.699C463.303 171.787 485.06 170.903 513.5 163.394C543.856 155.408 579.493 139.276 606.859 124.088C609.409 122.647 611.959 121.206 614.318 119.802C652.695 97.7386 659.109 88.1932 675.989 82.4761C679.09 81.4412 682.243 80.5681 685.434 79.8603C699.723 76.5829 712.242 76.227 726.237 77.3475C745.626 78.879 764.542 83.409 787.986 87.2541C794.529 88.3371 801.599 89.3173 809.324 90.2172C834.005 92.9529 870.636 94.9339 916.893 90.1968" stroke="url(#paint14_angular_130_2539)" stroke-width="0.5" stroke-miterlimit="10"/>
<path d="M36.4774 362.554C67.7809 361.894 126.645 357.302 187.509 322.899C228.298 299.799 254.328 271.179 271.106 253.177C277.412 246.417 283.239 239.619 288.767 232.936C319.118 196.519 337.636 163.202 352.694 139.77C366.838 117.846 377.951 104.525 395.077 105.488C405.965 106.111 418.383 112.351 426.77 119.359C438.638 129.312 440.544 138.943 443.795 147.386C445.473 151.777 447.314 155.75 451.02 159.028C463.471 170.037 486.632 167.445 514.669 158.457C545.077 148.753 580.055 131.127 606.77 116.131C609.32 114.69 611.806 113.262 614.179 111.931C653.443 89.4775 660.118 80.7871 675.785 75.382C678.884 74.3536 682.035 73.4871 685.225 72.7862C698.463 69.6832 712.12 68.773 725.653 70.0918C743.935 71.6126 762.466 76.0571 786.901 80.0486C793.412 81.1097 800.424 82.1296 808.032 83.0616C843.566 87.2415 879.417 88.0258 915.1 85.4037" stroke="url(#paint15_angular_130_2539)" stroke-width="0.5" stroke-miterlimit="10"/>
<path d="M36.8451 366.568C66.3362 366.969 126.53 363.676 189.789 328.248C231.873 304.678 258.563 275.137 274.957 256.908C347.707 175.939 360.693 98.8224 398.313 100.743C408.74 101.276 421.201 107.886 429.484 115.423C447.172 131.507 441.119 147.503 451.807 157.308C478.012 181.356 565.126 131.802 614.086 103.956C661.823 76.8028 662.634 70.8979 684.928 65.6064C723.84 56.3475 747.303 68.1249 806.761 75.8171C842.102 80.3376 877.759 81.9059 913.361 80.5057" stroke="url(#paint16_angular_130_2539)" stroke-width="0.5" stroke-miterlimit="10"/>
<path d="M37.3521 369.168C67.7059 369.976 125.943 366.328 186.416 332.435C228.149 309 253.468 279.49 271.125 260.241C341.673 183.42 354.54 112.61 392.239 111.354C406.966 110.86 422.361 112.623 433.306 117.792C454.812 127.96 450.235 141.696 463.301 150.631C491.908 170.209 573.562 126.042 620.297 100.141C665.812 74.8547 666.903 69.9992 690.834 66.2758C730.599 60.0871 752.782 70.2363 808.858 77.8143C843.843 82.5362 879.195 83.9542 914.446 82.0493" stroke="url(#paint17_angular_130_2539)" stroke-width="0.5" stroke-miterlimit="10"/>
<path d="M37.8805 371.877C88.5712 373.583 138.767 361.429 183.062 336.722C224.446 313.431 248.335 283.945 267.312 263.674C335.52 190.866 348.531 125.295 386.193 122.064C405.304 120.432 423.003 117.509 437.148 120.27C461.411 124.975 458.997 135.92 474.816 144.064C505.032 159.601 582.017 120.383 626.536 96.4235C669.748 73.0209 671.111 69.1221 696.768 67.0436C737.25 63.7537 758.298 72.5388 810.977 79.9206C845.594 84.8381 880.632 86.108 915.515 83.7093" stroke="url(#paint18_angular_130_2539)" stroke-width="0.5" stroke-miterlimit="10"/>
<path d="M38.8201 376.695C88.1243 378.811 137.047 367.186 180.129 343.116C221.152 319.961 243.621 290.498 263.91 269.216C329.591 200.336 344.425 146.336 380.55 134.884C403.149 127.721 423.807 124.825 441.409 124.846C468.005 124.868 467.91 132.313 486.749 139.595C517.937 151.649 590.92 116.92 633.177 94.8169C674.176 73.3745 675.677 70.2792 703.103 69.9129C744.251 69.3617 764.213 76.9337 813.514 84.125C847.77 89.2508 882.507 90.3742 917.023 87.4728" stroke="url(#paint19_angular_130_2539)" stroke-width="0.5" stroke-miterlimit="10"/>
<path d="M40.2508 384.031C88.1637 386.551 135.81 375.446 177.672 352.003C218.343 328.973 239.382 299.534 260.995 277.248C324.074 212.207 339.57 162.957 375.401 150.194C402.023 140.718 425.01 129.686 446.147 131.915C475.233 134.98 476.374 135.362 499.159 137.618C528.889 152.212 600.294 115.922 640.313 95.6994C679.06 76.1588 680.706 73.8562 709.934 75.2805C751.691 77.3188 770.612 83.8577 816.528 90.822C850.424 96.152 884.862 97.1258 919.005 93.7198" stroke="url(#paint20_angular_130_2539)" stroke-width="0.5" stroke-miterlimit="10"/>
<path d="M41.7152 391.54C88.2361 394.472 134.615 383.913 175.282 361.132C215.603 338.246 235.198 308.805 258.145 285.523C318.533 224.243 334.592 179.337 370.255 165.758C401.002 154.062 425.775 140.191 450.953 139.234C483.418 137.998 485.833 135.527 511.637 135.892C542.218 148.074 609.692 115.099 647.452 96.8362C683.946 79.1975 685.728 77.5949 716.768 80.9023C759.163 85.3922 777.017 91.0541 819.554 97.7716C853.09 103.307 887.235 104.131 920.999 100.219" stroke="url(#paint21_angular_130_2539)" stroke-width="0.5" stroke-miterlimit="10"/>
<path d="M43.208 399.194C88.3222 402.517 133.417 392.492 172.874 370.368C212.844 347.616 230.977 318.177 255.279 293.905C312.933 236.319 329.514 195.539 365.211 181.405C400.014 167.626 428.144 156.403 455.74 146.652C489.815 134.609 495.272 135.781 524.096 134.264C555.584 144.08 619.117 114.412 654.692 98.057C688.934 82.3202 690.842 81.363 723.703 86.6082C766.635 93.4656 783.512 98.3745 822.637 104.823C855.815 110.558 889.671 111.232 923.051 106.821" stroke="url(#paint22_angular_130_2539)" stroke-width="0.5" stroke-miterlimit="10"/>
<path d="M44.7201 406.948C80.4736 410.138 126.815 404.526 170.515 379.707C210.179 357.176 226.792 327.637 252.452 302.392C307.295 248.44 324.398 211.644 360.142 197.171C399.114 181.399 429.829 167.416 460.576 154.173C497.396 138.301 504.619 130.825 536.604 132.74C569.744 134.723 628.568 113.862 661.907 99.3957C693.895 85.5517 695.942 85.2092 730.612 92.423C774.193 101.541 789.995 105.829 825.785 111.966C848.034 115.78 881.291 119.957 925.168 113.514" stroke="url(#paint23_angular_130_2539)" stroke-width="0.5" stroke-miterlimit="10"/>
<path d="M46.259 414.839C82.9079 418.411 127.26 412.47 168.172 389.176C207.487 366.788 222.608 337.2 249.649 311.007C301.626 260.643 319.143 227.757 355.107 213.062C398.28 195.414 431.632 178.596 465.427 161.823C505.097 142.131 513.851 131.327 549.128 131.345C582.758 131.392 638.022 113.368 669.157 100.86C698.909 88.9052 701.124 89.0394 737.556 98.3723C781.773 109.688 796.492 113.451 828.913 119.245C850.872 123.172 883.665 127.439 927.266 120.352" stroke="url(#paint24_angular_130_2539)" stroke-width="0.5" stroke-miterlimit="10"/>
<path d="M47.8155 422.82C85.396 426.815 127.723 420.504 165.848 398.744C204.813 376.5 218.424 346.858 246.867 319.721C295.938 272.897 313.888 243.88 350.082 229.055C397.522 209.622 433.505 189.894 470.298 169.574C512.892 146.055 523.153 132.136 561.671 130.051C595.846 128.198 647.503 113.019 676.417 102.426C703.874 92.353 706.324 92.9605 744.511 104.423C789.412 117.889 803.005 121.202 832.059 126.623C853.741 130.671 886.059 135.069 929.381 127.281" stroke="url(#paint25_angular_130_2539)" stroke-width="0.5" stroke-miterlimit="10"/>
<path d="M49.3951 430.92C87.8312 435.285 128.216 428.646 163.546 408.422C202.16 386.313 214.236 356.592 244.105 328.545C290.226 285.221 307.127 255.758 345.088 245.156C398.906 230.121 435.429 201.305 475.19 177.433C520.747 150.091 532.664 123.761 574.235 128.865C608.968 133.16 656.959 112.732 683.707 104.099C708.894 95.9317 711.565 96.949 751.495 110.573C797.1 126.147 809.528 129.102 835.228 134.111C856.623 138.29 888.48 142.787 931.52 134.328" stroke="url(#paint26_angular_130_2539)" stroke-width="0.5" stroke-miterlimit="10"/>
<path d="M51.0262 439.283C90.3613 444.049 128.748 437.035 161.315 418.416C199.568 396.443 210.085 366.612 241.406 337.686C284.586 297.814 302.054 272.855 340.147 261.576C398.131 244.389 437.452 213.036 480.153 185.609C528.71 154.436 541.603 126.34 586.871 127.995C622.778 129.315 666.553 112.814 691.05 106.093C713.971 99.8014 716.934 101.205 758.534 117.051C804.882 134.698 816.118 137.347 838.467 141.916C859.57 146.236 890.961 150.815 933.728 141.682" stroke="url(#paint27_angular_130_2539)" stroke-width="0.5" stroke-miterlimit="10"/>
<path d="M52.76 448.174C92.9851 453.342 129.381 445.989 159.158 428.839C197.06 407.001 205.983 377.027 238.79 347.255C278.923 310.827 297.055 290.381 335.298 278.422C397.449 258.988 439.579 225.199 485.192 194.223C536.788 159.183 550.95 129.801 599.582 127.564C636.561 125.863 676.176 113.287 698.486 108.511C719.12 104.091 722.401 105.867 765.664 123.955C812.771 143.653 822.817 146.053 841.783 150.158C862.597 154.648 893.572 159.27 936.012 149.474" stroke="url(#paint28_angular_130_2539)" stroke-width="0.5" stroke-miterlimit="10"/>
<path d="M54.5241 457.219C95.6481 462.787 130.05 455.078 157.042 439.472C194.591 417.758 201.881 387.594 236.214 357.034C273.32 323.998 292.065 308.104 330.481 295.478C396.743 273.705 441.763 237.56 490.27 203.037C544.962 164.128 560.619 133.804 612.333 127.333C650.284 122.583 685.843 113.94 705.953 111.141C724.288 108.575 727.929 110.696 772.827 131.07C820.745 152.798 829.48 155.058 845.139 158.61C865.653 163.3 896.126 167.963 938.337 157.476" stroke="url(#paint29_angular_130_2539)" stroke-width="0.5" stroke-miterlimit="10"/>
<path d="M56.4441 467.064C98.4654 473.023 130.836 464.917 155.08 450.895C192.233 429.23 197.875 398.887 233.793 367.603C267.848 337.937 287.22 326.61 325.828 313.324C396.146 289.127 444.121 250.716 495.467 212.649C553.181 169.885 571.639 142.648 625.201 127.899C663.37 117.398 695.619 115.393 713.548 114.567C729.606 113.832 733.611 116.316 780.115 138.971C828.855 162.738 836.281 164.819 848.609 167.841C868.808 172.8 898.849 177.425 940.778 166.266" stroke="url(#paint30_angular_130_2539)" stroke-width="0.5" stroke-miterlimit="10"/>
<path d="M58.3445 476.809C101.256 483.17 131.643 474.715 153.109 462.225C189.902 440.697 193.776 410 231.355 378.081C262.343 351.759 282.336 345.019 321.147 331.081C395.497 304.38 446.469 263.771 500.728 222.163C561.544 175.511 581.787 145.962 638.135 128.368C677.275 116.168 705.467 116.681 721.188 117.889C734.978 118.974 739.369 121.798 787.45 146.779C837.053 172.548 843.123 174.544 852.147 176.983C871.99 182.342 901.627 186.782 943.283 174.95" stroke="url(#paint31_angular_130_2539)" stroke-width="0.5" stroke-miterlimit="10"/>
<path d="M60.2468 486.563C104.028 493.321 132.506 484.512 151.13 473.557C187.535 452.171 189.586 420.98 228.916 388.559C256.832 365.544 277.443 363.431 316.475 348.836C394.794 319.549 448.819 276.788 505.943 231.677C569.861 181.145 591.956 149.235 651.022 128.837C691.293 114.934 715.297 117.925 728.801 121.217C740.323 124.028 745.081 127.28 794.758 154.592C845.234 182.37 849.907 184.318 855.638 186.126C875.016 192.245 904.361 196.157 945.744 183.651" stroke="url(#paint32_angular_130_2539)" stroke-width="0.5" stroke-miterlimit="10"/>
<defs>
<radialGradient id="paint0_angular_130_2539" cx="0" cy="0" r="1" gradientUnits="userSpaceOnUse" gradientTransform="translate(475.568 175.117) rotate(78.9646) scale(63.9015 460.774)">
<stop offset="0.3125" stop-color="#0F62FE"/>
<stop offset="0.848958" stop-color="#B3BAC8" stop-opacity="0"/>
</radialGradient>
<radialGradient id="paint1_angular_130_2539" cx="0" cy="0" r="1" gradientUnits="userSpaceOnUse" gradientTransform="translate(475.108 175.902) rotate(78.9646) scale(59.74 460.58)">
<stop offset="0.3125" stop-color="#0F62FE"/>
<stop offset="0.848958" stop-color="#B3BAC8" stop-opacity="0"/>
</radialGradient>
<radialGradient id="paint2_angular_130_2539" cx="0" cy="0" r="1" gradientUnits="userSpaceOnUse" gradientTransform="translate(474.641 176.702) rotate(78.9646) scale(56.3473 460.376)">
<stop offset="0.3125" stop-color="#0F62FE"/>
<stop offset="0.848958" stop-color="#B3BAC8" stop-opacity="0"/>
</radialGradient>
<radialGradient id="paint3_angular_130_2539" cx="0" cy="0" r="1" gradientUnits="userSpaceOnUse" gradientTransform="translate(474.177 177.514) rotate(78.9646) scale(53.912 460.163)">
<stop offset="0.3125" stop-color="#0F62FE"/>
<stop offset="0.848958" stop-color="#B3BAC8" stop-opacity="0"/>
</radialGradient>
<radialGradient id="paint4_angular_130_2539" cx="0" cy="0" r="1" gradientUnits="userSpaceOnUse" gradientTransform="translate(473.702 178.273) rotate(78.9646) scale(52.008 459.959)">
<stop offset="0.3125" stop-color="#0F62FE"/>
<stop offset="0.848958" stop-color="#B3BAC8" stop-opacity="0"/>
</radialGradient>
<radialGradient id="paint5_angular_130_2539" cx="0" cy="0" r="1" gradientUnits="userSpaceOnUse" gradientTransform="translate(473.249 179.068) rotate(78.9646) scale(53.7819 459.751)">
<stop offset="0.3125" stop-color="#0F62FE"/>
<stop offset="0.848958" stop-color="#B3BAC8" stop-opacity="0"/>
</radialGradient>
<radialGradient id="paint6_angular_130_2539" cx="0" cy="0" r="1" gradientUnits="userSpaceOnUse" gradientTransform="translate(472.78 179.883) rotate(78.9646) scale(57.443 459.561)">
<stop offset="0.3125" stop-color="#0F62FE"/>
<stop offset="0.848958" stop-color="#B3BAC8" stop-opacity="0"/>
</radialGradient>
<radialGradient id="paint7_angular_130_2539" cx="0" cy="0" r="1" gradientUnits="userSpaceOnUse" gradientTransform="translate(472.295 180.662) rotate(78.9646) scale(61.2076 459.334)">
<stop offset="0.3125" stop-color="#0F62FE"/>
<stop offset="0.848958" stop-color="#B3BAC8" stop-opacity="0"/>
</radialGradient>
<radialGradient id="paint8_angular_130_2539" cx="0" cy="0" r="1" gradientUnits="userSpaceOnUse" gradientTransform="translate(471.846 181.434) rotate(78.9646) scale(65.0299 459.154)">
<stop offset="0.3125" stop-color="#0F62FE"/>
<stop offset="0.848958" stop-color="#B3BAC8" stop-opacity="0"/>
</radialGradient>
<radialGradient id="paint9_angular_130_2539" cx="0" cy="0" r="1" gradientUnits="userSpaceOnUse" gradientTransform="translate(471.413 182.235) rotate(78.9646) scale(68.9721 458.982)">
<stop offset="0.3125" stop-color="#0F62FE"/>
<stop offset="0.848958" stop-color="#B3BAC8" stop-opacity="0"/>
</radialGradient>
<radialGradient id="paint10_angular_130_2539" cx="0" cy="0" r="1" gradientUnits="userSpaceOnUse" gradientTransform="translate(470.906 183.023) rotate(78.9646) scale(73.0332 458.741)">
<stop offset="0.3125" stop-color="#0F62FE"/>
<stop offset="0.848958" stop-color="#B3BAC8" stop-opacity="0"/>
</radialGradient>
<radialGradient id="paint11_angular_130_2539" cx="0" cy="0" r="1" gradientUnits="userSpaceOnUse" gradientTransform="translate(470.415 183.819) rotate(78.9646) scale(77.237 458.505)">
<stop offset="0.3125" stop-color="#0F62FE"/>
<stop offset="0.848958" stop-color="#B3BAC8" stop-opacity="0"/>
</radialGradient>
<radialGradient id="paint12_angular_130_2539" cx="0" cy="0" r="1" gradientUnits="userSpaceOnUse" gradientTransform="translate(469.989 184.611) rotate(78.9646) scale(81.5257 458.343)">
<stop offset="0.3125" stop-color="#0F62FE"/>
<stop offset="0.848958" stop-color="#B3BAC8" stop-opacity="0"/>
</radialGradient>
<radialGradient id="paint13_angular_130_2539" cx="0" cy="0" r="1" gradientUnits="userSpaceOnUse" gradientTransform="translate(469.518 185.391) rotate(78.9646) scale(85.9342 458.139)">
<stop offset="0.3125" stop-color="#0F62FE"/>
<stop offset="0.848958" stop-color="#B3BAC8" stop-opacity="0"/>
</radialGradient>
<radialGradient id="paint14_angular_130_2539" cx="0" cy="0" r="1" gradientUnits="userSpaceOnUse" gradientTransform="translate(469.031 186.181) rotate(78.9646) scale(90.4118 457.954)">
<stop offset="0.3125" stop-color="#0F62FE"/>
<stop offset="0.848958" stop-color="#B3BAC8" stop-opacity="0"/>
</radialGradient>
<radialGradient id="paint15_angular_130_2539" cx="0" cy="0" r="1" gradientUnits="userSpaceOnUse" gradientTransform="translate(468.572 186.975) rotate(78.9646) scale(94.9511 457.713)">
<stop offset="0.3125" stop-color="#0F62FE"/>
<stop offset="0.848958" stop-color="#B3BAC8" stop-opacity="0"/>
</radialGradient>
<radialGradient id="paint16_angular_130_2539" cx="0" cy="0" r="1" gradientUnits="userSpaceOnUse" gradientTransform="translate(468.126 187.762) rotate(78.9646) scale(99.5416 457.533)">
<stop offset="0.3125" stop-color="#0F62FE"/>
<stop offset="0.848958" stop-color="#B3BAC8" stop-opacity="0"/>
</radialGradient>
<radialGradient id="paint17_angular_130_2539" cx="0" cy="0" r="1" gradientUnits="userSpaceOnUse" gradientTransform="translate(469.705 193.848) rotate(78.9646) scale(96.1696 457.917)">
<stop offset="0.3125" stop-color="#0F62FE"/>
<stop offset="0.848958" stop-color="#B3BAC8" stop-opacity="0"/>
</radialGradient>
<radialGradient id="paint18_angular_130_2539" cx="0" cy="0" r="1" gradientUnits="userSpaceOnUse" gradientTransform="translate(471.266 199.939) rotate(78.9646) scale(92.9071 458.283)">
<stop offset="0.3125" stop-color="#0F62FE"/>
<stop offset="0.848958" stop-color="#B3BAC8" stop-opacity="0"/>
</radialGradient>
<radialGradient id="paint19_angular_130_2539" cx="0" cy="0" r="1" gradientUnits="userSpaceOnUse" gradientTransform="translate(472.84 206.027) rotate(78.9646) scale(91.7842 458.663)">
<stop offset="0.3125" stop-color="#0F62FE"/>
<stop offset="0.848958" stop-color="#B3BAC8" stop-opacity="0"/>
</radialGradient>
<radialGradient id="paint20_angular_130_2539" cx="0" cy="0" r="1" gradientUnits="userSpaceOnUse" gradientTransform="translate(474.405 212.092) rotate(78.9646) scale(93.2493 459.038)">
<stop offset="0.3125" stop-color="#0F62FE"/>
<stop offset="0.848958" stop-color="#B3BAC8" stop-opacity="0"/>
</radialGradient>
<radialGradient id="paint21_angular_130_2539" cx="0" cy="0" r="1" gradientUnits="userSpaceOnUse" gradientTransform="translate(475.961 218.209) rotate(78.9646) scale(94.8678 459.394)">
<stop offset="0.3125" stop-color="#0F62FE"/>
<stop offset="0.848958" stop-color="#B3BAC8" stop-opacity="0"/>
</radialGradient>
<radialGradient id="paint22_angular_130_2539" cx="0" cy="0" r="1" gradientUnits="userSpaceOnUse" gradientTransform="translate(477.53 224.297) rotate(78.9646) scale(96.641 459.769)">
<stop offset="0.3125" stop-color="#0F62FE"/>
<stop offset="0.848958" stop-color="#B3BAC8" stop-opacity="0"/>
</radialGradient>
<radialGradient id="paint23_angular_130_2539" cx="0" cy="0" r="1" gradientUnits="userSpaceOnUse" gradientTransform="translate(479.124 230.389) rotate(78.9646) scale(98.5547 460.168)">
<stop offset="0.3125" stop-color="#0F62FE"/>
<stop offset="0.848958" stop-color="#B3BAC8" stop-opacity="0"/>
</radialGradient>
<radialGradient id="paint24_angular_130_2539" cx="0" cy="0" r="1" gradientUnits="userSpaceOnUse" gradientTransform="translate(480.693 236.472) rotate(78.9646) scale(100.57 460.543)">
<stop offset="0.3125" stop-color="#0F62FE"/>
<stop offset="0.848958" stop-color="#B3BAC8" stop-opacity="0"/>
</radialGradient>
<radialGradient id="paint25_angular_130_2539" cx="0" cy="0" r="1" gradientUnits="userSpaceOnUse" gradientTransform="translate(482.262 242.56) rotate(78.9646) scale(102.692 460.918)">
<stop offset="0.3125" stop-color="#0F62FE"/>
<stop offset="0.848958" stop-color="#B3BAC8" stop-opacity="0"/>
</radialGradient>
<radialGradient id="paint26_angular_130_2539" cx="0" cy="0" r="1" gradientUnits="userSpaceOnUse" gradientTransform="translate(483.832 248.65) rotate(78.9646) scale(104.903 461.293)">
<stop offset="0.3125" stop-color="#0F62FE"/>
<stop offset="0.848958" stop-color="#B3BAC8" stop-opacity="0"/>
</radialGradient>
<radialGradient id="paint27_angular_130_2539" cx="0" cy="0" r="1" gradientUnits="userSpaceOnUse" gradientTransform="translate(485.41 254.757) rotate(78.9646) scale(107.378 461.673)">
<stop offset="0.3125" stop-color="#0F62FE"/>
<stop offset="0.848958" stop-color="#B3BAC8" stop-opacity="0"/>
</radialGradient>
<radialGradient id="paint28_angular_130_2539" cx="0" cy="0" r="1" gradientUnits="userSpaceOnUse" gradientTransform="translate(486.976 260.826) rotate(78.9646) scale(110.432 462.048)">
<stop offset="0.3125" stop-color="#0F62FE"/>
<stop offset="0.848958" stop-color="#B3BAC8" stop-opacity="0"/>
</radialGradient>
<radialGradient id="paint29_angular_130_2539" cx="0" cy="0" r="1" gradientUnits="userSpaceOnUse" gradientTransform="translate(488.545 266.914) rotate(78.9646) scale(113.623 462.423)">
<stop offset="0.3125" stop-color="#0F62FE"/>
<stop offset="0.848958" stop-color="#B3BAC8" stop-opacity="0"/>
</radialGradient>
<radialGradient id="paint30_angular_130_2539" cx="0" cy="0" r="1" gradientUnits="userSpaceOnUse" gradientTransform="translate(490.097 273.008) rotate(78.9646) scale(117.602 462.78)">
<stop offset="0.3125" stop-color="#0F62FE"/>
<stop offset="0.848958" stop-color="#B3BAC8" stop-opacity="0"/>
</radialGradient>
<radialGradient id="paint31_angular_130_2539" cx="0" cy="0" r="1" gradientUnits="userSpaceOnUse" gradientTransform="translate(491.689 279.092) rotate(78.9646) scale(121.51 463.178)">
<stop offset="0.3125" stop-color="#0F62FE"/>
<stop offset="0.848958" stop-color="#B3BAC8" stop-opacity="0"/>
</radialGradient>
<radialGradient id="paint32_angular_130_2539" cx="0" cy="0" r="1" gradientUnits="userSpaceOnUse" gradientTransform="translate(493.259 285.181) rotate(78.9646) scale(125.422 463.553)">
<stop offset="0.3125" stop-color="#0F62FE"/>
<stop offset="0.848958" stop-color="#B3BAC8" stop-opacity="0"/>
</radialGradient>
</defs>
</svg>
