<svg width="324" height="224" viewBox="0 0 324 224" fill="none" xmlns="http://www.w3.org/2000/svg">
<path d="M-151.373 21.3995C-124.728 32.3632 -101.12 47.7134 -82.0235 66.4931C-53.878 94.5155 -55.4089 111.683 -28.3757 127.691C-2.10137 143.238 33.9604 147.522 63.2181 141.649C103.14 133.629 104.946 111.801 156.12 77.2297C186.215 56.9161 242.65 18.7798 309.213 22.4732C342.841 24.3414 376.272 36.7313 407.349 48.2409C445.439 62.3488 450.908 69.596 471.465 72.935C495.881 76.9076 533.631 74.0838 587.92 38.578" stroke="#4A3AFF" stroke-width="0.5" stroke-miterlimit="10"/>
<path d="M-152.119 25.4149C-128.108 35.0466 -106.463 48.2214 -88.2646 64.2813C-86.5243 65.8381 -84.784 67.4378 -83.0307 69.0805C-54.5973 96.2225 -55.7226 112.617 -29.0296 128.228C-17.3942 135.059 -4.21972 139.924 9.72766 142.54C19.718 144.406 29.964 145.186 40.2022 144.859C47.8584 144.611 55.4562 143.657 62.8521 142.014C71.0934 140.276 78.9277 137.432 86.0383 133.596C99.1232 126.51 108.283 116.944 122.375 104.941C132.99 95.9068 144.539 87.6446 156.893 80.2465C163.435 76.274 171.077 71.4855 179.909 66.5789C203.54 53.4159 233.779 39.1148 270.063 34.1759C282.375 32.4522 294.885 31.8759 307.355 32.4581C309.265 32.544 311.163 32.6728 313.034 32.8231C331.562 34.2941 349.213 38.1914 367.244 43.3664C380.735 47.1887 393.492 51.9557 406.145 56.4328C411.445 58.3439 416.182 60.0833 420.46 61.7152C446.303 71.6036 453.015 76.9075 470.667 79.2266C484.079 80.9874 501.429 80.676 523.451 74.4058C541.508 69.2738 562.889 60.0296 587.92 44.7407" stroke="#4A3AFF" stroke-width="0.5" stroke-miterlimit="10"/>
<path d="M-152.812 29.4519C-129.051 38.7196 -107.539 51.4523 -89.3245 67.0299C-87.5798 68.533 -85.8352 70.0719 -84.0905 71.6466C-55.3039 97.919 -55.9974 113.519 -29.6707 128.765C-18.0076 135.685 -4.79118 140.644 9.21735 143.356C19.2665 145.234 29.5798 145.986 39.8751 145.589C47.5428 145.269 55.1349 144.187 62.4857 142.368C70.6861 140.423 78.478 137.466 85.5935 133.597C99.2017 126.296 108.858 117.041 122.794 105.832C133.459 97.3242 145.141 89.7201 157.665 83.1347C164.207 79.6131 171.679 75.297 180.419 71.0239C203.71 59.6324 232.104 47.6826 268.022 43.7852C280.431 42.3823 292.972 41.9223 305.484 42.4109C307.42 42.4968 309.331 42.6042 311.215 42.7438C330.057 44.0966 347.264 47.4356 365.661 52.0416C379.518 55.5203 392.158 60.2014 404.915 64.6141C410.215 66.4394 415.004 68.1035 419.387 69.6603C445.308 78.9045 452.256 83.7789 469.842 85.4967C483.241 86.8066 500.461 86.0873 522.6 79.742C540.684 74.5455 562.339 65.4731 587.92 50.925" stroke="#4A3AFF" stroke-width="0.5" stroke-miterlimit="10"/>
<path d="M-153.636 33.4244C-130.069 42.3412 -108.645 54.6583 -90.3843 69.7892C-88.644 71.2493 -86.8907 72.731 -85.1504 74.2448C-55.9843 99.6368 -56.3114 114.464 -30.338 129.302C-18.0383 136.324 -5.92176 141.381 8.66782 144.183C18.7844 146.077 29.1742 146.799 39.5349 146.33C47.2172 145.934 54.8043 144.721 62.1063 142.723C70.2701 140.573 78.0296 137.501 85.1617 133.597C99.2672 126.081 109.408 117.159 123.199 106.755C133.924 98.7692 145.75 91.84 158.437 86.1087C165.045 83.0381 172.294 79.1944 180.93 75.5547C203.998 65.8274 230.429 56.304 265.981 53.4267C278.488 52.3489 291.073 52.008 303.639 52.4067C305.589 52.4818 307.564 52.5785 309.396 52.7073C327.884 53.9497 346.182 56.6499 364.039 60.7705C378.262 63.8948 390.797 68.533 403.712 72.8276C409.011 74.5884 413.839 76.1667 418.341 77.6483C444.327 86.2376 451.524 90.661 469.031 91.8099C482.43 92.6902 499.558 91.5307 521.776 85.1102C539.899 79.9137 561.79 70.9058 587.92 57.0449" stroke="#4A3AFF" stroke-width="0.5" stroke-miterlimit="10"/>
<path d="M-154.396 37.4292C-131.056 45.9993 -109.745 57.8847 -91.4444 72.5377C-89.7041 73.955 -87.9377 75.3722 -86.2105 76.8324C-56.7304 101.387 -56.5995 115.344 -30.9925 129.85C-18.418 136.946 -6.70711 142.143 8.14417 145.01C18.3189 146.922 28.778 147.613 39.1945 147.06C46.9118 146.601 54.5132 145.26 61.7789 143.077C69.8878 140.739 77.6071 137.576 84.7558 133.661C99.3585 125.92 110.049 117.363 123.644 107.668C133.235 100.839 144.58 94.8698 159.248 89.0721C165.908 86.4309 173 83.0488 181.492 80.0533C204.469 71.9472 228.807 64.9148 263.926 63.0574C276.513 62.2956 289.139 62.0699 301.755 62.381C303.73 62.4454 305.68 62.5313 307.551 62.6386C326.072 63.6351 344.457 65.9194 362.507 69.4671C377.123 72.2371 389.475 76.8431 402.521 80.9874C407.755 82.6838 412.714 84.2084 417.32 85.5934C443.359 93.5814 450.804 97.5003 468.259 98.0693C481.658 98.5095 498.668 96.9312 520.978 90.4463C539.1 85.1747 561.253 76.3278 587.92 63.1755" stroke="#4A3AFF" stroke-width="0.5" stroke-miterlimit="10"/>
<path d="M-155.141 41.434C-132.035 49.6632 -110.842 61.1169 -92.5039 75.2863C-90.7637 76.6499 -88.9972 78.0027 -87.27 79.3984C-57.4366 103.019 -56.9001 116.279 -31.6726 130.376C-18.8233 137.558 -7.51801 142.894 7.58188 145.826C17.8243 147.754 28.3612 148.413 38.8415 147.78C46.5605 147.254 54.1412 145.788 61.3343 143.431C69.3949 140.896 77.0808 137.622 84.2459 133.672C99.3588 125.727 110.612 117.567 123.984 108.58C133.864 101.967 145.457 96.7702 159.955 92.0246C166.693 89.8129 173.628 86.914 181.937 84.509C205.006 77.9597 227.106 73.4826 261.859 72.6237C273.937 72.323 287.296 71.9473 299.871 72.3016C301.873 72.3553 303.796 72.4304 305.707 72.5163C324.233 73.2659 342.666 75.132 360.859 78.0993C375.841 80.515 388.102 85.0888 401.291 89.1472C406.591 90.7792 411.523 92.1857 416.247 93.517C442.338 100.957 450.071 104.608 467.409 104.382C480.808 104.211 497.713 102.375 520.101 95.7932C538.237 90.4249 560.664 81.7605 587.868 69.3275" stroke="#4A3AFF" stroke-width="0.5" stroke-miterlimit="10"/>
<path d="M-155.9 45.4279C-133.023 53.3245 -111.945 64.3501 -93.564 78.0348C-91.8238 79.3447 -90.0442 80.6438 -88.3301 81.9751C-58.1303 104.737 -57.1882 117.18 -32.3402 130.912C-19.2553 138.16 -8.3295 143.646 7.04517 146.652C17.3357 148.585 27.9267 149.212 38.4487 148.51C46.1931 147.911 53.7745 146.317 60.9154 143.785C68.9102 141.042 76.5578 137.662 83.7484 133.693C99.3586 125.523 111.227 117.717 124.311 109.482C134.491 103.04 146.346 98.6812 160.648 94.9771C167.491 93.1948 174.937 92.1641 182.369 89.0612C206.484 88.2345 225.457 80.472 259.726 82.2972C271.83 82.9521 285.399 82.0395 297.921 82.2972C299.949 82.3509 301.912 82.4046 303.796 82.4797C323.973 83.2635 339.413 84.1761 359.197 86.7744C374.546 88.825 386.675 93.3773 400.009 97.3069C405.243 98.8745 410.28 100.206 415.122 101.462C441.226 108.247 449.234 111.125 466.545 110.588C479.957 110.148 496.758 107.721 519.224 101.086C537.386 95.7179 560.049 87.1287 587.815 75.4151" stroke="#4A3AFF" stroke-width="0.5" stroke-miterlimit="10"/>
<path d="M-156.659 49.4326C-134.013 56.9962 -113.051 67.5863 -94.6238 80.7726C-92.8704 82.0396 -91.0909 83.2743 -89.3899 84.5412C-58.7583 106.422 -57.4236 118.071 -32.955 131.449C-19.5431 138.772 -9.07521 144.397 6.54807 147.479C16.9277 149.436 27.6207 150.027 38.2264 149.229C46.8493 148.638 53.9282 146.513 60.6538 144.129C68.5892 141.183 76.2094 137.695 83.4345 133.704C99.5419 125.319 112.077 117.921 124.861 110.384C135.329 104.189 147.498 100.614 161.499 97.9189C168.486 96.5769 175.761 96.2655 182.971 93.5599C207.086 95.0845 223.835 90.8221 257.764 91.9064C269.933 92.3037 283.658 92.0675 296.141 92.293C298.183 92.293 300.172 92.3681 302.043 92.4218C322.56 93.0553 337.555 93.3774 357.692 95.5354C373.394 97.2318 385.406 101.752 398.883 105.563C404.117 107.066 409.194 108.312 414.153 109.493C440.323 115.699 448.58 118.082 465.825 116.933C479.237 116.064 495.921 113.219 518.479 106.508C536.654 101.14 559.578 92.6365 587.894 81.6423" stroke="#4A3AFF" stroke-width="0.5" stroke-miterlimit="10"/>
<path d="M-157.405 53.4266C-135.001 60.6688 -114.162 70.8191 -95.684 83.489C-93.9307 84.713 -92.138 85.894 -90.3716 87.0858C-59.426 108.086 -57.6595 118.93 -33.6096 131.943C-19.9229 139.341 -9.86067 145.117 6.0243 148.252C16.4537 150.231 27.2076 150.797 37.8597 149.927C46.6003 149.272 53.5615 146.974 60.2478 144.451C68.5043 141.338 75.2953 137.687 82.95 133.715C99.5677 125.125 114.602 119.961 125.24 111.286C137.291 107.066 148.557 99.0141 162.283 100.871C169.428 101.838 176.546 100.356 183.507 98.0585C207.635 101.924 222.251 99.4865 255.748 101.526C267.969 102.267 281.918 102.095 294.296 102.257C296.377 102.257 298.365 102.257 300.25 102.353C321.081 102.836 335.644 102.536 356.122 104.232C372.229 105.553 384.084 110.051 397.692 113.745C402.926 115.183 408.056 116.354 413.119 117.449C439.289 123.085 447.873 124.9 465.053 123.214C478.478 121.894 495.057 118.63 517.68 111.844C535.881 106.412 559.002 98.0585 587.919 87.7836" stroke="#4A3AFF" stroke-width="0.5" stroke-miterlimit="10"/>
<path d="M-158.164 57.4207C-135.989 64.3565 -115.267 74.0861 -96.7437 86.2591C-94.9903 87.4293 -93.1977 88.503 -91.4181 89.6733C-60.0146 109.794 -57.9602 119.832 -34.2636 132.491C-20.289 139.953 -10.6455 145.879 5.48805 149.089C15.9833 151.078 26.8099 151.611 37.5197 150.668C46.3781 149.948 53.2215 147.447 59.8817 144.816C67.9812 141.595 74.6937 137.773 82.5053 133.725C99.6203 124.9 115.44 120.348 125.685 112.177C138.155 108.419 150.128 100.882 163.095 103.813C170.187 105.413 177.344 104.458 184.03 102.557C208.172 108.763 220.668 108.172 253.72 111.146C265.994 112.22 280.047 112.134 292.451 112.22H298.431C319.602 112.542 333.76 111.651 354.552 112.864C371.039 113.82 382.75 118.308 396.502 121.872C401.736 123.247 406.904 124.331 412.086 125.34C438.255 130.429 447.153 131.685 464.268 129.442C477.693 127.67 494.167 123.987 516.869 117.137C535.083 111.651 558.518 103.438 587.933 93.8713" stroke="#4A3AFF" stroke-width="0.5" stroke-miterlimit="10"/>
<path d="M-158.923 61.4039C-137.003 68.0449 -116.419 77.3421 -97.8557 88.9862C-96.0893 90.0598 -94.2967 91.1335 -92.5171 92.2071C-60.7733 111.436 -58.2741 120.67 -34.9439 133.006C-20.6814 140.522 -11.3912 146.609 4.93864 149.884C15.4924 151.898 26.3905 152.403 37.1535 151.376C46.1427 150.593 52.8553 147.951 59.4762 145.149C67.4187 141.756 74.0658 137.838 82.0344 133.725C99.6597 124.685 116.251 120.723 126.026 113.068C138.927 109.761 150.887 108.58 163.801 106.744C171.208 107.904 178.038 108.537 184.502 107.045C208.643 115.634 218.993 116.858 251.627 120.734C263.953 122.205 278.189 122.28 290.541 122.162C292.661 122.162 294.689 122.162 296.56 122.162C318.072 121.937 331.758 120.82 352.916 121.572C369.796 122.162 381.35 126.629 395.259 130.075C400.493 131.374 405.727 132.394 410.961 133.296C437.13 137.838 446.29 138.514 463.379 135.712C476.817 133.5 493.173 129.399 515.98 122.473C534.207 116.944 557.851 108.86 587.854 100.002" stroke="#4A3AFF" stroke-width="0.5" stroke-miterlimit="10"/>
<path d="M-159.668 65.3979C-137.965 71.7404 -117.483 80.6062 -98.8502 91.724C-97.0968 92.7977 -95.2911 93.7962 -93.5116 94.8054C-61.3491 113.133 -58.4835 121.572 -35.572 133.532C-21.0217 141.134 -12.2156 147.361 4.4283 150.711C15.0726 152.748 26.0736 153.217 36.9179 152.096C46.0773 151.247 52.6851 148.445 59.1621 145.503C67.013 141.971 73.5554 137.923 81.6549 133.693C99.7643 124.438 117.154 121.067 126.484 113.927C139.804 111.082 151.947 110.706 164.626 109.633C172.123 111.35 178.849 112.574 185.077 111.479C209.219 122.377 217.436 125.512 249.638 130.29C262.016 132.126 276.423 132.255 288.735 132.072C290.881 132.072 292.909 132.072 294.794 132.072C316.619 131.675 329.887 129.925 351.385 130.236C368.631 130.462 380.054 134.917 394.107 138.235C399.341 139.48 404.575 140.382 410.005 141.252C436.175 145.267 445.701 145.353 462.672 141.993C476.11 139.33 492.361 134.821 515.247 127.82C533.487 122.248 557.445 114.292 587.946 106.154" stroke="#4A3AFF" stroke-width="0.5" stroke-miterlimit="10"/>
<path d="M-160.427 69.3811C-138.957 75.4409 -118.596 83.8791 -99.9099 94.4617C-98.1435 95.5354 -96.3378 96.4158 -94.5583 97.3713C-61.964 114.786 -58.732 122.43 -36.2261 134.058C-21.3879 141.713 -13.0006 148.091 3.90503 151.516C14.5885 153.566 25.6371 154.006 36.5124 152.815C45.6718 151.892 52.3189 148.928 58.7566 145.836C66.3982 142.164 72.8882 137.988 81.184 133.747C99.8037 124.266 117.965 121.496 126.863 114.861C140.615 112.467 152.889 112.832 165.372 112.639C172.948 114.904 179.582 116.729 185.562 116.031C209.716 129.28 215.788 134.284 247.571 139.963C260.001 142.175 274.578 142.196 286.825 142.111C288.997 142.111 291.038 142.111 292.923 142.111C315.088 141.542 327.924 139.652 349.763 139.04C367.375 138.546 378.667 143.335 392.864 146.556C398.15 147.725 403.51 148.657 408.92 149.347C435.089 152.847 444.929 152.332 461.835 148.413C475.286 145.299 491.419 140.382 514.383 133.307C532.702 127.691 556.857 119.854 587.907 112.435" stroke="#4A3AFF" stroke-width="0.5" stroke-miterlimit="10"/>
<path d="M-161.186 71.0668C-139.946 76.8683 -119.707 84.8939 -100.97 94.9449C-99.2036 95.9112 -97.3848 96.7916 -95.5922 97.6827C-62.5792 114.185 -58.9547 121.035 -36.8806 132.319C-21.7545 140.049 -13.7859 146.577 3.36833 150.066C14.1165 152.137 25.2404 152.549 36.172 151.28C45.5145 150.281 52.0177 147.167 58.4162 143.925C65.8614 140.038 72.2468 135.744 80.7389 131.449C99.8558 121.786 118.816 119.564 127.269 113.455C141.439 111.511 153.857 112.649 166.144 113.272C173.798 116.096 180.327 118.512 186.072 118.222C210.239 133.811 214.178 140.769 245.516 147.21C258.012 149.798 272.759 149.852 284.98 149.691L291.104 149.594C313.609 149.272 326.001 145.944 348.18 145.299C366.197 144.763 377.319 149.218 391.66 152.278C397.005 153.387 402.422 154.244 407.886 154.844C433.99 157.829 444.209 156.691 461.036 152.224C474.5 148.66 490.529 143.335 513.572 136.184C531.891 130.526 556.32 122.817 587.92 116.117" stroke="#4A3AFF" stroke-width="0.5" stroke-miterlimit="10"/>
<path d="M-161.971 71.7433C-140.969 77.25 -120.856 84.8205 -102.069 94.2901C-100.29 95.2134 -98.4708 96.0294 -96.6782 96.8561C-63.181 112.467 -59.2425 118.565 -37.5348 129.474C-22.1078 137.258 -14.5709 143.947 2.84502 147.511C13.6621 149.585 24.8617 149.95 35.8449 148.585C45.2922 147.511 51.7168 144.29 58.0237 140.855C65.3381 136.914 71.6843 132.469 80.2679 128.099C99.8952 118.19 119.627 116.59 127.648 110.996C142.251 109.504 155.27 109.74 166.903 112.864C175.238 115.108 181.073 119.306 186.53 119.306C210.697 137.236 212.49 146.148 243.409 153.459C255.945 156.444 270.888 156.519 283.043 156.294C285.268 156.294 287.335 156.208 289.206 156.165C312.052 155.671 323.999 151.731 346.531 150.614C364.915 149.701 375.906 154.157 390.391 157.056C395.787 158.119 401.258 158.9 406.774 159.397C432.865 161.887 443.411 160.116 460.173 155.102C473.637 151.076 489.561 145.342 512.682 138.127C531.001 132.426 555.705 124.846 587.854 118.802" stroke="#4A3AFF" stroke-width="0.5" stroke-miterlimit="10"/>
<path d="M-162.691 72.3982C-141.918 77.644 -121.927 84.7817 -103.09 93.6781C-101.297 94.5477 -99.4654 95.2993 -97.6859 96.0723C-63.77 110.717 -59.4782 115.999 -38.1892 126.629C-22.4874 134.466 -15.3692 141.316 2.37378 144.945C13.2471 147.081 24.5255 147.446 35.57 146.019C45.1481 144.87 51.4811 141.456 57.7095 137.923C64.88 133.854 71.1476 129.259 79.9537 124.825C100.065 114.7 120.582 113.702 128.184 108.613C143.193 107.539 156.474 108.731 167.779 112.531C176.271 115.387 181.937 120.047 187.197 120.573C211.365 140.855 211.011 151.709 241.525 159.847C254.113 163.229 269.199 163.315 281.342 163.068L287.544 162.897C310.718 162.242 322.232 157.679 345.118 156.111C363.894 154.812 374.729 159.332 389.37 162.07C394.817 163.095 400.343 163.812 405.91 164.217C431.975 166.225 442.861 163.809 459.558 158.248C473.022 153.771 488.828 147.629 512.041 140.339C536.612 132.318 562.005 126.109 587.92 121.786" stroke="#4A3AFF" stroke-width="0.5" stroke-miterlimit="10"/>
<path d="M-163.45 72.6129C-142.902 77.6233 -123.032 84.3435 -104.15 92.6688C-102.344 93.4848 -100.512 94.1827 -98.7325 94.8913C-64.3587 108.602 -59.7267 113.143 -38.8433 123.408C-22.8275 131.299 -16.1542 138.31 1.78506 142.014C12.7273 144.159 24.0841 144.473 35.1775 142.937C44.8603 141.713 51.1149 138.149 57.2778 134.466C64.2913 130.268 70.4804 125.533 79.4173 121.035C100.039 110.696 121.289 110.298 128.499 105.714C143.939 105.134 157.429 107.217 168.46 111.673C177.096 115.162 182.604 120.358 187.616 121.271C211.797 143.893 209.284 156.702 239.379 165.667C252.019 169.446 267.289 169.532 279.38 169.199C281.643 169.135 283.75 169.049 285.621 168.984C309.174 168.158 320.204 162.993 343.417 160.964C362.56 159.289 373.263 163.766 388.049 166.418C393.551 167.382 399.131 168.014 404.745 168.308C430.797 169.843 442.011 166.762 458.642 160.663C472.106 155.725 487.808 149.186 511.099 141.81C535.887 133.745 561.633 127.826 587.92 124.148" stroke="#4A3AFF" stroke-width="0.5" stroke-miterlimit="10"/>
<path d="M-164.209 72.0009C-143.882 76.7716 -124.133 83.0646 -105.21 90.8006C-103.404 91.5629 -101.559 92.2071 -99.7794 92.862C-64.9346 105.606 -59.91 109.343 -39.4977 119.328C-23.1809 127.273 -16.9394 134.455 1.26156 138.213C12.2643 140.383 23.6942 140.668 34.8372 139.051C44.6378 137.741 50.8138 134.037 56.8982 130.204C63.7678 125.909 69.8784 121.003 78.9723 116.439C100.091 105.885 122.152 106.068 128.904 102.01C144.763 101.881 158.436 104.908 169.231 110.019C177.972 114.163 183.363 119.854 188.139 121.164C212.32 146.137 207.635 160.889 237.338 170.67C250.004 174.857 265.47 174.964 277.521 174.556C279.798 174.481 281.918 174.385 283.789 174.31C307.643 173.322 318.241 167.524 341.794 165.044C361.317 162.982 371.889 167.47 386.793 169.993C392.355 170.901 397.993 171.457 403.659 171.658C429.698 172.731 441.226 168.973 457.791 162.338C471.255 156.97 486.866 149.991 510.235 142.551C535.203 134.404 561.271 128.742 587.88 125.684" stroke="#4A3AFF" stroke-width="0.5" stroke-miterlimit="10"/>
<path d="M-164.955 71.3889C-144.851 75.9393 -125.226 81.8097 -106.269 88.9432C-104.45 89.6518 -102.606 90.2209 -100.826 90.8221C-65.497 102.632 -60.263 105.585 -40.1517 115.248C-23.547 123.236 -17.7243 130.59 0.725324 134.423C11.7925 136.625 23.3025 136.877 34.4973 135.164C44.4155 133.758 50.5131 129.935 56.5321 125.941C63.2577 121.486 69.2767 116.472 78.5277 111.844C100.157 101.108 123.016 101.838 129.31 98.2947C143.755 98.4357 157.857 101.923 169.991 108.355C178.823 113.165 184.122 119.338 188.65 121.056C212.843 148.37 205.974 165.076 235.297 175.673C247.989 180.279 263.652 180.365 275.651 179.914C277.967 179.828 280.086 179.721 281.971 179.624C306.138 178.443 316.344 172.109 340.237 169.124C360.113 166.687 370.581 171.175 385.629 173.569C390.862 174.395 396.384 174.524 402.639 174.997C428.573 176.962 440.519 171.185 457.019 164.003C470.484 158.14 485.989 150.797 509.437 143.281C534.61 135.054 561.016 129.637 587.946 127.176" stroke="#4A3AFF" stroke-width="0.5" stroke-miterlimit="10"/>
<path d="M-165.714 70.7769C-145.823 75.1126 -126.316 80.558 -107.329 87.075C-105.497 87.7191 -103.652 88.2452 -101.86 88.7821C-66.0859 99.5186 -60.4463 101.827 -40.806 111.168C-23.8873 119.209 -18.5618 126.725 0.201828 130.633C11.3519 132.863 22.9588 133.083 34.2224 131.277C44.2453 129.774 50.2644 125.823 56.218 121.679C62.7604 117.094 68.727 111.941 78.135 107.249C100.275 96.2547 123.932 97.586 129.768 94.5905C144.598 95.2288 158.865 99.4622 170.762 106.755C179.647 112.22 184.881 118.887 189.16 121.002C213.367 150.657 204.299 169.317 233.243 180.741C245.974 185.755 261.82 185.83 273.805 185.325C276.135 185.229 278.281 185.1 280.152 185.003C304.66 183.64 314.421 176.65 338.667 173.257C358.935 170.434 369.207 174.954 384.464 177.198C390.161 177.848 395.895 178.249 401.644 178.4C427.618 179.785 439.826 173.451 456.273 165.731C469.725 159.407 485.138 151.666 508.613 144.075C533.974 135.784 560.698 130.639 587.907 128.808" stroke="#4A3AFF" stroke-width="0.5" stroke-miterlimit="10"/>
<path d="M-166.473 70.1649C-146.786 74.2969 -127.391 79.3149 -108.376 85.1961C-106.544 85.7866 -104.699 86.2698 -102.906 86.7314C-66.6615 96.5232 -60.6817 98.0478 -41.4078 107.131C-24.2405 115.162 -19.3468 122.86 -0.334506 126.832C10.8624 129.094 22.5322 129.285 33.83 127.391C43.9707 125.791 49.9243 121.711 55.7863 117.417C62.224 112.714 68.073 107.41 77.6511 102.654C100.275 91.4448 124.756 93.3988 130.121 90.8435C145.38 91.9544 159.846 96.9124 171.535 105.037C180.445 111.179 185.627 118.318 189.67 120.831C213.877 152.836 202.611 173.515 231.201 185.69C243.959 191.123 259.988 191.187 271.921 190.629C274.277 190.522 276.436 190.382 278.307 190.264C303.168 188.718 312.471 181.127 337.071 177.284C357.719 174.063 367.846 178.615 383.221 180.719C388.971 181.334 394.76 181.66 400.558 181.696C426.571 182.502 439.041 175.609 455.423 167.342C468.887 160.567 484.21 152.418 507.762 144.795C533.327 136.43 560.385 131.545 587.868 130.333" stroke="#4A3AFF" stroke-width="0.5" stroke-miterlimit="10"/>
<path d="M-167.206 69.553C-144.791 74.2234 -124.68 78.9797 -109.423 83.3387C-107.565 83.8756 -105.72 84.2835 -103.94 84.713C-67.2113 93.474 -60.9045 94.29 -42.1016 102.965C-24.581 111.082 -20.0667 118.952 -0.845114 123C10.4133 125.289 22.1588 125.447 33.5025 123.461C43.7611 121.754 49.6492 117.567 55.4327 113.111C61.7134 108.28 67.4838 102.836 77.219 98.0156C100.353 86.5919 125.633 89.1365 130.54 87.1395C146.217 88.7351 160.859 94.4092 172.319 103.33C181.243 110.148 186.961 117.341 190.206 120.68C220.301 151.741 200.923 177.702 229.173 190.651C241.944 196.513 258.195 196.556 270.076 195.944C272.458 195.826 274.617 195.665 276.501 195.536C301.663 193.807 310.521 185.615 335.487 181.331C356.515 177.713 366.498 182.287 382.03 184.241C387.819 184.945 393.677 185.201 399.524 185.003C425.55 184.273 438.308 177.767 454.638 168.974C468.089 161.726 483.293 153.18 506.977 145.45C532.761 137.015 560.159 132.388 587.907 131.782" stroke="#4A3AFF" stroke-width="0.5" stroke-miterlimit="10"/>
<path d="M-167.977 68.9409C-145.314 73.4717 -125.334 77.7664 -110.496 81.4705C-108.624 81.9429 -106.779 82.2972 -105 82.673C-67.7605 90.4033 -61.1527 90.5214 -42.7685 98.9174C-24.9339 107.077 -20.8645 115.14 -1.3943 119.252C9.93427 121.572 21.7651 121.697 33.1627 119.617C43.5259 117.792 49.3356 113.498 55.0406 108.881C61.1904 103.921 66.8169 98.3376 76.7613 93.4525C100.393 81.8033 126.392 84.9491 130.946 83.4568C148.924 85.6041 163.056 93.2914 173.079 101.709C181.989 109.224 187.629 116.987 190.704 120.605C219.818 154.823 199.209 181.965 227.106 195.697C239.89 201.978 256.364 201.999 268.192 201.333C270.6 201.194 272.785 201.033 274.656 200.893C300.159 198.971 308.585 190.157 333.891 185.443C355.285 181.439 365.125 186.045 380.8 187.848C386.649 188.499 392.561 188.675 398.452 188.374C424.491 187.226 437.549 180.011 453.827 170.67C467.265 162.961 482.378 154.017 506.166 146.212C524.603 140.167 551.4 133.607 587.92 133.328" stroke="#4A3AFF" stroke-width="0.5" stroke-miterlimit="10"/>
<path d="M-168.737 68.329C-145.838 72.7524 -125.988 76.5317 -111.556 79.6131C-109.672 80.0104 -107.827 80.311 -106.047 80.6868C-68.376 87.3112 -61.3887 86.7422 -43.4232 94.8376C-25.4577 102.933 -21.65 111.275 -1.91813 115.452C9.47006 117.811 21.3798 117.906 32.8221 115.731C43.2899 113.777 49.0473 109.396 54.6737 104.629C60.6797 99.5509 66.2669 93.8176 76.316 88.868C100.458 77.0578 127.242 80.7404 131.351 79.7634C149.761 82.3617 163.906 90.9509 173.85 100.056C182.735 108.194 188.244 116.579 191.214 120.455C219.202 157.765 197.482 186.163 225.064 200.657C237.848 207.378 254.531 207.367 266.334 206.648C268.755 206.498 270.953 206.315 272.876 206.165C298.706 204.018 306.701 194.655 332.347 189.48C354.12 185.089 363.829 189.727 379.648 191.381C385.556 191.98 391.524 192.081 397.457 191.681C423.509 190.103 436.842 182.179 453.08 172.302C466.506 164.131 481.527 154.79 505.42 146.91C523.882 140.822 550.929 134.38 587.998 134.842" stroke="#4A3AFF" stroke-width="0.5" stroke-miterlimit="10"/>
<path d="M-169.482 67.717C-146.361 72.0117 -126.642 75.2971 -112.616 77.7665C-110.718 78.0993 -108.873 78.357 -107.094 78.6147C-68.9646 84.2084 -61.624 82.963 -44.0772 90.7684C-25.6146 98.9712 -22.448 107.41 -2.45441 111.662C8.99831 114.062 20.993 114.125 32.4821 111.844C43.0546 109.751 48.7596 105.284 54.3075 100.378C60.1695 95.1597 65.6652 89.2975 75.8844 84.2728C100.51 72.1942 128.289 74.9535 131.757 76.0594C149.657 81.739 164.743 88.5889 174.622 98.4021C183.468 107.195 188.924 116.16 191.737 120.401C218.496 160.717 195.741 190.468 223.023 205.725C235.807 212.875 252.713 212.822 264.463 212.059C266.923 211.898 269.121 211.705 271.005 211.544C297.175 209.246 304.712 199.24 330.711 193.614C352.851 188.825 362.416 193.507 378.392 195.01C384.361 195.557 390.383 195.582 396.358 195.085C422.423 193.088 436.044 184.445 452.217 174.03C465.642 165.441 480.572 155.649 504.556 147.694C523.032 141.563 550.353 135.261 587.959 136.431" stroke="#4A3AFF" stroke-width="0.5" stroke-miterlimit="10"/>
<path d="M-170.241 67.105C-146.885 71.3244 -127.31 74.0301 -113.676 75.8767C-111.765 76.1344 -109.92 76.3492 -108.128 76.5532C-69.5535 81.084 -61.8465 79.1836 -44.7316 86.6777C-25.8894 94.9449 -23.2725 103.534 -2.97791 107.829C8.54123 110.26 20.6183 110.289 32.1549 107.915C42.8059 105.671 48.4716 101.14 53.928 96.1044C59.6592 90.7362 65.0632 84.7559 75.4395 79.6775C100.575 67.3841 128.943 72.0331 132.162 72.3444C151.789 74.2663 165.568 86.2161 175.342 96.7379C181.953 104.078 187.602 111.97 192.195 120.283C217.711 163.53 193.949 194.709 220.982 210.728C233.753 218.308 250.894 218.244 262.605 217.417C265.078 217.245 267.302 217.03 269.147 216.859C295.631 214.335 302.736 203.738 329.102 197.694C351.595 192.497 361.042 197.254 377.162 198.585C383.192 199.079 389.27 199.025 395.285 198.424C421.376 196.008 435.246 186.614 451.393 175.695C464.791 166.579 479.63 156.455 503.732 148.434C522.234 142.261 549.791 136.077 587.959 137.966" stroke="#4A3AFF" stroke-width="0.5" stroke-miterlimit="10"/>
<path d="M-171 66.493C-147.447 70.53 -127.99 72.7417 -114.735 74.0086C-70.8749 78.1959 -62.8408 75.0823 -45.3857 82.5979C-26.2818 90.8328 -24.0182 99.6798 -3.51425 104.071C8.06946 106.543 20.2311 106.543 31.8148 104.071C53.7711 99.1322 54.373 85.1532 74.9947 75.0823C100.628 62.5635 129.768 68.0713 132.568 68.6404C169.886 76.1559 187.289 109.772 192.758 120.176C217.004 166.257 192.235 198.95 218.928 215.731C234.42 225.469 256.717 223.247 267.342 222.173C294.152 219.489 300.826 208.28 327.532 201.774C357.627 194.43 364.261 204.995 394.264 201.774C442.129 196.588 449.809 166.987 502.868 149.165C521.383 142.948 549.202 136.893 587.92 139.502" stroke="#4A3AFF" stroke-width="0.5" stroke-miterlimit="10"/>
<path d="M-170.293 67.8351C-147.159 71.872 -128.029 74.277 -114.775 75.6084C-72.0788 80.0318 -63.7437 77.1115 -46.3933 84.6378C-27.6427 92.7976 -25.1435 101.387 -5.14991 105.81C6.19161 108.269 18.0971 108.394 29.5118 106.175C51.1803 101.977 52.0177 88.3419 72.3253 78.6575C97.4089 66.6111 125.672 71.6251 128.943 72.0653C159.549 76.1344 176.428 100.882 184.737 114.088C186.438 116.783 187.668 119.102 188.662 120.777C213.524 164.4 190.049 195.815 216.35 211.662C232.052 221.099 254.531 218.727 265.601 217.707C275.745 216.793 285.578 214.277 294.558 210.299C303.717 206.53 312.288 202.278 326.38 199.455C330.698 198.596 334.545 198.123 338 197.715C358.935 195.235 367.009 201.344 392.236 197.662C401.996 196.256 411.393 193.5 420.028 189.513C443.463 178.776 458.118 159.45 494.402 145.342C496.531 144.512 498.755 143.703 501.076 142.916C519.761 136.538 547.998 130.193 587.305 132.63" stroke="#4A3AFF" stroke-width="0.5" stroke-miterlimit="10"/>
<path d="M-169.587 69.1771C-146.924 73.2141 -128.069 75.7157 -114.801 77.1973C-73.2956 81.8463 -64.6988 79.1406 -47.4007 86.6885C-28.9904 94.6765 -26.2687 103.191 -6.83775 107.539C4.27088 109.991 15.9295 110.248 27.1828 108.29C48.5241 104.78 49.6625 91.5843 69.643 82.222C94.1902 70.7232 121.708 74.4273 125.293 75.4902C153.608 83.8111 171.979 102.6 180.537 115.044C182.277 117.578 183.481 119.8 184.462 121.368C209.899 162.585 187.812 192.648 213.694 207.593C229.527 216.719 252.255 214.207 263.77 213.23C273.993 212.368 283.958 210.062 293.223 206.412C302.527 203.008 311.228 199.326 325.15 197.146C329.481 196.459 333.355 196.201 336.809 195.793C357.679 193.313 365.399 198.134 390.117 193.539C399.764 191.715 409.001 188.657 417.49 184.477C440.048 173.74 455.436 153.738 492.453 139.158C494.612 138.321 496.863 137.483 499.205 136.667C518.047 130.129 546.703 123.493 586.611 125.748" stroke="#4A3AFF" stroke-width="0.5" stroke-miterlimit="10"/>
<path d="M-168.88 70.5193C-146.688 74.5455 -128.121 77.1974 -114.866 78.8401C-74.5385 83.6823 -65.654 81.2236 -48.4343 88.7714C-30.3773 96.6306 -27.4201 104.984 -8.46019 109.31C2.40962 111.741 13.8114 112.108 24.88 110.384C45.8157 107.539 47.3204 94.7839 66.9738 85.7867C90.9845 74.7924 117.625 77.6054 121.668 78.8938C144.152 86.2881 163.267 99.2511 176.35 115.978C178.129 118.351 179.32 120.477 180.275 121.947C206.262 160.674 185.588 189.502 211.012 203.545C227.027 212.371 249.965 209.697 261.925 208.785C272.231 207.96 282.325 205.856 291.863 202.547C301.336 199.508 310.181 196.405 323.894 194.849C328.265 194.355 332.151 194.301 335.605 193.893C356.449 191.402 363.751 194.967 387.945 189.437C397.461 187.185 406.538 183.83 414.899 179.474C436.581 168.662 452.767 148.091 490.438 132.995C492.61 132.136 494.887 131.281 497.268 130.429C516.267 123.74 545.355 116.815 585.853 118.898" stroke="#4A3AFF" stroke-width="0.5" stroke-miterlimit="10"/>
<path d="M-168.174 71.8506C-146.453 75.8875 -128.16 78.679 -114.879 80.4398C-75.7293 85.4753 -66.5438 83.2636 -49.455 90.8221C-31.7643 98.5632 -28.5193 106.734 -10.1351 111.05C0.50673 113.493 11.6692 114.006 22.577 112.553C43.2117 110.406 44.9782 98.0585 64.3176 89.4156C87.7917 78.8401 113.242 83.0488 118.044 82.3295C145.718 86.914 163.121 105.95 172.176 116.944C173.995 119.145 175.159 121.164 176.18 122.549C202.742 158.817 183.481 186.335 208.434 199.455C224.659 207.979 247.767 205.156 260.184 204.286C270.582 203.501 280.81 201.602 290.606 198.639C300.263 195.965 309.213 193.453 322.756 192.508C327.152 192.197 331.052 192.358 334.532 191.95C355.35 189.459 362.233 191.724 385.982 185.304C396.044 182.577 404.3 178.669 412.518 174.417C433.349 163.584 450.254 142.325 488.645 126.79C490.826 125.909 493.129 125.032 495.554 124.159C514.723 117.298 544.23 110.083 585.316 111.995" stroke="#4A3AFF" stroke-width="0.5" stroke-miterlimit="10"/>
<path d="M-167.48 73.1926C-146.27 77.2188 -128.213 80.1499 -114.866 81.9751C-76.92 87.1931 -67.499 85.282 -50.4102 92.7976C-33.0859 100.442 -29.6446 108.419 -11.7184 112.714C-1.32421 115.156 9.57637 115.792 20.2871 114.582C40.5293 112.993 42.6491 101.194 61.6614 92.9157C84.586 82.9414 109.107 86.7744 114.446 85.7329C141.296 89.8987 158.685 107.614 168.015 117.878C169.873 119.918 171.024 121.84 172.071 123.128C199.196 156.916 181.387 183.135 205.843 195.364C222.278 203.588 245.569 200.603 258.418 199.798C271.503 198.982 280.727 196.76 289.337 194.741C299.177 192.433 308.336 189.083 321.591 190.167C325.51 190.514 329.466 190.46 333.368 190.006C354.173 187.516 360.61 188.536 383.901 181.159C393.649 178.078 401.762 173.837 410.071 169.349C430.051 158.527 447.677 136.613 486.774 120.573C488.981 119.671 491.31 118.769 493.761 117.867C513.088 110.856 543.013 103.352 584.701 105.08" stroke="#4A3AFF" stroke-width="0.5" stroke-miterlimit="10"/>
<path d="M-166.774 74.5454C-145.982 78.5716 -128.252 81.6423 -114.958 83.5856C-78.1504 88.9539 -68.4284 87.3219 -51.4181 94.859C-34.4079 102.396 -30.7572 110.169 -13.3675 114.475C1.78476 118.222 14.4116 117.416 18.0361 116.719C37.3624 112.961 40.3457 104.425 59.044 96.5124C81.419 87.0428 105.037 90.5321 110.873 89.1793C136.886 92.9371 154.249 109.289 163.893 118.844C165.777 120.723 166.915 122.549 167.975 123.751C195.663 155.059 179.346 179.946 203.304 191.327C219.974 199.251 243.409 196.105 256.716 195.353C270.024 194.602 279.353 192.583 288.12 190.876C298.13 188.933 307.603 186.023 320.479 187.881C324.364 188.47 328.34 188.546 332.255 188.106C353.034 185.615 359.04 185.39 381.86 177.069C391.307 173.633 399.236 169.049 407.558 164.367C426.701 153.631 445.059 130.977 484.85 114.432C487.075 113.508 489.43 112.585 491.916 111.662C511.412 104.49 541.756 96.6949 584.033 98.241" stroke="#4A3AFF" stroke-width="0.5" stroke-miterlimit="10"/>
<path d="M-166.067 75.8553C-145.747 79.9138 -128.305 83.1347 -114.997 85.1532C-79.3673 90.6503 -69.3575 89.3297 -52.4257 96.8668C-35.808 104.275 -31.8825 111.898 -15.0031 116.193C-0.269596 119.94 12.004 119.478 15.6808 118.812C34.6276 115.355 37.925 107.625 56.3223 100.077C78.1478 91.1013 100.811 94.2685 107.196 92.5614C132.384 95.9005 149.682 110.814 159.653 119.757C161.125 121.212 162.505 122.728 163.788 124.299C192.012 153.126 177.226 176.672 200.609 187.215C217.527 194.827 241.106 191.51 254.858 190.833C268.087 190.167 277.809 188.332 286.746 186.947C296.939 185.368 306.727 182.974 319.209 185.519C323.074 186.358 327.101 186.57 331.064 186.141C351.83 183.64 357.391 182.19 379.753 172.903C388.912 169.113 396.632 164.206 405.02 159.289C423.338 148.553 442.416 125.254 482.901 108.205C485.142 107.26 487.524 106.315 490.045 105.37C509.672 98.0371 540.461 89.9524 583.34 91.3267" stroke="#4A3AFF" stroke-width="0.5" stroke-miterlimit="10"/>
<path d="M-165.361 77.1759C-145.511 81.2128 -128.357 84.5412 -115.023 86.7314C-80.5841 92.3789 -70.2864 91.3589 -53.3677 98.896C-37.1033 106.186 -32.9423 113.616 -16.5863 117.889C-2.19297 121.636 9.66188 121.518 13.4434 120.884C32.0238 117.76 35.6876 110.803 53.7185 103.609C74.9944 95.1382 96.7807 97.9726 103.637 95.9756C127.988 98.896 145.194 112.478 155.545 120.67C157.03 122.004 158.423 123.406 159.719 124.868C188.505 151.204 175.25 173.386 198.057 183.114C215.224 190.425 238.934 186.957 253.131 186.335C266.478 185.733 276.422 184.091 285.516 183.028C296.325 181.808 307.291 181.855 318.084 183.167C322.69 183.65 326.563 184.595 329.978 184.241C350.718 181.729 355.834 179.077 377.738 168.812C386.557 164.679 394.133 159.418 402.599 154.286C420.12 143.635 439.878 119.596 481.108 102.042C483.359 101.086 485.779 100.109 488.344 99.1322C508.154 91.6166 539.375 83.2635 582.803 84.466" stroke="#4A3AFF" stroke-width="0.5" stroke-miterlimit="10"/>
<path d="M-164.588 79.0226C-145.21 83.0488 -128.33 86.5382 -114.997 88.8251C-81.7876 94.5906 -71.202 93.8713 -54.4403 101.441C-38.5161 108.613 -34.1327 115.86 -18.287 120.122C-4.36471 123.869 7.17611 124.084 11.0623 123.493C29.3026 120.734 33.2411 114.507 50.9972 107.679C71.7105 99.712 92.5938 102.214 99.9475 99.9052C123.5 102.407 140.51 114.571 151.292 122.151C152.791 123.364 154.203 124.647 155.519 125.995C184.763 149.841 173.17 170.648 195.375 179.571C212.817 186.582 236.632 182.963 251.287 182.394C264.725 181.868 274.905 180.419 284.156 179.678C294.702 178.83 304.529 179.549 316.868 181.385C321.539 182.083 325.399 183.21 328.801 182.802C349.514 180.29 354.199 176.435 375.645 165.173C384.15 160.696 391.543 155.102 400.074 149.734C416.81 139.19 437.248 114.41 479.12 96.3407C481.396 95.3529 483.83 94.3652 486.434 93.3559C506.401 85.7115 538.001 77.0471 582.071 78.0671" stroke="#4A3AFF" stroke-width="0.5" stroke-miterlimit="10"/>
<path d="M-163.947 83.6715C-145.04 87.6977 -128.448 91.2945 -115.102 93.7317C-83.0047 99.6046 -72.1312 99.2395 -55.448 106.755C-39.8771 113.809 -35.2581 120.884 -19.9227 125.125C-6.41919 128.872 4.75524 129.42 8.75919 128.872C26.6592 126.5 30.8856 120.981 48.3277 114.518C68.4783 107.002 88.4589 109.235 96.3228 106.594C119.012 108.741 134.596 121.153 147.118 126.382C148.78 127.842 150.219 129.023 151.371 129.86C181.113 151.204 171.181 170.659 192.758 178.776C210.488 185.465 234.407 181.696 249.507 181.192C263.037 180.741 273.452 179.485 282.86 179.044C293.59 178.561 303.6 179.989 315.638 182.319C320.374 183.232 324.221 184.542 327.61 184.123C348.31 181.61 352.55 176.607 373.525 164.303C381.729 159.504 388.939 153.567 397.536 147.951C413.499 137.526 434.605 111.984 477.17 93.4096C479.464 92.4147 481.928 91.3983 484.563 90.3604C504.7 82.6086 536.758 73.6543 581.377 74.5454" stroke="#4A3AFF" stroke-width="0.5" stroke-miterlimit="10"/>
<path d="M-163.28 87.8588C-144.804 91.885 -128.5 95.5998 -115.141 98.1658C-84.2082 104.135 -72.9945 104.135 -56.4553 111.694C-41.2376 118.619 -36.3832 125.523 -21.5711 129.753C-8.48633 133.489 2.32173 134.327 6.45654 133.865C24.0295 131.9 28.5306 127.079 45.711 120.981C65.3382 114.002 84.3767 115.86 92.7509 112.907C114.603 114.582 130.03 125.866 142.984 130.214C144.341 131.326 145.779 132.369 147.288 133.339C177.488 152.203 169.258 170.197 190.194 177.595C208.225 183.962 232.222 180.043 247.767 179.613C261.401 179.227 272.052 178.164 281.604 178.067C292.517 177.949 302.723 180.107 314.499 182.91C319.289 184.048 323.135 185.529 326.524 185.057C347.185 182.534 351.006 176.339 371.51 163.036C379.361 157.915 386.44 151.645 395.063 145.782C410.254 135.497 432.014 109.171 475.273 90.0812C477.576 89.0076 480.075 88.0198 482.744 86.9676C503.039 78.9904 535.476 69.7891 580.736 70.4226" stroke="#4A3AFF" stroke-width="0.5" stroke-miterlimit="10"/>
<path d="M-162.547 92.0461C-144.555 96.0723 -128.527 99.9053 -115.18 102.622C-85.4121 108.656 -73.989 109.01 -57.4629 116.579C-42.5985 123.386 -37.5085 130.118 -23.2068 134.327C-10.5145 138.063 -0.0990161 138.374 4.15355 138.815C21.3601 140.618 26.1753 133.124 42.9893 127.402C62.0277 120.96 80.1895 122.452 89.0741 119.177C110.101 120.434 125.345 130.547 138.796 134.015C140.167 135.017 141.619 135.943 143.141 136.785C173.785 153.159 167.282 169.704 187.629 176.371C205.948 182.405 230.037 178.357 246.04 177.982C259.779 177.67 270.652 176.811 280.361 177.026C291.457 177.273 301.833 180.183 313.361 183.468C318.215 184.831 322.036 186.474 325.425 186.066C346.073 183.532 349.475 176.178 369.482 161.844C377.084 156.401 383.941 149.787 392.655 143.678C407.048 133.543 429.502 106.422 473.454 86.7745C475.783 85.7437 478.3 84.6701 481.004 83.5535C501.455 75.4152 534.324 65.8811 580.174 66.375" stroke="#4A3AFF" stroke-width="0.5" stroke-miterlimit="10"/>
<path d="M-161.84 96.2441C-144.32 100.313 -128.592 104.211 -115.219 107.067C-86.6158 113.165 -74.918 113.895 -58.4704 121.475C-43.9593 128.153 -38.6338 134.67 -24.8554 138.965C-12.5688 142.701 -2.50656 143.259 1.8376 143.829C18.6123 145.976 23.807 139.233 40.3201 133.876C58.7958 127.874 76.0678 129.098 85.4496 125.501C105.639 126.349 120.779 135.271 134.57 137.87C135.954 138.765 137.42 139.573 138.953 140.285C170.017 154.179 165.319 169.274 184.907 175.211C203.579 180.891 227.708 176.715 244.142 176.414C257.986 176.167 269.095 175.512 278.961 176.049C290.24 176.661 300.787 180.344 312.066 184.026C316.972 185.637 320.793 187.44 324.169 187.022C344.791 184.488 347.8 175.985 367.349 160.61C374.65 154.844 381.324 147.898 390.09 141.531C403.803 131.557 426.833 103.631 471.478 83.5535C473.825 82.487 476.367 81.4133 479.107 80.3325C499.728 72.0439 533.003 62.2199 579.454 62.542" stroke="#4A3AFF" stroke-width="0.5" stroke-miterlimit="10"/>
<path d="M-161.134 100.431C-144.124 104.447 -128.644 108.505 -115.258 111.511C-87.7803 117.653 -75.8469 118.791 -59.4778 126.36C-45.3069 132.92 -39.759 139.319 -26.4909 143.539C-14.623 147.275 -4.91408 148.08 -0.465243 148.778C15.8646 151.323 21.4518 145.267 37.6509 140.285C55.564 134.778 71.9331 135.679 81.8252 131.761C101.191 132.19 116.107 139.942 130.396 141.66C131.797 142.445 133.276 143.131 134.819 143.71C166.222 155.166 163.396 168.694 182.29 173.977C201.185 179.259 225.47 175.05 242.363 174.782C256.298 174.599 267.643 174.138 277.692 174.997C289.141 175.974 299.858 180.365 310.901 184.552C315.86 186.41 319.681 188.353 323.044 187.945C343.639 185.4 346.269 175.77 365.256 159.332C372.282 153.255 378.772 145.976 387.591 139.341C400.572 129.56 424.229 100.807 469.555 80.1714C471.91 79.0977 474.488 78.0241 477.262 76.8538C498.014 68.3612 531.721 58.2473 578.761 58.4406" stroke="#4A3AFF" stroke-width="0.5" stroke-miterlimit="10"/>
<path d="M-160.427 104.608C-143.849 108.623 -128.683 112.789 -115.285 115.935C-89.0103 122.119 -76.776 123.654 -60.4854 131.235C-46.6678 137.676 -40.8581 143.893 -28.1397 148.059C-16.6643 151.795 -7.30864 152.847 -2.7682 153.674C13.1299 156.562 19.0835 151.258 34.9946 146.641C52.332 141.617 67.7983 142.218 78.1745 137.977C96.7026 137.977 111.449 144.559 126.183 145.396C127.611 146.071 129.109 146.642 130.658 147.103C162.532 156.143 161.486 168.082 179.674 172.721C199.026 177.649 223.233 173.279 240.583 173.129C254.61 173 266.19 172.742 276.37 173.923C288.003 175.265 298.863 180.483 309.684 185.046C314.696 187.193 318.503 189.244 321.866 188.825C342.449 186.292 344.699 175.523 363.162 158.022C369.901 151.634 376.247 144.065 385.066 137.118C397.34 127.53 421.599 97.9512 467.618 76.8001C470 75.705 472.595 74.5741 475.404 73.4074C496.339 64.8181 530.465 54.4037 578.106 54.3715" stroke="#4A3AFF" stroke-width="0.5" stroke-miterlimit="10"/>
<path d="M-159.721 108.817C-143.613 112.832 -128.736 117.095 -115.324 120.401C-90.2009 126.607 -77.6918 128.561 -61.4928 136.163C-48.0285 142.465 -42.0095 148.52 -29.7752 152.665C-21.7661 155.242 -13.5006 157.246 -5.07103 158.656C10.3952 161.877 16.7152 157.324 32.3254 153.083C49.0871 148.542 63.729 148.789 74.5763 144.269C92.267 143.872 106.857 149.261 122.035 149.229C123.486 149.79 124.997 150.239 126.549 150.571C158.712 157.185 159.602 167.503 177.057 171.507C196.775 176.028 221.009 171.851 238.791 171.507C252.922 171.239 264.725 171.4 275.075 172.892C286.851 174.6 297.895 180.612 308.494 185.583C313.544 187.945 317.365 190.178 320.715 189.76C341.271 187.215 343.169 175.33 361.095 156.755C367.546 150.067 373.695 142.143 382.58 134.939C394.134 125.555 418.995 95.1383 465.708 73.4719C468.102 72.3982 470.719 71.2065 473.559 70.0147C494.665 61.2429 529.209 50.5493 577.439 50.3453" stroke="#4A3AFF" stroke-width="0.5" stroke-miterlimit="10"/>
<path d="M-159.014 113.015C-143.312 117.03 -128.775 121.378 -115.363 124.825C-91.3917 131.031 -78.6209 133.414 -62.4873 141.026C-49.4025 147.2 -43.1348 153.094 -31.4239 157.217C-23.6187 159.863 -15.5787 162.017 -7.374 163.659C7.68664 167.191 14.3468 163.401 29.6561 159.558C45.842 155.478 59.5418 155.467 70.9518 150.593C87.8181 149.766 102.238 153.985 117.848 153.073C119.326 153.515 120.85 153.846 122.401 154.06C154.93 158.301 157.73 166.944 174.44 170.337C194.538 174.417 218.771 170.187 237.011 169.929C251.248 169.736 263.273 170.09 273.78 171.905C285.765 173.977 296.901 180.784 307.316 186.163C312.38 188.783 316.227 191.155 319.563 190.737C340.107 188.181 341.651 175.179 359.014 155.531C365.203 148.531 371.183 140.296 380.081 132.813C390.967 123.644 416.404 92.379 463.824 70.1865C466.231 69.0592 468.887 67.8781 471.766 66.6542C493.042 57.7321 528.031 46.7486 576.824 46.3621" stroke="#4A3AFF" stroke-width="0.5" stroke-miterlimit="10"/>
<path d="M-158.321 117.212C-143.142 121.217 -128.814 125.662 -115.402 129.302C-92.6218 135.518 -79.537 138.331 -63.495 145.954C-50.7373 152.01 -44.2603 157.764 -33.0597 161.834C-25.4587 164.5 -17.6519 166.752 -9.69017 168.576C4.97792 172.409 11.9783 169.403 26.9474 165.935C42.5706 162.338 55.3676 162.027 67.2879 156.82C83.3168 155.585 97.5662 158.623 113.634 156.82C115.138 157.148 116.675 157.36 118.227 157.453C151.122 159.343 155.794 166.236 171.783 169.059C192.261 172.688 216.494 168.415 235.192 168.265C249.52 168.136 261.781 168.684 272.445 170.82C284.614 173.257 295.867 180.859 306.086 186.646C311.176 189.534 315.036 192.014 318.373 191.617C338.89 189.062 340.119 174.932 356.907 154.211C362.822 146.91 368.684 138.374 377.542 130.59C387.801 121.647 413.761 89.5766 461.887 66.8151C464.308 65.6662 466.99 64.4637 469.908 63.2183C491.341 54.1459 526.722 42.8618 576.144 42.3357" stroke="#4A3AFF" stroke-width="0.5" stroke-miterlimit="10"/>
<path d="M-157.614 121.411C-142.907 125.426 -128.827 129.935 -115.442 133.768C-93.747 139.963 -80.4659 143.238 -64.5024 150.861C-52.0849 156.787 -45.3855 162.36 -34.7083 166.429C-27.3083 169.155 -19.7241 171.532 -11.993 173.547C2.28254 177.681 9.59694 175.448 24.3174 172.366C39.3649 169.231 51.2721 168.63 63.7027 163.111C78.9073 161.458 92.9865 163.315 109.5 160.653C111.035 160.821 112.582 160.91 114.132 160.921C147.367 162.134 153.962 165.591 169.206 167.868C190.063 170.981 214.309 166.515 233.439 166.665C247.832 166.783 260.368 167.352 271.189 169.811C283.541 172.613 294.885 181.02 304.935 187.204C310.051 190.361 313.937 192.98 317.26 192.572C337.764 190.017 338.68 174.782 354.866 152.987C360.519 145.375 366.211 136.538 375.095 128.432C384.647 119.714 411.223 86.7422 459.977 63.5083C462.428 62.3344 465.128 61.114 468.076 59.8471C489.666 50.5922 525.479 39.0289 575.489 38.2988" stroke="#4A3AFF" stroke-width="0.5" stroke-miterlimit="10"/>
<path d="M-156.907 125.598C-142.671 129.603 -128.867 134.187 -115.481 138.203C-94.9115 144.365 -81.3948 148.102 -65.5099 155.746C-53.4457 161.544 -46.5238 166.955 -36.3438 171.003C-26.9227 174.761 -19.3335 176.908 -14.2959 178.518C-0.399785 182.931 7.22868 181.482 21.6482 178.808C34.6916 176.351 47.5283 173.206 60.0783 169.392C73.8435 165.42 88.2107 161.469 105.313 164.464C106.865 164.642 108.442 164.613 109.984 164.378C143.664 161.651 152.078 164.915 166.589 166.665C187.838 169.221 212.072 164.819 231.66 165.055C246.197 165.227 258.915 166.01 269.893 168.78C282.416 172.001 293.865 181.17 303.744 187.752C308.873 191.177 312.799 193.925 316.122 193.507C336.587 190.941 337.215 174.589 352.76 151.72C358.151 143.796 363.712 134.681 372.557 126.264C381.402 117.846 408.632 84.0045 458.027 60.1693C460.487 58.999 463.261 57.7428 466.205 56.4437C487.965 47.0385 524.184 35.1853 574.809 34.2727" stroke="#4A3AFF" stroke-width="0.5" stroke-miterlimit="10"/>
<path d="M-156.201 129.796C-142.436 133.801 -128.893 138.385 -115.507 142.68C-96.0764 148.81 -82.3112 153.019 -66.5178 160.674C-54.7414 166.343 -47.6495 171.593 -37.9929 175.619C-28.9774 179.388 -21.6499 181.739 -16.5992 183.489C-3.06946 188.181 4.84684 187.505 18.9785 185.239C32.8615 183.017 42.0732 180.182 56.4534 175.684C69.4074 171.625 83.1988 170.842 101.138 168.276C102.787 168.039 104.37 168.061 105.849 167.846C139.948 162.821 150.193 164.217 163.971 165.463C185.601 167.406 209.847 163.133 229.867 163.444C244.509 163.68 257.462 164.668 268.598 167.739C281.303 171.282 292.831 181.288 302.553 188.278C307.695 191.971 311.712 194.849 314.97 194.43C335.409 191.864 335.762 174.385 350.718 150.41C355.86 142.175 361.304 132.802 370.097 124.041C378.379 115.795 406.08 81.1485 456.156 56.7979C458.642 55.6062 461.389 54.3285 464.412 52.9972C486.329 43.4417 522.98 31.2986 574.181 30.2035" stroke="#4A3AFF" stroke-width="0.5" stroke-miterlimit="10"/>
<path d="M-155.429 133.983C-142.135 137.988 -128.841 142.658 -115.481 147.092C-97.1625 153.18 -83.1748 157.829 -67.4599 165.538C-56.0892 171.078 -48.7094 176.167 -39.5631 180.183C-30.9663 183.94 -23.9529 186.485 -18.8367 188.417C-5.66029 193.388 2.54389 193.485 16.3876 191.638C29.6818 189.856 38.0954 186.968 52.8943 181.976C65.0763 177.831 78.6191 175.888 97.0163 172.098C98.6519 171.765 100.274 171.625 101.779 171.314C136.323 164.003 148.414 165.484 161.42 164.26C183.576 162.264 205.868 161.46 228.152 161.855C242.899 162.145 256.075 163.337 267.407 166.751C280.295 170.659 291.889 181.471 301.427 188.858C306.57 192.819 310.587 195.815 313.884 195.407C334.31 192.83 334.375 174.234 348.716 149.24C353.61 140.704 358.961 131.074 367.676 121.958C375.331 113.959 403.541 78.4214 454.311 53.5663C456.81 52.353 459.544 51.0539 462.646 49.7011C484.733 39.9738 521.789 27.5408 573.592 26.2847" stroke="#4A3AFF" stroke-width="0.5" stroke-miterlimit="10"/>
<path d="M-154.788 137C-141.965 141.005 -128.919 145.707 -115.533 150.367C-98.3139 156.39 -84.1299 161.576 -68.4281 169.253C-57.3976 174.621 -49.7953 179.603 -41.1593 183.586C-32.9813 187.355 -26.2688 190.092 -21.1134 192.175C-8.25101 197.415 0.201775 198.284 13.7577 196.856C26.4761 195.514 34.1307 192.626 49.3091 187C60.7453 182.759 74.0918 179.699 92.8816 174.653C94.5172 174.213 96.1397 173.923 97.6837 173.504C132.699 163.927 146.582 163.026 158.842 161.802C181.255 159.539 203.836 158.595 226.412 158.978C241.25 159.332 254.662 160.728 266.098 164.464C279.183 168.759 290.829 180.344 300.276 188.085C305.405 192.315 309.435 195.45 312.772 195.031C333.171 192.444 332.988 172.731 346.675 146.652C351.32 137.795 356.619 127.928 365.216 118.458C372.269 110.696 400.977 74.2771 452.439 48.9066C454.952 47.6719 457.765 46.3513 460.853 44.977C483.097 35.0886 520.585 22.3658 572.977 20.9271" stroke="#4A3AFF" stroke-width="0.5" stroke-miterlimit="10"/>
<path d="M-154.121 138.621C-141.769 142.626 -128.945 147.329 -115.664 152.235C-99.5438 158.194 -85.0982 163.852 -69.5796 171.561C-58.8893 176.833 -51.0776 181.632 -42.9519 185.583C-35.1796 189.362 -28.768 192.272 -23.5602 194.569C-11.0119 200.077 -2.31048 201.709 10.9444 200.711C23.0872 199.798 30.0352 196.985 45.5407 190.704C56.2441 186.41 69.4336 182.201 88.5506 175.888C90.1992 175.351 91.8348 174.911 93.3919 174.385C128.93 162.521 144.501 159.203 156.081 158.012C178.626 155.703 203.108 154.222 224.476 154.791C239.419 155.188 253.053 156.798 264.659 160.857C277.914 165.495 289.612 177.896 298.941 186.098C304.071 190.608 308.192 193.85 311.477 193.431C331.863 190.855 331.418 170.004 344.464 142.862C348.86 133.693 354.133 123.601 362.573 113.755C369.037 106.24 398.229 68.941 450.385 43.0551C452.924 41.8097 455.75 40.4569 458.877 39.0504C481.292 29.0117 519.185 15.999 572.179 14.3563" stroke="#4A3AFF" stroke-width="0.5" stroke-miterlimit="10"/>
<path d="M-153.388 140.167C-141.494 144.161 -128.88 148.864 -115.664 154.039C-100.214 159.979 -85.1548 166.58 -70.5479 173.816C-60.1978 178.969 -52.2292 183.618 -44.5484 187.526C-37.2078 191.338 -31.0841 194.408 -25.824 196.889C-13.5766 202.676 -4.63964 205.059 8.31433 204.501C19.8944 204.007 26.1751 201.333 41.9554 194.344C51.9784 189.91 65.024 184.627 84.4157 177.058C86.0644 176.414 87.7131 175.823 89.2963 175.201C125.345 161.05 142.486 154.748 153.504 154.157C176.52 152.955 200.91 149.862 222.735 150.539C237.783 150.979 251.64 152.826 263.403 157.195C276.841 162.199 288.578 175.448 297.79 184.037C302.893 188.815 307.08 192.186 310.364 191.778C330.724 189.18 329.992 167.202 342.422 138.997C346.812 128.431 352.752 118.344 360.113 108.956C366.001 101.666 395.664 63.4975 448.501 37.0963C451.052 35.8294 453.905 34.4551 457.072 33.0271C479.643 22.8274 517.968 9.52482 571.551 7.73181" stroke="#4A3AFF" stroke-width="0.5" stroke-miterlimit="10"/>
<path d="M-152.681 141.649C-124.65 151.456 -97.5354 162.939 -71.5554 176.006C-29.7624 197.039 -18.3394 208.398 5.64511 208.216C23.1133 208.076 27.2351 201.978 80.2286 178.153C120.085 160.234 140.013 151.312 150.887 150.238C189.958 146.491 232.667 141.853 262.108 153.459C283.331 161.823 300.054 191.123 309.213 189.963C336.364 186.506 325.648 146.48 357.627 104.071C362.952 97.0063 393.074 57.9789 446.604 31.0624C467.382 20.6157 509.097 3.24394 570.909 1" stroke="#4A3AFF" stroke-width="0.5" stroke-miterlimit="10"/>
</svg>
